<svg version="1.1" xmlns="http://www.w3.org/2000/svg" xmlns:xlink="http://www.w3.org/1999/xlink" width="45.65422" height="45.65422" viewBox="0,0,45.65422,45.65422"><g transform="translate(-217.17289,-157.17289)"><g stroke-miterlimit="10"><path d="M222.98881,201.07711c-2.24554,0 -4.06592,-1.82037 -4.06592,-4.06592v-34.02239c0,-2.24554 1.82037,-4.06592 4.06592,-4.06592h34.02239c2.24554,0 4.06592,1.82037 4.06592,4.06592v34.02239c0,2.24554 -1.82037,4.06592 -4.06592,4.06592z" fill="#434343" stroke="#212121" stroke-width="3.5" stroke-linecap="butt" stroke-linejoin="miter"/><path d="M240.42152,175.73186c-1.80307,-0.17807 -3.52354,0.7961 -4.29842,2.43388c-0.77488,1.63778 -0.437,3.58582 0.84417,4.86699c1.28116,1.28116 3.22921,1.61905 4.86699,0.84417c1.63778,-0.77488 2.61196,-2.49535 2.43388,-4.29842c-0.20428,-2.03382 -1.8128,-3.64235 -3.84662,-3.84662zM250.74843,180c-0.00274,0.46619 -0.03699,0.93166 -0.10253,1.39323l3.02972,2.37633c0.27243,0.22583 0.34185,0.61542 0.16419,0.92145l-2.8662,4.95906c-0.17969,0.30299 -0.5513,0.4328 -0.88057,0.3076l-3.00894,-1.21162c-0.33705,-0.1342 -0.71897,-0.09014 -1.01661,0.11727c-0.45922,0.31623 -0.94176,0.59715 -1.44349,0.84036c-0.32033,0.15569 -0.54199,0.46079 -0.59107,0.81355l-0.45101,3.20932c-0.06109,0.34954 -0.36095,0.60701 -0.71571,0.61452h-5.7324c-0.34849,-0.00603 -0.64616,-0.25302 -0.71638,-0.59442l-0.45034,-3.20462c-0.05136,-0.35669 -0.27773,-0.66405 -0.60313,-0.81891c-0.50112,-0.24189 -0.98204,-0.52359 -1.43813,-0.84237c-0.29665,-0.2064 -0.67731,-0.24948 -1.01259,-0.11459l-3.00827,1.21095c-0.32911,0.12532 -0.70067,-0.00418 -0.88057,-0.30693l-2.8662,-4.95906c-0.17796,-0.30597 -0.1085,-0.69577 0.16418,-0.92145l2.56062,-2.01043c0.28502,-0.22625 0.4363,-0.58127 0.40209,-0.94356c-0.02413,-0.27945 -0.03887,-0.55823 -0.03887,-0.83768c0,-0.27945 0.01407,-0.55421 0.03887,-0.82763c0.03047,-0.36004 -0.12244,-0.71122 -0.40678,-0.93418l-2.55928,-2.01043c-0.26812,-0.22671 -0.33505,-0.61306 -0.15882,-0.91676l2.8662,-4.95906c0.17969,-0.30299 0.5513,-0.4328 0.88057,-0.3076l3.00894,1.21162c0.33705,0.1342 0.71897,0.09014 1.01661,-0.11727c0.45922,-0.31623 0.94176,-0.59715 1.44349,-0.84036c0.32033,-0.15569 0.54199,-0.46079 0.59107,-0.81355l0.45101,-3.20932c0.06109,-0.34954 0.36095,-0.60701 0.71571,-0.61452h5.7324c0.34849,0.00603 0.64616,0.25302 0.71638,0.59442l0.45034,3.20462c0.05136,0.35669 0.27773,0.66405 0.60313,0.81891c0.50112,0.24189 0.98204,0.52359 1.43813,0.84237c0.29665,0.2064 0.67731,0.24948 1.01259,0.11459l3.00827,-1.21095c0.32911,-0.12532 0.70067,0.00418 0.88057,0.30693l2.8662,4.95906c0.17796,0.30597 0.1085,0.69577 -0.16418,0.92145l-2.56062,2.01043c-0.28627,0.22552 -0.43887,0.58067 -0.40544,0.94356c0.02211,0.27744 0.03686,0.55622 0.03686,0.83567z" fill="none" stroke="#ffffff" stroke-width="2" stroke-linecap="round" stroke-linejoin="round"/></g></g></svg>