<svg version="1.1" xmlns="http://www.w3.org/2000/svg" xmlns:xlink="http://www.w3.org/1999/xlink" width="182.33951" height="78.53982" viewBox="0,0,182.33951,78.53982"><defs><linearGradient x1="178.49501" y1="179.64581" x2="178.49501" y2="191.12469" gradientUnits="userSpaceOnUse" id="color-1"><stop offset="0" stop-color="#ffffff"/><stop offset="1" stop-color="#7e7e7e"/></linearGradient><linearGradient x1="189.97552" y1="168.16636" x2="189.97552" y2="179.64535" gradientUnits="userSpaceOnUse" id="color-2"><stop offset="0" stop-color="#ffffff"/><stop offset="1" stop-color="#7e7e7e"/></linearGradient><linearGradient x1="170.46153" y1="182.26033" x2="170.46153" y2="190.1715" gradientUnits="userSpaceOnUse" id="color-3"><stop offset="0" stop-color="#ffffff"/><stop offset="1" stop-color="#7e7e7e"/></linearGradient><linearGradient x1="198.21513" y1="169.58126" x2="198.21513" y2="177.49238" gradientUnits="userSpaceOnUse" id="color-4"><stop offset="0" stop-color="#ffffff"/><stop offset="1" stop-color="#7e7e7e"/></linearGradient><linearGradient x1="180.29043" y1="193.99463" x2="180.29043" y2="197.58178" gradientUnits="userSpaceOnUse" id="color-5"><stop offset="0" stop-color="#ffffff"/><stop offset="1" stop-color="#7e7e7e"/></linearGradient><linearGradient x1="188.64284" y1="161.91708" x2="188.64284" y2="165.50427" gradientUnits="userSpaceOnUse" id="color-6"><stop offset="0" stop-color="#ffffff"/><stop offset="1" stop-color="#7e7e7e"/></linearGradient><linearGradient x1="184.58914" y1="157.39666" x2="184.58914" y2="202.60334" gradientUnits="userSpaceOnUse" id="color-7"><stop offset="0" stop-color="#ffffff"/><stop offset="1" stop-color="#7e7e7e"/></linearGradient></defs><g transform="translate(-148.83025,-140.73009)"><g stroke-miterlimit="10"><path d="M154.69619,217.26991c-2.1351,0 -3.86594,-1.56609 -3.86594,-3.49796v-67.5439c0,-1.93187 1.73084,-3.49796 3.86594,-3.49796h170.60763c2.1351,0 3.86594,1.56609 3.86594,3.49796v67.5439c0,1.93187 -1.73084,3.49796 -3.86594,3.49796z" fill="#434343" stroke="#212121" stroke-width="4" stroke-linecap="butt"/><text transform="translate(213.52393,166.34843) scale(0.37219,0.43575)" font-size="40" xml:space="preserve" fill="#ffffff" stroke="none" stroke-width="1" stroke-linecap="butt" font-family="&quot;Tw Cen MT&quot;, Sans Serif" font-weight="normal" text-anchor="start"><tspan x="0" dy="0">ЛАБОРАТОРИЯ</tspan></text><text transform="translate(212.96313,190.86881) scale(0.40293,0.40293)" font-size="40" xml:space="preserve" fill="#ffffff" stroke="none" stroke-width="1" stroke-linecap="butt" font-family="&quot;Tw Cen MT&quot;, Sans Serif" font-weight="normal" text-anchor="start"><tspan x="0" dy="0">35sx ⚡️ </tspan></text><text transform="translate(213.95382,207.72239) scale(0.24021,0.24021)" font-size="40" xml:space="preserve" fill="#ffffff" stroke="none" stroke-width="1" stroke-linecap="butt" font-family="&quot;Tw Cen MT&quot;, Sans Serif" font-weight="normal" text-anchor="start"><tspan x="0" dy="0">+86Qn развитие</tspan></text><path d="M184.23448,191.12468l-4.16602,-4.34368M175.54782,182.438l-2.7923,-2.79219" fill="none" stroke="url(#color-1)" stroke-width="3" stroke-linecap="round"/><path d="M184.23608,168.16636l4.87373,5.05264M193.63049,177.73967l2.08448,1.90569" fill="none" stroke="url(#color-2)" stroke-width="3" stroke-linecap="round"/><path d="M174.41711,190.1715l-7.91117,-7.91117" fill="none" stroke="url(#color-3)" stroke-width="3" stroke-linecap="round"/><path d="M194.25954,169.58126l7.91117,7.91112" fill="none" stroke="url(#color-4)" stroke-width="3" stroke-linecap="round"/><path d="M178.49683,193.99463l3.58717,3.58715" fill="none" stroke="url(#color-5)" stroke-width="3" stroke-linecap="round"/><path d="M186.84926,161.91708l3.58715,3.5872" fill="none" stroke="url(#color-6)" stroke-width="3" stroke-linecap="round"/><path d="M207.19247,174.34917c-6.2609,6.2609 -15.13249,8.68601 -22.49891,6.14992l-0.4489,-0.15461M161.98576,185.65083c5.84353,-5.84364 14.12365,-8.10691 20.99895,-5.73989l1.25991,0.43353M190.23999,157.39666c-6.2609,6.26092 -8.68601,15.13251 -6.14992,22.49891l0.15461,0.4489M178.93832,202.60334c5.84364,-5.84364 8.10691,-14.1237 5.73989,-20.99895l-0.43353,-1.25991" fill="none" stroke="url(#color-7)" stroke-width="3" stroke-linecap="round"/></g></g></svg>