<svg version="1.1" xmlns="http://www.w3.org/2000/svg" xmlns:xlink="http://www.w3.org/1999/xlink" width="182.33951" height="78.53982" viewBox="0,0,182.33951,78.53982"><g transform="translate(-148.83025,-140.73009)"><g stroke-miterlimit="10"><path d="M154.69619,217.26991c-2.1351,0 -3.86594,-1.56609 -3.86594,-3.49796v-67.5439c0,-1.93187 1.73084,-3.49796 3.86594,-3.49796h170.60763c2.1351,0 3.86594,1.56609 3.86594,3.49796v67.5439c0,1.93187 -1.73084,3.49796 -3.86594,3.49796z" fill="#434343" stroke="#212121" stroke-width="4"/><text transform="translate(212.96315,190.86881) scale(0.40293,0.40293)" font-size="40" xml:space="preserve" fill="#ffffff" stroke="none" stroke-width="1" font-family="&quot;Tw Cen MT&quot;, Sans Serif" font-weight="normal" text-anchor="start"><tspan x="0" dy="0">1Sp ⚡️ </tspan></text><text transform="translate(213.95384,207.72239) scale(0.24021,0.24021)" font-size="40" xml:space="preserve" fill="#ffffff" stroke="none" stroke-width="1" font-family="&quot;Tw Cen MT&quot;, Sans Serif" font-weight="normal" text-anchor="start"><tspan x="0" dy="0">+2.4sx развитие</tspan></text><path d="M206.26364,165.97074h-1.58588zM179.2693,181.63122l-1.11902,1.12386zM179.2693,173.8156l-1.11902,-1.12375zM189.66346,184.14706l1.119,1.12365zM179.55762,186.39457l1.119,-1.12386zM202.65735,175.68392l-1.119,-1.12376zM203.09185,167.01281h1.58588zM187.78705,160.85748l1.11899,1.12375zM182.08404,179.11538c0.62061,-0.61786 1.62479,-0.61575 2.24286,0.00486c0.61807,0.62061 0.61596,1.62479 -0.00486,2.24265zM175.57813,175.24368l0.00169,0.00169l-1.12071,1.122zM184.05878,166.32437c0.7367,0.47361 0.95005,1.45482 0.4764,2.19158c-0.47344,0.73676 -1.45478,0.95009 -2.19148,0.47646zM181.18621,168.24834l0.85743,-1.33402zM177.54822,162.92283l-0.23158,1.56888zM169.41881,171.04571l-1.11899,-1.12378zM174.63597,166.37643l-0.60714,-1.46506zM170.05705,171.02479l-0.58358,1.47459zM169.09664,174.05655l0.6035,-1.46658zM173.81076,173.48375l-1.11902,1.12376zM171.41481,175.57494l1.10367,-1.13883zM168.1933,173.69831l0.58358,-1.47459zM186.1568,190.36477c-0.02622,-0.02284 -0.05138,-0.04652 -0.07591,-0.07105l1.12069,-1.12217zM194.50632,181.10365c-0.4764,-0.73479 -0.26685,-1.71677 0.46815,-2.19338c0.735,-0.4764 1.71698,-0.26685 2.19338,0.46815zM195.25362,182.25648l1.33066,-0.86272zM200.58574,185.86742l-1.56854,0.23344zM194.68309,196.20355l-1.11899,-1.12386zM200.05904,189.98648l-1.46324,-0.61173zM192.81175,194.23304l-1.47297,0.58783zM189.07651,193.57818l1.39008,-0.76355zM189.20823,188.82096l0.03806,0.03341l0.03615,0.03573l-1.11899,1.12386zM190.9157,190.62697l-1.24777,0.97901zM192.29034,194.10998l1.11899,1.12365zM186.13669,187.16658l0.54745,1.4884zM176.25445,177.28358l-1.47112,-0.59227zM168.76963,180.75264c0.6197,-0.61913 1.62381,-0.61849 2.24277,0.00127c0.61894,0.61976 0.61832,1.62373 -0.00138,2.24286zM165.19241,184.32531l1.12069,1.12217zM161.94042,181.07743l1.12071,1.12196zM162.26563,180.75264c0.6197,-0.61913 1.62381,-0.61849 2.24277,0.00127c0.61894,0.61976 0.61832,1.62373 -0.00138,2.24286zM180.45757,192.5296c0.61976,-0.61913 1.62373,-0.61849 2.24264,0.00127c0.61913,0.61976 0.61849,1.62373 -0.00127,2.24286zM179.12174,198.3464l-1.12071,-1.12196zM182.37371,201.59449l-1.12069,-1.12196zM180.45757,199.02557c0.61976,-0.61892 1.62373,-0.61828 2.24264,0.00148c0.61913,0.61955 0.61849,1.62373 -0.00127,2.24265zM178.39887,188.72264c0.61932,-0.61934 1.62352,-0.61934 2.24286,0c0.61934,0.61934 0.61934,1.62352 0,2.24286zM176.19606,195.41104c-0.61932,0.61934 -1.62346,0.61934 -2.24277,0c-0.61932,-0.61934 -0.61932,-1.62352 0,-2.24286zM172.5296,182.86059c0.61932,-0.61934 1.62343,-0.61934 2.24277,0c0.61932,0.61934 0.61932,1.62331 0,2.24265zM170.29616,189.57944c-0.61932,0.61934 -1.62343,0.61934 -2.24277,0c-0.61932,-0.61934 -0.61932,-1.62331 0,-2.24265zM171.71602,189.53461c0.62619,-0.61236 1.63024,-0.60116 2.24265,0.02495c0.61238,0.62632 0.60122,1.63028 -0.02497,2.24265zM170.31882,195.33766c-0.62617,0.61236 -1.63024,0.60116 -2.24262,-0.02495c-0.6124,-0.62632 -0.60124,-1.63028 0.02495,-2.24264zM202.65735,175.68392l-10.75586,10.71065l-2.23799,-2.24751l10.75586,-10.71063zM179.55762,186.39457l-2.52637,-2.51584l2.23803,-2.24751l2.52633,2.51584zM177.03123,171.56809l10.75582,-10.71061l2.2382,2.24751l-10.75599,10.71061zM196.48553,157.26915h1.04647v3.17176h-1.04647zM206.26364,165.97074v1.04209l-3.17176,-0.00002v-1.04207zM197.532,157.26915c1.63959,0 3.02818,-0.00334 4.1309,0.14429c1.14754,0.15364 2.22023,0.4963 3.08739,1.3599l-2.238,2.24751c-0.17931,-0.17847 -0.47196,-0.35682 -1.2704,-0.46371c-0.84326,-0.11289 -1.98108,-0.11623 -3.7099,-0.11623zM203.09185,165.97074c0,-1.7222 -0.00338,-2.85365 -0.11651,-3.69174c-0.10699,-0.79178 -0.28483,-1.08062 -0.46308,-1.25815l2.238,-2.24751c0.86822,0.86454 1.21351,1.93535 1.3683,3.08128c0.14844,1.09961 0.14505,2.48395 0.14505,4.11612zM177.03123,183.87873c-1.15917,-1.15431 -2.14407,-2.13015 -2.81952,-3.0119c-0.70326,-0.91769 -1.22024,-1.91828 -1.22024,-3.14342h3.17176c0,0.24867 0.07849,0.5779 0.56618,1.21436c0.51552,0.67284 1.31706,1.47592 2.53986,2.69346zM181.79563,184.14706c1.22282,1.21753 2.02929,2.01576 2.70509,2.52937c0.63901,0.48549 0.97289,0.56626 1.22874,0.56626v3.17176c-1.22409,0 -2.22552,-0.51213 -3.14745,-1.21245c-0.88513,-0.67241 -1.86499,-1.65312 -3.02438,-2.80743zM200.41935,173.43643c1.64107,-1.6342 2.12783,-2.15872 2.38622,-2.77982l2.92838,1.21815c-0.55738,1.34039 -1.61971,2.35836 -3.0766,3.80916zM206.26364,167.01281c0,2.0516 0.02833,3.52084 -0.52968,4.86195l-2.92838,-1.21815c0.25797,-0.6204 0.28631,-1.33256 0.28631,-3.6438zM187.78705,160.85748c1.45774,-1.45157 2.47905,-2.50806 3.82281,-3.06229l1.2095,2.93215c-0.62611,0.25824 -1.15389,0.74424 -2.79411,2.37766zM196.48553,160.44091c-2.31961,0 -3.03939,0.02787 -3.66613,0.28643l-1.2095,-2.93215c1.34292,-0.55391 2.81399,-0.52605 4.87563,-0.52605zM178.29446,182.88914l3.78958,-3.77376l2.238,2.24751l-3.78962,3.77376zM182.34371,168.99242l-1.15748,-0.74408l1.71507,-2.66804l1.15748,0.74407zM181.18621,168.24834c-1.18159,-0.75949 -1.99258,-1.27955 -2.6618,-1.63974c-0.6493,-0.34945 -1.06813,-0.49321 -1.43937,-0.54802l0.46316,-3.13776c0.87287,0.12884 1.65661,0.45005 2.47926,0.89283c0.80288,0.43206 1.73326,1.03148 2.87383,1.76464zM167.18078,168.79818c1.02418,-1.01985 2.18403,-2.17522 3.24042,-3.13774c0.52861,-0.48164 1.05023,-0.93245 1.53107,-1.3026c0.45629,-0.35128 0.97016,-0.70464 1.46939,-0.91152l1.21428,2.93012c-0.09786,0.04056 -0.34103,0.18071 -0.74887,0.49469c-0.38332,0.29508 -0.83293,0.68121 -1.32969,1.13384c-0.99439,0.90603 -2.10197,2.00851 -3.1386,3.04075zM177.08502,166.06059c-0.80516,-0.11884 -1.65331,-0.01394 -2.44908,0.31584l-1.21428,-2.93012c1.31036,-0.54303 2.73736,-0.72853 4.12653,-0.52349zM169.36046,170.74913l0.69656,0.27567l-1.16716,2.94921l-0.69656,-0.27569zM173.81076,173.48375l1.76737,1.75993l-2.23803,2.24755l-1.76737,-1.75997zM170.05705,171.02479c0.10995,0.04352 0.17836,0.07054 0.24659,0.09862l-1.207,2.93314c-0.04384,-0.01806 -0.08919,-0.03603 -0.20676,-0.08257zM171.57275,175.73126c-0.08942,-0.08904 -0.12397,-0.1234 -0.15793,-0.15633l2.20731,-2.27766c0.05295,0.0513 0.10496,0.10314 0.18866,0.18648zM170.30361,171.12341c1.23438,0.50797 2.36068,1.24564 3.31849,2.17386l-2.20731,2.27766c-0.66852,-0.64786 -1.45523,-1.16327 -2.31818,-1.51838zM169.41881,171.04571c0.09473,-0.09433 0.05616,-0.25129 -0.05829,-0.29658l-1.16719,2.94918c-2.00176,-0.79222 -2.54331,-3.37583 -1.01251,-4.90013zM197.16785,179.37843l0.74727,1.15262l-2.66153,1.72544l-0.74727,-1.15283zM194.68309,196.20355l-0.15478,0.15394l-2.23799,-2.24751l0.15457,-0.15394zM197.91515,180.53104c0.73606,1.13549 1.33827,2.06249 1.77238,2.8622c0.44489,0.81979 0.76841,1.60195 0.89824,2.47418l-3.13708,0.46688c-0.05455,-0.36666 -0.19813,-0.78194 -0.54872,-1.42793c-0.36158,-0.66607 -0.88344,-1.47339 -1.64635,-2.6499zM192.44489,193.95604c1.03674,-1.0323 2.1439,-2.13523 3.05356,-3.12545c0.45462,-0.49458 0.84242,-0.94222 1.13866,-1.32389c0.31527,-0.4062 0.45547,-0.64746 0.49543,-0.74346l2.92648,1.22324c-0.20849,0.4986 -0.56394,1.01116 -0.91664,1.46535c-0.37173,0.47894 -0.82466,0.99847 -1.30825,1.52477c-0.96675,1.05197 -2.12698,2.20712 -3.15104,3.22695zM200.58574,185.86742c0.20659,1.38712 0.01967,2.81166 -0.52672,4.11906l-2.92648,-1.22324c0.33008,-0.78977 0.43495,-1.63092 0.31612,-2.42893zM187.11868,191.20697l-0.96189,-0.84221l2.08955,-2.38622l0.96189,0.84242zM189.86583,195.40871c-0.42057,-1.05366 -0.58487,-1.45817 -0.78935,-1.83053l2.78015,-1.52688c0.3195,0.58191 0.56182,1.19681 0.95512,2.18175zM189.28246,188.89011c0.75276,0.74959 1.22345,1.21457 1.63325,1.73686l-2.49533,1.95803c-0.26262,-0.33494 -0.57092,-0.64556 -1.37591,-1.44738zM189.07651,193.57818c-0.19136,-0.34826 -0.41063,-0.68045 -0.65613,-0.99318l2.49533,-1.95803c0.35185,0.44849 0.66649,0.92488 0.94095,1.42433zM196.95429,173.8156c-2.01407,2.00559 -5.27675,2.00559 -7.29082,0l2.23799,-2.24751c0.77645,0.77325 2.03817,0.77325 2.81483,0zM189.66346,173.8156c-2.01787,-2.00929 -2.01787,-5.26979 0,-7.27908l2.23799,2.24751c-0.77285,0.76958 -0.77285,2.01449 0,2.78406zM189.66346,166.53652c2.01407,-2.00559 5.27675,-2.00559 7.29082,0l-2.23799,2.24751c-0.77666,-0.77325 -2.03838,-0.77325 -2.81483,0zM196.95429,166.53652c2.01766,2.00929 2.01766,5.26979 0,7.27908l-2.23799,-2.24751c0.77285,-0.76958 0.77285,-2.01449 0,-2.78406zM194.52852,196.35749c-1.42602,1.41989 -3.89957,0.96294 -4.66269,-0.94878l2.94593,-1.17566c-0.05159,-0.12941 -0.16345,-0.19516 -0.24295,-0.21124c-0.07908,-0.01565 -0.19327,0.00317 -0.27848,0.08817zM191.90146,186.39457c-0.91304,0.90924 -1.70556,1.69964 -2.41202,2.30904c-0.70392,0.60707 -1.43617,1.13739 -2.25766,1.43977l-1.0951,-2.9768c0.288,-0.10594 0.67728,-0.34382 1.28097,-0.86483c0.60137,-0.51848 1.30317,-1.21605 2.24582,-2.15468zM187.23178,190.14338c-0.48105,0.17677 -0.97901,0.27108 -1.50235,0.27108v-3.17176c0.13089,0 0.2586,-0.02157 0.40725,-0.07612zM186.08089,190.29372l-0.51742,-0.51679l2.24138,-2.24412l0.51742,0.51678zM179.2693,173.8156c-0.91873,0.91484 -1.60812,1.60248 -2.12616,2.19294c-0.52089,0.59375 -0.77122,0.98324 -0.88866,1.27505l-2.94225,-1.18454c0.31716,-0.78782 0.84528,-1.49676 1.44668,-2.18226c0.60428,-0.68878 1.38105,-1.46114 2.27235,-2.34869zM176.25445,177.28358c-0.06688,0.16599 -0.09122,0.3028 -0.09122,0.43982h-3.17176c0,-0.5707 0.11296,-1.10842 0.32073,-1.62436zM175.57983,175.24537l0.32422,0.32382l-2.24142,2.24408l-0.32422,-0.32373zM171.01103,182.99677l-3.57719,3.57267l-2.2414,-2.24412l3.5772,-3.57267zM161.94042,181.07743l0.32521,-0.32479l2.2414,2.24412l-0.32519,0.32479zM161.94042,186.56944c-1.51824,-1.51631 -1.51824,-3.9757 0,-5.49201l2.24142,2.24413c-0.27778,0.27742 -0.27778,0.72633 0,1.00376zM167.43381,186.56944c-1.51718,1.51547 -3.97622,1.51547 -5.4934,0l2.24142,-2.24412c0.27884,0.27848 0.73173,0.27848 1.01059,0zM182.69892,194.77372l-3.5772,3.57267l-2.24142,-2.24413l3.57724,-3.57267zM180.13236,199.35036l0.32521,-0.32479l2.24138,2.24413l-0.32521,0.32479zM179.12174,199.35036c0.27877,0.27848 0.73171,0.27848 1.01061,0l2.24138,2.24412c-1.51716,1.51547 -3.97622,1.51547 -5.4934,0zM179.12174,198.3464c-0.27778,0.27764 -0.27778,0.72654 0,1.00397l-2.24142,2.24412c-1.51824,-1.51631 -1.51824,-3.9757 0,-5.49222zM180.64171,190.9655l-4.44568,4.44554l-2.24277,-2.24286l4.4456,-4.44554zM174.7724,185.10324l-4.47622,4.4762l-2.24277,-2.24265l4.47622,-4.4762zM173.9337,191.80221l-3.61489,3.53545l-2.21767,-2.26759l3.61489,-3.53546z" fill="#ffffff" stroke="none" stroke-width="1"/><text transform="translate(213.52395,166.92425) scale(0.39312,0.50494)" font-size="40" xml:space="preserve" fill="#ffffff" stroke="none" stroke-width="1" font-family="&quot;Tw Cen MT&quot;, Sans Serif" font-weight="normal" text-anchor="start"><tspan x="0" dy="0">СУПЕР РАКЕТА</tspan></text></g></g></svg>