<svg version="1.1" xmlns="http://www.w3.org/2000/svg" xmlns:xlink="http://www.w3.org/1999/xlink" width="182.33951" height="78.53982" viewBox="0,0,182.33951,78.53982"><g transform="translate(-148.83025,-140.73009)"><g stroke-miterlimit="10"><path d="M154.69619,217.26991c-2.1351,0 -3.86594,-1.56609 -3.86594,-3.49796v-67.5439c0,-1.93187 1.73084,-3.49796 3.86594,-3.49796h170.60763c2.1351,0 3.86594,1.56609 3.86594,3.49796v67.5439c0,1.93187 -1.73084,3.49796 -3.86594,3.49796z" fill="#434343" stroke="#212121" stroke-width="4" stroke-linecap="butt"/><text transform="translate(212.96308,191.59374) scale(0.42307,0.42307)" font-size="40" xml:space="preserve" fill="#ffffff" stroke="none" stroke-width="1" stroke-linecap="butt" font-family="&quot;Tw Cen MT&quot;, Sans Serif" font-weight="normal" text-anchor="start"><tspan x="0" dy="0">600T ⚡️ </tspan></text><text transform="translate(213.95377,207.72239) scale(0.24021,0.24021)" font-size="40" xml:space="preserve" fill="#ffffff" stroke="none" stroke-width="1" stroke-linecap="butt" font-family="&quot;Tw Cen MT&quot;, Sans Serif" font-weight="normal" text-anchor="start"><tspan x="0" dy="0">+1.75T развития</tspan></text><text transform="translate(212.96092,165.03847) scale(0.30537,0.43749)" font-size="40" xml:space="preserve" fill="#ffffff" stroke="none" stroke-width="1" stroke-linecap="butt" font-family="&quot;Tw Cen MT&quot;, Sans Serif" font-weight="normal" text-anchor="start"><tspan x="0" dy="0">ШАХТЫ НА МАРСЕ</tspan></text><g fill="#ffffff" stroke="none" stroke-width="1" stroke-linecap="butt"><path d="M197.8134,164.26264c1.33228,0 2.41648,1.08174 2.41648,2.41142c0,1.32968 -1.0842,2.41142 -2.41648,2.41142c-1.33228,0 -2.41614,-1.08174 -2.41614,-2.41142c0,-1.32968 1.08386,-2.41142 2.41614,-2.41142zM197.8134,165.58133c-0.60386,0 -1.09521,0.49005 -1.09521,1.09273c0,0.60268 0.49135,1.09273 1.09521,1.09273c0.60386,0 1.09487,-0.49005 1.09487,-1.09273c0,-0.60268 -0.491,-1.09273 -1.09487,-1.09273zM198.90828,166.67406"/><path d="M165.07375,174.38153c0.08568,0.35406 -0.13247,0.71017 -0.48722,0.79533l-0.30417,0.07349c-0.05196,0.01236 -0.10391,0.01854 -0.15552,0.01854c-0.29797,0 -0.56842,-0.20295 -0.64137,-0.50515c-0.08568,-0.35371 0.13247,-0.70982 0.48722,-0.79533l0.30382,-0.07349c0.35475,-0.08482 0.71156,0.13256 0.79724,0.48661zM164.2765,173.89492"/><path d="M202.03255,167.61568v-5.52854l-4.21912,-3.11335l-4.21912,3.11335v9.17382l4.21912,3.11335l4.21912,-3.11335v-1.42583c0,-0.36401 0.29556,-0.65935 0.66063,-0.65935c0.36507,0 0.66064,0.29534 0.66064,0.65935v1.75825c0,0.20913 -0.09944,0.40591 -0.26769,0.53022l-4.61206,3.40318v4.60202h1.09487c0.36507,0 0.66064,0.29533 0.66064,0.65934v6.45368c0,0.36401 -0.29557,0.65935 -0.66064,0.65935h-3.511c-0.36507,0 -0.66064,-0.29534 -0.66064,-0.65935v-6.45368c0,-0.36401 0.29557,-0.65934 0.66064,-0.65934h1.09487v-4.60202l-4.61172,-3.40318c-0.1686,-0.12431 -0.26804,-0.32109 -0.26804,-0.53022v-1.88635l-3.01277,0.86677l3.74257,30.61319h3.13458c0.36507,0 0.66064,0.29499 0.66064,0.65935c0,0.36436 -0.29557,0.65934 -0.66064,0.65934h-24.56289c-0.36473,0 -0.66064,-0.29498 -0.66064,-0.65934c0,-0.36436 0.29591,-0.65935 0.66064,-0.65935h3.13458l3.34859,-27.39167l-12.58269,3.61884v24.43217c0,0.36401 -0.29591,0.65934 -0.66064,0.65934c-0.36473,0 -0.66064,-0.29533 -0.66064,-0.65934v-24.17427c-0.00378,0 -0.00791,0.00035 -0.0117,0.00035c-1.34398,0.00034 -2.58405,-0.88153 -2.97424,-2.23285c-0.22881,-0.79259 -0.13488,-1.62673 0.26494,-2.34857c0.39982,-0.72185 1.05702,-1.2452 1.85116,-1.47356l5.04595,-1.45125c0.35028,-0.10062 0.71672,0.10096 0.81753,0.4509c0.10116,0.34993 -0.10116,0.71532 -0.45178,0.81628l-5.04595,1.45125c-0.45488,0.13084 -0.83164,0.43063 -1.06046,0.8441c-0.22916,0.41381 -0.28283,0.89149 -0.15208,1.34582c0.27079,0.93716 1.25521,1.48009 2.1942,1.21017c3.93216,-1.13119 19.55102,-5.62298 27.64173,-7.94991v-3.68238l-21.35365,6.14153c-0.35028,0.10027 -0.71672,-0.10131 -0.81753,-0.45124c-0.10116,-0.34993 0.10116,-0.71532 0.45178,-0.81594l21.71941,-6.24661v-1.52576c0,-0.20913 0.09944,-0.40557 0.26804,-0.53022l4.87976,-3.6003c0.23328,-0.17274 0.5519,-0.17274 0.78554,0l4.87975,3.6003c0.16825,0.12466 0.26769,0.32109 0.26769,0.53022v5.8613c0,0.36436 -0.29557,0.65935 -0.66064,0.65935c-0.36473,0 -0.66063,-0.29499 -0.66063,-0.65935zM188.22419,179.8644l-4.36845,-4.39048l-4.3681,4.39048zM179.76877,181.18309l4.08699,3.29775l4.08734,-3.29775zM177.45072,189.6488l5.35424,-4.32008l-4.39288,-3.54433zM189.24648,190.52553l-5.39071,-4.34927l-5.39037,4.34927zM178.75615,191.84422l5.09962,3.43649l5.09962,-3.43649zM176.12497,200.49057l6.55026,-4.41418l-5.55312,-3.74213zM177.45278,201.187h12.806l-6.403,-4.31493zM191.58656,200.49057l-0.99715,-8.15596l-5.55312,3.74178zM190.26116,189.6488l-0.96136,-7.86441l-4.39322,3.54433zM188.92198,178.6944l-0.90528,-7.40287l-3.22989,3.24659zM182.71514,172.45603l1.14063,1.1463l2.05485,-2.06526zM179.43742,173.39869l-0.64756,5.29571l4.13517,-4.15628l-1.65744,-1.66588zM198.90828,181.44751h-2.18973v5.13499h2.18973zM198.90828,186.58251"/></g><g fill="none" stroke="#ffffff" stroke-width="2" stroke-linecap="round"><path d="M162.47453,162.62073h11.08354"/><path d="M168.0163,168.1625v-11.08354"/></g></g></g></svg>