<svg version="1.1" xmlns="http://www.w3.org/2000/svg" xmlns:xlink="http://www.w3.org/1999/xlink" width="182.33951" height="78.53982" viewBox="0,0,182.33951,78.53982"><g transform="translate(-148.83025,-140.73009)"><g stroke-miterlimit="10"><path d="M154.69619,217.26991c-2.1351,0 -3.86594,-1.56609 -3.86594,-3.49796v-67.5439c0,-1.93187 1.73084,-3.49796 3.86594,-3.49796h170.60763c2.1351,0 3.86594,1.56609 3.86594,3.49796v67.5439c0,1.93187 -1.73084,3.49796 -3.86594,3.49796z" fill="#434343" stroke="#212121" stroke-width="4"/><text transform="translate(213.3336,191.59374) scale(0.42307,0.42307)" font-size="40" xml:space="preserve" fill="#ffffff" stroke="none" stroke-width="1" font-family="&quot;Tw Cen MT&quot;, Sans Serif" font-weight="normal" text-anchor="start"><tspan x="0" dy="0">500qd ⚡️ </tspan></text><text transform="translate(213.95377,207.72239) scale(0.24021,0.24021)" font-size="40" xml:space="preserve" fill="#ffffff" stroke="none" stroke-width="1" font-family="&quot;Tw Cen MT&quot;, Sans Serif" font-weight="normal" text-anchor="start"><tspan x="0" dy="0">+1.25qd развитие</tspan></text><text transform="translate(212.96092,165.85851) scale(0.31119,0.47876)" font-size="40" xml:space="preserve" fill="#ffffff" stroke="none" stroke-width="1" font-family="&quot;Tw Cen MT&quot;, Sans Serif" font-weight="normal" text-anchor="start"><tspan x="0" dy="0">ЖИЗНЬ НА МАРСЕ</tspan></text><path d="M203.86206,174.41805c-0.54034,6.56454 -4.06545,12.89751 -7.07594,17.67377c-4.34205,6.88296 -8.21452,10.99022 -12.18348,12.92967c-0.32807,0.19298 -0.67221,0.29269 -1.02601,0.29269c-0.35058,0 -0.65613,-0.09327 -1.07104,-0.23479c-0.87484,-0.33772 -2.82394,-1.57279 -4.3517,-2.89149c-6.11426,-5.26836 -13.84311,-18.06295 -15.03316,-27.29383c-0.62075,-4.83415 0.42456,-9.04755 3.11341,-12.52442c3.19061,-4.12334 8.52651,-6.8508 15.02351,-7.67418l4.11691,-0.00965c12.29606,1.58244 19.36235,9.14404 18.4875,19.73222zM181.39914,156.91153c-5.80549,0.74297 -10.58175,3.16809 -13.40569,6.81863c-2.31576,2.98798 -3.2099,6.64817 -2.66313,10.88087c1.10964,8.61013 8.5844,20.99303 14.28054,25.89794c1.37981,1.19004 3.17131,2.29646 3.65054,2.4798c0.06111,0.0193 0.18655,0.06754 0.27982,0.08684c0.00965,-0.00322 0.02251,-0.00965 0.0386,-0.01608c3.6216,-1.7722 7.21424,-5.62859 11.32472,-12.1481c2.65669,-4.20375 6.24291,-10.5142 6.74466,-16.66706c0.77192,-9.42065 -5.35842,-15.90157 -16.39367,-17.33927z" fill="#ffffff" stroke="none" stroke-width="1"/><path d="M181.33162,187.33164c-7.15957,1.3187 -11.36653,-3.82101 -12.35717,-10.05427c-0.00965,-0.35701 0.15438,-0.53713 0.42134,-0.62397c7.20781,0.33128 11.25075,3.82422 11.93583,10.67824z" fill="#ffffff" stroke="none" stroke-width="1"/><path d="M198.50363,176.86568c-0.53391,6.23969 -5.08181,10.27298 -12.14489,10.67502c-0.73332,-7.37184 4.96281,-11.21858 12.14489,-10.67502z" fill="#ffffff" stroke="none" stroke-width="1"/></g></g></svg>