<svg version="1.1" xmlns="http://www.w3.org/2000/svg" xmlns:xlink="http://www.w3.org/1999/xlink" width="182.33951" height="78.53982" viewBox="0,0,182.33951,78.53982"><g transform="translate(-148.83024,-140.73009)"><g stroke-miterlimit="10"><path d="M154.69618,217.26991c-2.1351,0 -3.86594,-1.56609 -3.86594,-3.49796v-67.5439c0,-1.93187 1.73084,-3.49796 3.86594,-3.49796h170.60763c2.1351,0 3.86594,1.56609 3.86594,3.49796v67.5439c0,1.93187 -1.73084,3.49796 -3.86594,3.49796z" fill="#434343" stroke="#212121" stroke-width="4"/><text transform="translate(213.39529,166.3674) scale(0.43692,0.54824)" font-size="40" xml:space="preserve" fill="#ffffff" stroke="none" stroke-width="1" font-family="&quot;Tw Cen MT&quot;, Sans Serif" font-weight="normal" text-anchor="start"><tspan x="0" dy="0">ПЛАНТАЦИИ</tspan></text><text transform="translate(213.33359,190.85272) scale(0.42307,0.42307)" font-size="40" xml:space="preserve" fill="#ffffff" stroke="none" stroke-width="1" font-family="&quot;Tw Cen MT&quot;, Sans Serif" font-weight="normal" text-anchor="start"><tspan x="0" dy="0">35T ⚡️ </tspan></text><text transform="translate(213.95376,207.72239) scale(0.24021,0.24021)" font-size="40" xml:space="preserve" fill="#ffffff" stroke="none" stroke-width="1" font-family="&quot;Tw Cen MT&quot;, Sans Serif" font-weight="normal" text-anchor="start"><tspan x="0" dy="0">+100B развития</tspan></text><path d="M175.98107,158.78178c5.56346,0.05062 11.12793,-0.02477 16.69158,0.00583l12.08083,15.10118v27.33117h-42.43235v-27.3583l13.65985,-15.07988zM189.7299,173.35666h5.21453l-10.34411,-12.93003h-6.50754zM197.04329,173.35666h5.18567l-10.34412,-12.93003h-5.18539zM163.96012,174.49059v25.09036h24.58527v-25.09036l-12.29263,-13.6583zM179.55019,172.10727c-0.28738,1.05216 -0.26898,2.23088 -0.17228,3.43311c0.19349,2.40463 0.67564,4.93544 0.11309,6.50599c-0.52803,1.47411 -1.37477,2.34953 -2.31411,2.78004c-0.39688,0.18165 -0.82398,0.2882 -1.25967,0.31423c-1.0284,-3.0157 -0.80904,-6.86439 0.88325,-9.46561c-2.24054,2.23498 -3.2987,5.60981 -2.61514,9.14708c0.00428,0.00583 0.00164,0.00346 -0.00018,0.02185c-1.93604,-0.78172 -3.48828,-3.05986 -2.82913,-6.41466c0.30286,-1.5414 1.34217,-3.71447 3.08135,-5.39811c1.50452,-1.45645 3.51342,-2.55833 6.06555,-2.66877c-0.46766,0.49735 -0.77571,1.09714 -0.95272,1.74482zM190.18442,185.01189h5.6455v-10.01623h-5.6455zM197.46898,185.01189h5.6455v-10.01623h-5.6455zM167.83449,180.43776c0.47969,0.84054 1.22535,1.56399 2.03293,2.25146c1.61507,1.37477 3.47781,2.64838 4.09199,3.94867c0.58176,1.23182 0.59706,2.28215 0.28674,3.11759c-0.13256,0.35756 -0.33096,0.68712 -0.58494,0.97157c-2.48857,-1.2411 -4.71391,-3.74907 -5.27363,-6.39581c-0.00346,2.76375 1.41939,5.49954 4.01395,7.27059c-1.65886,0.67381 -3.99811,0.2331 -5.64013,-2.21267c-0.76078,-1.1332 -1.46219,-3.11841 -1.42759,-5.23029c0.02941,-1.79254 0.56819,-3.67104 2.01126,-5.2922c0.03897,0.56055 0.21508,1.09022 0.48943,1.57109zM186.12847,187.86151c-1.02566,1.84599 -2.62653,3.21466 -3.85179,3.81545c-2.64438,1.29692 -4.8891,0.50837 -5.98888,-0.90483c3.1318,-0.23629 5.73146,-1.89398 7.1097,-4.28913c-1.80802,2.01226 -4.98844,3.07152 -7.76421,2.90179c-0.07804,-0.37321 -0.08538,-0.75774 -0.02167,-1.13365c0.14887,-0.87869 0.68893,-1.78143 1.80847,-2.55723c1.18182,-0.81869 3.43092,-0.98978 5.51702,-1.37277c1.04287,-0.1914 2.05004,-0.44436 2.88558,-0.93242c0.47841,-0.27945 0.89509,-0.65142 1.20923,-1.11781c0.43935,2.12581 -0.03278,4.02333 -0.90347,5.5906zM190.18442,199.58094h5.6455v-12.93003h-5.6455zM197.46898,199.58094h5.6455v-12.93003h-5.6455zM174.06443,191.98883c0.78191,-0.41412 1.22654,-0.33063 1.62245,0.23219c-0.21517,1.50362 0.4836,3.39723 0.48415,5.33728l-1.63902,0.00055c-0.00045,-1.47075 -0.76788,-3.47116 -0.46758,-5.57012z" fill="#ffffff" stroke="none" stroke-width="1"/></g></g></svg>