<svg version="1.1" xmlns="http://www.w3.org/2000/svg" xmlns:xlink="http://www.w3.org/1999/xlink" width="199.42387" height="48.63616" viewBox="0,0,199.42387,48.63616"><g transform="translate(-140.28806,-155.68192)"><g stroke-miterlimit="10"><path d="M146.78806,202.31808c-2.48528,0 -4.5,-2.01472 -4.5,-4.5v-35.63616c0,-2.48528 2.01472,-4.5 4.5,-4.5h186.42387c2.48528,0 4.5,2.01472 4.5,4.5v35.63616c0,2.48528 -2.01472,4.5 -4.5,4.5z" fill="#434343" stroke="#212121" stroke-width="4"/><text transform="translate(192.17537,187.21208) scale(0.6251,0.6251)" font-size="40" xml:space="preserve" fill="#ffffff" stroke="none" stroke-width="1" font-family="&quot;Tw Cen MT&quot;, Sans Serif" font-weight="normal" text-anchor="start"><tspan x="0" dy="0">MUSIC</tspan></text><path d="M161.43167,191.4465c-2.0169,0 -3.65192,-1.63502 -3.65192,-3.65192v-15.58915c0,-2.0169 1.63502,-3.65192 3.65192,-3.65192h15.58915c2.0169,0 3.65192,1.63502 3.65192,3.65192v15.58915c0,2.0169 -1.63502,3.65192 -3.65192,3.65192z" fill="none" stroke="#ffffff" stroke-width="3.5"/></g></g></svg>