<svg version="1.1" xmlns="http://www.w3.org/2000/svg" xmlns:xlink="http://www.w3.org/1999/xlink" width="182.33951" height="78.53982" viewBox="0,0,182.33951,78.53982"><g transform="translate(-148.83025,-140.73009)"><g stroke-miterlimit="10"><path d="M154.69619,217.26991c-2.1351,0 -3.86594,-1.56609 -3.86594,-3.49796v-67.5439c0,-1.93187 1.73084,-3.49796 3.86594,-3.49796h170.60763c2.1351,0 3.86594,1.56609 3.86594,3.49796v67.5439c0,1.93187 -1.73084,3.49796 -3.86594,3.49796z" fill="#434343" stroke="#212121" stroke-width="4"/><text transform="translate(213.22471,164.82792) scale(0.3334,0.406)" font-size="40" xml:space="preserve" fill="#ffffff" stroke="none" stroke-width="1" font-family="&quot;Tw Cen MT&quot;, Sans Serif" font-weight="normal" text-anchor="start"><tspan x="0" dy="0">РАКЕТА НА МАРС</tspan></text><text transform="translate(212.96308,191.59374) scale(0.42307,0.42307)" font-size="40" xml:space="preserve" fill="#ffffff" stroke="none" stroke-width="1" font-family="&quot;Tw Cen MT&quot;, Sans Serif" font-weight="normal" text-anchor="start"><tspan x="0" dy="0">50B ⚡️ </tspan></text><text transform="translate(213.95376,207.72239) scale(0.24021,0.24021)" font-size="40" xml:space="preserve" fill="#ffffff" stroke="none" stroke-width="1" font-family="&quot;Tw Cen MT&quot;, Sans Serif" font-weight="normal" text-anchor="start"><tspan x="0" dy="0">+175M развития</tspan></text><g fill="#ffffff" stroke="#000000" stroke-width="0"><path d="M195.82033,182.76103c-0.30215,0.5356 -0.6443,1.04169 -1.00283,1.53486c0.09861,0.11409 0.19714,0.24633 0.29349,0.42234c1.57713,2.88494 2.64365,13.25384 -8.10412,19.36704c-0.05408,0.03041 -0.1108,0.05398 -0.16886,0.07027c-0.2378,0.06669 -0.49779,0.01358 -0.69157,-0.15191c-0.2407,-0.20511 -0.3276,-0.5395 -0.21694,-0.83627c1.78014,-4.76911 2.035,-8.25563 0.78921,-10.88325c-0.27041,0.26628 -0.53101,0.53294 -0.77875,0.8017c-0.09724,0.10514 -0.219,0.17751 -0.34989,0.21422c-0.18684,0.0524 -0.39186,0.03196 -0.57113,-0.06811l-1.45926,-0.81692l-1.53578,2.72263c-0.10204,0.1806 -0.26695,0.30315 -0.45241,0.35516c-0.18548,0.05202 -0.39,0.03307 -0.57106,-0.06813l-9.11542,-5.10267c-0.17474,-0.09758 -0.30301,-0.26089 -0.357,-0.45339c-0.05401,-0.19258 -0.02934,-0.3987 0.06917,-0.57291l1.53403,-2.71799l-1.45517,-0.81462c-0.30523,-0.17091 -0.45244,-0.52967 -0.35511,-0.86616c0.10884,-0.376 0.20722,-0.76509 0.30037,-1.16187c-2.86442,0.34903 -5.68956,2.37549 -8.81332,6.31995c-0.10088,0.12758 -0.23737,0.21542 -0.38668,0.2573c-0.14154,0.0397 -0.29461,0.03837 -0.44051,-0.01077c-0.30051,-0.09976 -0.50638,-0.3764 -0.515,-0.69311c-0.34798,-12.35315 9.10401,-16.82259 12.39908,-16.96717c0.15866,-0.00713 0.29985,-0.00185 0.42546,0.01312c0.22374,-0.52104 0.46407,-1.03563 0.74515,-1.53397c7.73622,-13.71255 18.35827,-21.89618 24.18562,-18.63579c1.45179,0.81284 2.47529,2.24895 3.04144,4.26764c1.66009,5.91936 -0.86824,16.12906 -6.44218,26.0088zM173.65511,174.16671c-0.21052,0.03074 -0.47214,0.08582 -0.77583,0.17099c-1.13248,0.31761 -2.83609,1.04884 -4.54498,2.43358c-2.27914,1.84777 -4.91743,5.15377 -5.31988,10.69872c3.03093,-3.38399 5.90572,-5.08429 8.90056,-5.28133zM182.24582,191.67949l-1.06142,-0.59396l-6.73954,-3.77189l-1.16504,2.06366l7.80136,4.36723zM193.91103,185.68004l-5.97685,5.65549c1.38748,2.65254 1.42371,5.98026 0.10142,10.31434c4.5612,-3.23603 6.02131,-7.21474 6.41417,-10.1261c0.36909,-2.73746 -0.14557,-4.92632 -0.53874,-5.84373zM194.509,182.02177c5.30395,-9.40241 7.83756,-19.39454 6.30392,-24.86301c-0.45418,-1.61947 -1.23709,-2.75046 -2.3275,-3.36084c-4.92483,-2.75383 -15.06144,5.51655 -22.13867,18.06172c-0.56957,1.00986 -1.00097,2.09645 -1.34955,3.22274l-1.38475,6.38247c-0.20671,1.13513 -0.41618,2.23671 -0.68641,3.27271l12.31754,6.8944c0.93265,-0.95932 1.98304,-1.88301 3.08561,-2.85418c2.31172,-2.03406 4.70239,-4.13756 6.17982,-6.75603z"/><path d="M193.82159,162.21079c1.05651,0.5901 1.81758,1.55623 2.14391,2.71981c0.32655,1.16437 0.17886,2.38537 -0.41672,3.4388c-0.61316,1.0858 -1.6126,1.82345 -2.73095,2.13709c-1.11828,0.31362 -2.35554,0.20326 -3.44463,-0.40514c-1.05644,-0.59012 -1.8183,-1.55603 -2.14485,-2.72041c-0.32633,-1.16358 -0.17785,-2.38479 0.41765,-3.4382c1.22774,-2.17209 3.99883,-2.94924 6.17557,-1.73195zM194.51596,165.33714c-0.21735,-0.77502 -0.72458,-1.41839 -1.42814,-1.81204c-0.72882,-0.40712 -1.55562,-0.48061 -2.30382,-0.27078c-0.74813,0.20981 -1.41686,0.70273 -1.82762,1.42945c-0.39632,0.70211 -0.49574,1.51562 -0.27839,2.29064c0.21756,0.77574 0.72551,1.41891 1.42913,1.81254c1.45751,0.81428 3.30986,0.29479 4.13145,-1.15867c0.39626,-0.70209 0.49496,-1.5154 0.2774,-2.29114z"/><path d="M175.87012,195.16171l-5.21941,9.25197c-0.10206,0.18053 -0.26767,0.30336 -0.45241,0.35517c-0.18613,0.0522 -0.39147,0.0334 -0.57291,-0.06918c-0.36271,-0.20443 -0.48996,-0.66346 -0.28597,-1.02526l5.2194,-9.25197c0.20461,-0.36205 0.66326,-0.49068 1.02524,-0.28604c0.36278,0.20441 0.48996,0.66347 0.28607,1.02531z"/><path d="M168.20779,199.74842c-0.36205,-0.20462 -0.48997,-0.66354 -0.28607,-1.02531l3.43708,-6.09299c0.20443,-0.3627 0.66328,-0.49061 1.02526,-0.28597c0.36205,0.20462 0.48995,0.66346 0.28607,1.02531l-3.43702,6.0929c-0.10214,0.18055 -0.26768,0.30336 -0.45243,0.35517c-0.18613,0.0522 -0.39146,0.0334 -0.57289,-0.0691z"/><path d="M178.78443,195.92707c0.36206,0.20461 0.48996,0.66346 0.28606,1.02531l-3.4371,6.09292c-0.10205,0.18052 -0.26767,0.30335 -0.45235,0.35515c-0.1862,0.05222 -0.39146,0.03341 -0.57289,-0.0691c-0.36205,-0.20462 -0.48997,-0.66354 -0.28607,-1.02531l3.437,-6.09297c0.20443,-0.3627 0.66335,-0.49063 1.02533,-0.28599z"/></g></g></g></svg>