<svg version="1.1" xmlns="http://www.w3.org/2000/svg" xmlns:xlink="http://www.w3.org/1999/xlink" width="182.33951" height="78.53982" viewBox="0,0,182.33951,78.53982"><g transform="translate(-148.83024,-140.73009)"><g stroke-miterlimit="10"><path d="M154.69618,217.26991c-2.1351,0 -3.86594,-1.56609 -3.86594,-3.49796v-67.5439c0,-1.93187 1.73084,-3.49796 3.86594,-3.49796h170.60763c2.1351,0 3.86594,1.56609 3.86594,3.49796v67.5439c0,1.93187 -1.73084,3.49796 -3.86594,3.49796z" fill="#434343" stroke="#212121" stroke-width="4"/><text transform="translate(212.96307,191.59374) scale(0.42307,0.42307)" font-size="40" xml:space="preserve" fill="#ffffff" stroke="none" stroke-width="1" font-family="&quot;Tw Cen MT&quot;, Sans Serif" font-weight="normal" text-anchor="start"><tspan x="0" dy="0">900B ⚡️ </tspan></text><text transform="translate(213.95376,207.72239) scale(0.24021,0.24021)" font-size="40" xml:space="preserve" fill="#ffffff" stroke="none" stroke-width="1" font-family="&quot;Tw Cen MT&quot;, Sans Serif" font-weight="normal" text-anchor="start"><tspan x="0" dy="0">+2.8B развитие</tspan></text><text transform="translate(213.39529,166.53937) scale(0.49092,0.58799)" font-size="40" xml:space="preserve" fill="#ffffff" stroke="none" stroke-width="1" font-family="&quot;Tw Cen MT&quot;, Sans Serif" font-weight="normal" text-anchor="start"><tspan x="0" dy="0">МАРСОХОД</tspan></text><path d="M207.05799,172.19561c0,0.93653 -0.62435,1.56088 -1.56088,1.56088h-4.68264c-0.46826,0 -0.78044,-0.15609 -1.09262,-0.46826l-2.6535,-2.6535h-4.05829v9.36528h1.56088c0.78044,0 1.40479,0.46826 1.56088,1.09262l2.18523,9.83355c2.96567,0.15609 5.30699,2.49741 5.30699,5.46308c0,2.96567 -2.49741,5.46308 -5.46308,5.46308c-2.6535,0 -4.99482,-2.02914 -5.30699,-4.68264h-4.83873c-0.31218,2.6535 -2.49741,4.68264 -5.30699,4.68264c-2.6535,0 -4.99482,-2.02914 -5.30699,-4.68264h-4.83873c-0.31218,2.6535 -2.49741,4.68264 -5.30699,4.68264c-2.96567,0 -5.46308,-2.49741 -5.46308,-5.46308c0,-2.96567 2.34132,-5.46308 5.30699,-5.46308l2.49741,-9.83355c0.15609,-0.62435 0.78044,-1.09262 1.56088,-1.09262h4.68264v-9.36528h-3.12176c-3.43394,0 -6.24352,-2.80959 -6.24352,-6.24352c0,-3.43394 2.80958,-6.24352 6.24352,-6.24352h9.36528c3.43394,0 6.24352,2.80958 6.24352,6.24352c0,3.43394 -2.80959,6.24352 -6.24352,6.24352h-3.12176v9.36528h10.92617v-10.92617c0,-0.93653 0.62435,-1.56088 1.56088,-1.56088h5.61917l2.6535,-2.6535c0.31218,-0.31218 0.62435,-0.46827 1.09262,-0.46827h4.68264c0.93653,0 1.56088,0.62435 1.56088,1.56088c0,0.93653 -0.62435,1.56088 -1.56088,1.56088h-4.05829l-1.56088,1.56088l1.56088,1.56088h4.05829c0.93653,0 1.56088,0.62435 1.56088,1.56088zM178.96213,164.3912c0,0.93653 0.62435,1.56088 1.56088,1.56088h1.56088c0.93653,0 1.56088,-0.62435 1.56088,-1.56088c0,-0.93653 -0.62435,-1.56088 -1.56088,-1.56088h-1.56088c-0.93653,0 -1.56088,0.62435 -1.56088,1.56088zM175.8404,164.3912c0,-0.93653 -0.62435,-1.56088 -1.56088,-1.56088h-1.56088c-0.93653,0 -1.56088,0.62435 -1.56088,1.56088c0,0.93653 0.62435,1.56088 1.56088,1.56088h1.56088c0.93653,0 1.56088,-0.62435 1.56088,-1.56088zM169.59685,196.38926c0,-1.24871 -1.09262,-2.34132 -2.34132,-2.34132c-1.24871,0 -2.34132,1.09262 -2.34132,2.34132c0,1.24871 1.09262,2.34132 2.34132,2.34132c1.24871,0 2.34132,-1.09262 2.34132,-2.34132zM196.13185,196.38926c0,1.24871 1.09262,2.34132 2.34132,2.34132c1.24871,0 2.34132,-1.09262 2.34132,-2.34132c0,-1.24871 -1.09262,-2.34132 -2.34132,-2.34132c-1.24871,0 -2.34132,1.09262 -2.34132,2.34132zM185.20565,196.38926c0,-1.24871 -1.09262,-2.34132 -2.34132,-2.34132c-1.24871,0 -2.34132,1.09262 -2.34132,2.34132c0,1.24871 1.09262,2.34132 2.34132,2.34132c1.24871,0 2.34132,-1.09262 2.34132,-2.34132zM188.32742,186.24353c0,-0.93653 -0.62435,-1.56088 -1.56088,-1.56088h-7.8044c-0.93653,0 -1.56088,0.62435 -1.56088,1.56088c0,0.93653 0.62435,1.56088 1.56088,1.56088h7.8044c0.93653,0 1.56088,-0.62435 1.56088,-1.56088z" fill="#ffffff" stroke="none" stroke-width="1"/></g></g></svg>