<svg version="1.1" xmlns="http://www.w3.org/2000/svg" xmlns:xlink="http://www.w3.org/1999/xlink" width="182.33951" height="78.53982" viewBox="0,0,182.33951,78.53982"><defs><linearGradient x1="193.6833" y1="163.68384" x2="176.58637" y2="207.1216" gradientUnits="userSpaceOnUse" id="color-1"><stop offset="0" stop-color="#ffffff"/><stop offset="0.46" stop-color="#a3a3a3"/><stop offset="1" stop-color="#ffffff"/></linearGradient><linearGradient x1="164.45474" y1="200.46105" x2="178.67322" y2="184.65083" gradientUnits="userSpaceOnUse" id="color-2"><stop offset="0" stop-color="#a3a3a3"/><stop offset="0.612" stop-color="#8f8f8f" stop-opacity="0.192"/><stop offset="0.757" stop-color="#a3a3a3" stop-opacity="0"/></linearGradient><linearGradient x1="198.1134" y1="180.63008" x2="188.91882" y2="160.23425" gradientUnits="userSpaceOnUse" id="color-3"><stop offset="0" stop-color="#ffffff"/><stop offset="0.442" stop-color="#a3a3a3"/><stop offset="1" stop-color="#a3a3a3"/></linearGradient><linearGradient x1="175.08482" y1="194.6745" x2="178.79606" y2="174.54106" gradientUnits="userSpaceOnUse" id="color-4"><stop offset="0" stop-color="#a3a3a3"/><stop offset="1" stop-color="#a3a3a3" stop-opacity="0"/></linearGradient><linearGradient x1="176.65468" y1="163.45226" x2="187.43581" y2="163.45226" gradientUnits="userSpaceOnUse" id="color-5"><stop offset="0" stop-color="#a3a3a3"/><stop offset="1" stop-color="#a3a3a3" stop-opacity="0"/></linearGradient><linearGradient x1="193.55154" y1="184.30605" x2="206.30149" y2="189.56116" gradientUnits="userSpaceOnUse" id="color-6"><stop offset="0" stop-color="#ffffff"/><stop offset="0.25" stop-color="#a3a3a3"/><stop offset="0.566" stop-color="#a3a3a3"/></linearGradient><linearGradient x1="200.00353" y1="201.65607" x2="197.39081" y2="191.34998" gradientUnits="userSpaceOnUse" id="color-7"><stop offset="0" stop-color="#a3a3a3"/><stop offset="0.808" stop-color="#8f8f8f" stop-opacity="0.192"/><stop offset="1" stop-color="#a3a3a3" stop-opacity="0"/></linearGradient></defs><g transform="translate(-148.83025,-140.73009)"><g stroke-miterlimit="10"><path d="M154.69619,217.26991c-2.1351,0 -3.86594,-1.56609 -3.86594,-3.49796v-67.5439c0,-1.93187 1.73084,-3.49796 3.86594,-3.49796h170.60763c2.1351,0 3.86594,1.56609 3.86594,3.49796v67.5439c0,1.93187 -1.73084,3.49796 -3.86594,3.49796z" fill="#434343" stroke="#212121" stroke-width="4"/><text transform="translate(213.52393,166.92425) scale(0.50494,0.50494)" font-size="40" xml:space="preserve" fill="#ffffff" stroke="none" stroke-width="1" font-family="&quot;Tw Cen MT&quot;, Sans Serif" font-weight="normal" text-anchor="start"><tspan x="0" dy="0">ВЕНРИАТ</tspan></text><text transform="translate(212.96313,190.86881) scale(0.40293,0.40293)" font-size="40" xml:space="preserve" fill="#ffffff" stroke="none" stroke-width="1" font-family="&quot;Tw Cen MT&quot;, Sans Serif" font-weight="normal" text-anchor="start"><tspan x="0" dy="0">767.6Qn ⚡️ </tspan></text><text transform="translate(213.95382,207.72239) scale(0.24021,0.24021)" font-size="40" xml:space="preserve" fill="#ffffff" stroke="none" stroke-width="1" font-family="&quot;Tw Cen MT&quot;, Sans Serif" font-weight="normal" text-anchor="start"><tspan x="0" dy="0">+2Qn развитие</tspan></text><g stroke="#000000" stroke-width="0.005"><path d="M164.48107,189.55114c-0.1967,-0.46391 -0.38597,-0.92781 -0.57153,-1.39172c-1.39914,-3.52938 0.35628,-6.71362 1.92242,-9.83105l2.27128,-4.51286c0.45648,-0.90925 1.1579,-1.67376 2.01891,-2.20818l6.53177,-4.05266l6.45383,-6.6728c0.40061,-0.41573 0.91188,-0.70806 1.47336,-0.84245l4.3941,-1.06141c2.12653,-0.50844 3.0395,-0.42679 3.72608,0.54926c2.3789,3.37722 3.97102,6.15693 6.09013,9.52302c1.15419,1.83335 3.81886,6.04559 3.98586,6.32394c0.51215,0.86101 0.30432,1.58098 0.28576,2.56817c-0.04453,2.27498 0.35628,4.56111 1.1876,6.68022c0.24866,0.63091 0.53442,1.2544 0.66431,1.91871c0.11876,0.59751 -0.04083,4.3941 -0.1633,5.67819c-0.1002,1.04286 -2.56446,4.93594 -3.44773,5.40726c-0.97234,0.51958 -8.17956,3.1694 -9.77168,3.62216c-1.59212,0.45277 -8.49501,-1.1245 -12.08006,-1.67377c-2.21561,-0.33772 -4.43492,-0.67916 -6.65053,-1.01688c-1.92242,-0.29318 -3.8337,-0.07051 -4.90996,-2.01148c-1.26553,-2.27128 -2.40117,-4.60564 -3.41063,-6.99568z" fill="url(#color-1)"/><path d="M167.888,196.53939c-1.26039,-2.26593 -2.39647,-4.59879 -3.4032,-6.98825c-0.1967,-0.46019 -0.38597,-0.9241 -0.57153,-1.39172c-1.40285,-3.52938 0.35257,-6.71362 1.915,-9.83105l0.69771,-1.38429c-0.23752,2.10427 -0.53442,4.49059 -0.66802,5.35159c-0.05567,0.34515 -0.11134,0.70143 -0.03712,1.04657c0.07793,0.36741 0.29319,0.68658 0.50473,0.99461c1.79623,2.61642 3.6333,4.78006 5.98251,6.92516c0.32288,0.29318 0.6606,0.5938 1.07626,0.71256c0.37483,0.10763 4.93223,-0.76823 6.91032,-1.22842c-0.31916,1.18017 -0.40082,2.46055 -0.71998,3.64072c-0.1002,0.35999 -0.1967,0.73483 -0.11133,1.09852c0.08165,0.34143 0.31175,0.61978 0.53813,0.88699c1.04657,1.23955 2.609,2.7092 3.65557,3.94875c-1.555,-0.28948 -3.05435,-0.57152 -4.20854,-0.74966c-2.21561,-0.33772 -4.43492,-0.67916 -6.65053,-1.01688c-1.92242,-0.29318 -3.83742,-0.07052 -4.90996,-2.0152z" fill="url(#color-2)"/><path d="M198.79142,169.05029c0.69029,1.09852 1.9187,3.0395 2.83167,4.48688c0.18185,0.86101 -0.1633,2.07458 -1.04657,1.80737c-0.94636,-0.28948 -1.91499,-0.34885 -2.10055,-0.35256c-1.08739,-0.02598 -3.22136,4.73182 -4.44235,4.73182c-1.22471,0 -5.44809,-6.7062 -6.6431,-8.10162c-0.14845,-0.17443 -0.23381,-0.38968 -0.24495,-0.61978l-0.35998,-6.86579c-0.01855,-0.29318 0.09278,-0.57895 0.30061,-0.78678l3.36238,-3.36237c0.93523,-0.85359 1.82593,-0.9575 2.28241,-0.41937c2.36034,3.35867 3.94875,6.13096 6.06044,9.4822z" fill="url(#color-3)"/><path d="M177.08444,173.0844c1.23584,-0.18556 5.35901,-0.88699 6.13466,-1.1913c1.51418,-0.59751 2.85023,-3.14341 3.73351,-4.51286c0,0 0.30432,4.46461 0,6.20889c-0.21154,1.21357 -1.00946,7.55978 -1.81108,9.08139l-4.84687,8.07564l-7.12186,-7.12185c-0.60493,-0.60493 -0.9909,-0.9241 -1.20987,-1.7814c-0.50101,-1.95953 -1.41027,-4.85058 -1.41398,-6.55403c-0.00371,-1.70345 4.58709,-1.915 6.53548,-2.20448z" fill="url(#color-4)"/><path d="M176.65393,167.55466l6.45383,-6.6728c0.40162,-0.41443 0.91249,-0.70654 1.47336,-0.84245l2.85394,-0.69029c-0.40453,0.36741 -1.6515,1.52903 -1.78881,2.13025c-0.1633,0.71998 -0.0297,1.52532 0.44535,2.09314c-3.18795,1.37687 -9.43767,3.98216 -9.43767,3.98216z" fill="url(#color-5)"/><path d="M204.6589,185.66548c-0.00371,0.21154 -0.0334,0.40823 -0.10392,0.55298c-0.1633,0.32659 -0.51958,0.49731 -0.84987,0.64947c-3.09793,1.43292 -5.96984,3.31085 -8.5247,5.57428c-0.2635,0.23381 -0.53442,0.47875 -0.87214,0.57895c-0.19298,0.05938 -0.38597,0.03711 -0.56782,-0.04453c-0.71256,-0.31545 -1.32491,-1.47707 -1.73315,-1.95582c-0.78307,-0.91297 -1.59955,-1.79995 -2.53849,-2.55333c-0.6606,-0.53813 -3.31413,-1.87046 -3.75948,-2.53106c-0.44535,-0.6606 2.51251,-0.57524 3.68526,-0.68658c1.64779,-0.15216 2.66467,-0.96492 3.76319,-1.2544c0.88699,-0.23381 2.29354,-0.40453 3.20279,-0.52699c3.42918,-0.46391 4.62049,-2.35663 6.75074,-3.81515c0.12982,1.70363 0.51255,3.37844 1.13563,4.96934c0.13732,0.34885 0.28206,0.694 0.41195,1.04285z" fill="url(#color-6)"/><path d="M204.74424,192.2121c-0.1002,1.04286 -2.56446,4.93594 -3.44773,5.40726c-0.97234,0.51958 -8.17585,3.1731 -9.77168,3.62216c-0.1002,0.02969 -0.22267,0.04825 -0.35999,0.06309c0.25236,-0.2301 1.57356,-1.58841 2.40487,-5.32562c0.50844,-2.28241 0.51216,-2.56075 2.87621,-4.63162c3.62216,-3.1731 6.91402,-4.17885 7.76761,-4.83202c0.2969,-0.22638 0.43422,-0.46762 0.49731,-0.68658c0.08165,0.23381 0.15216,0.47133 0.2004,0.71256c0.11876,0.59751 -0.04082,4.3941 -0.167,5.67077z" fill="url(#color-7)"/></g></g></g></svg>