<svg version="1.1" xmlns="http://www.w3.org/2000/svg" xmlns:xlink="http://www.w3.org/1999/xlink" width="182.33951" height="78.53982" viewBox="0,0,182.33951,78.53982"><g transform="translate(-148.83025,-140.73009)"><g stroke-miterlimit="10"><path d="M154.69619,217.26991c-2.1351,0 -3.86594,-1.56609 -3.86594,-3.49796v-67.5439c0,-1.93187 1.73084,-3.49796 3.86594,-3.49796h170.60763c2.1351,0 3.86594,1.56609 3.86594,3.49796v67.5439c0,1.93187 -1.73084,3.49796 -3.86594,3.49796z" fill="#434343" stroke="#212121" stroke-width="4"/><text transform="translate(213.52388,166.53937) scale(0.48894,0.58799)" font-size="40" xml:space="preserve" fill="#ffffff" stroke="none" stroke-width="1" font-family="&quot;Tw Cen MT&quot;, Sans Serif" font-weight="normal" text-anchor="start"><tspan x="0" dy="0">КОЛОНИСТ</tspan></text><text transform="translate(212.96308,191.59374) scale(0.42307,0.42307)" font-size="40" xml:space="preserve" fill="#ffffff" stroke="none" stroke-width="1" font-family="&quot;Tw Cen MT&quot;, Sans Serif" font-weight="normal" text-anchor="start"><tspan x="0" dy="0">1M ⚡️ </tspan></text><text transform="translate(213.95377,207.72239) scale(0.24021,0.24021)" font-size="40" xml:space="preserve" fill="#ffffff" stroke="none" stroke-width="1" font-family="&quot;Tw Cen MT&quot;, Sans Serif" font-weight="normal" text-anchor="start"><tspan x="0" dy="0">+5,000 развитие</tspan></text><g fill="#ffffff" stroke="none" stroke-width="1"><path d="M182.20011,175.03835h-12.03236c-1.36053,0 -2.46741,-1.10678 -2.46741,-2.46731v-4.45294c0,-1.36053 1.10678,-2.46731 2.46741,-2.46731h12.03245c1.36053,0 2.46741,1.10678 2.46741,2.46731v4.45294c0,1.36053 -1.10697,2.46731 -2.4675,2.46731zM170.16777,173.51437h12.03236c0.5202,0 0.94343,-0.42313 0.94343,-0.94333v-4.45294c0,-0.52011 -0.42323,-0.94333 -0.94343,-0.94333h-12.03245c-0.5202,0 -0.94343,0.42313 -0.94343,0.94333v4.45294c0,0.52011 0.42332,0.94333 0.94352,0.94333z"/><path d="M178.8388,187.15234c0,0.42087 -0.34102,0.76199 -0.76199,0.76199h-4.2635c-0.42096,0 -0.76199,-0.34121 -0.76199,-0.76199c0,-0.42087 0.34103,-0.76199 0.76199,-0.76199h4.2635c0.42077,0 0.76199,0.34122 0.76199,0.76199z"/><path d="M178.8388,190.42109c0,0.42087 -0.34102,0.76199 -0.76199,0.76199h-4.2635c-0.42096,0 -0.76199,-0.34121 -0.76199,-0.76199c0,-0.42087 0.34103,-0.76199 0.76199,-0.76199h4.2635c0.42077,0 0.76199,0.34112 0.76199,0.76199z"/><path d="M208.33727,169.46799v6.46623c0,1.36053 -1.10678,2.46741 -2.46741,2.46741h-7.67301c-0.42096,0 -0.76199,-0.34121 -0.76199,-0.76199c0,-0.42087 0.34102,-0.76199 0.76199,-0.76199h7.67301c0.5202,0 0.94343,-0.42313 0.94343,-0.94343v-6.46623c0,-0.5202 -0.42323,-0.94343 -0.94343,-0.94343h-12.71911c-0.5202,0 -0.94343,0.42313 -0.94343,0.94343v6.46623c0,0.5202 0.42323,0.94343 0.94343,0.94343h2.55723c0.42096,0 0.76199,0.34122 0.76199,0.76199c0,0.42087 -0.34102,0.76199 -0.76199,0.76199h-2.55723c-0.33406,0 -0.65258,-0.06703 -0.94343,-0.18783v6.2348c0.63469,0.16166 1.18493,0.56351 1.53603,1.14209c0.72603,1.19679 0.34319,2.76098 -0.85323,3.4871c-0.22088,0.13408 -0.44873,0.25177 -0.6828,0.35431v11.46724c0,0.42087 -0.34103,0.76199 -0.76199,0.76199c-0.42096,0 -0.76199,-0.34122 -0.76199,-0.76199v-11.03554c-0.30054,0.04322 -0.60833,0.06562 -0.92346,0.06562c-1.62614,0 -3.38956,-0.58131 -5.18282,-1.696v7.26551v3.69499c0,1.36053 -1.10678,2.46741 -2.46741,2.46741h-1.23191c-1.36044,0 -2.46731,-1.10679 -2.46731,-2.46741v-2.933h-4.45322v2.933c0,1.36053 -1.10669,2.46741 -2.46722,2.46741h-1.23201c-1.36053,0 -2.46741,-1.10679 -2.46741,-2.46741v-3.69499v-7.85407c-1.64365,0.7716 -2.5834,1.68733 -2.5834,2.29557c0,1.3997 -1.1387,2.5384 -2.5384,2.5384c-1.3997,0 -2.5384,-1.1387 -2.5384,-2.5384c0,-3.35547 2.94308,-6.27303 7.87281,-7.80492c0.24489,-0.07617 0.49855,-0.11477 0.75352,-0.11477c0.2883,0 0.56672,0.04858 0.82734,0.13775c0.34263,-0.2513 0.71717,-0.44996 1.113,-0.59129c-4.15531,-2.03656 -7.02335,-6.30975 -7.02335,-11.2408c0,-6.89812 5.61197,-12.51028 12.51019,-12.51028c6.89822,0 12.51019,5.61216 12.51019,12.51038c0,4.93001 -2.86681,9.20245 -7.02062,11.23948c0.59383,0.21166 1.13758,0.55306 1.5995,1.0098c0.31702,-0.13869 0.66265,-0.21326 1.01893,-0.21326c0.58724,0 1.16027,0.20592 1.61381,0.57999c1.4496,1.19548 2.88451,1.90907 3.83829,1.90907c0.21561,0 0.38792,-0.03832 0.51248,-0.11383c0.13615,-0.08267 0.27935,-0.15084 0.42699,-0.2062v-8.59704v-6.46624v-3.0555c0,-0.42077 0.34103,-0.76199 0.76199,-0.76199c0.42096,0 0.76199,0.34121 0.76199,0.76199v0.77593c0.29075,-0.1208 0.60936,-0.18784 0.94342,-0.18784h12.71912c1.36062,0 2.46741,1.10678 2.46731,2.46713zM176.18398,181.3126c6.05779,0 10.9862,-4.92841 10.9862,-10.98621c0,-6.05798 -4.92841,-10.98639 -10.9862,-10.98639c-6.05789,0 -10.9863,4.9285 -10.9863,10.98639c0,6.05779 4.92841,10.98621 10.9863,10.98621zM169.24612,185.44824c0.29113,-0.16053 0.48141,-0.45373 0.51775,-0.77649c0.00414,-0.037 0.00688,-0.07419 0.00688,-0.11176c0.0001,-0.0998 -0.01478,-0.20121 -0.04586,-0.30139c-0.01017,-0.03295 -0.02203,-0.06374 -0.03465,-0.09359c-0.00442,-0.01026 -0.00904,-0.02024 -0.01365,-0.03032c-0.00913,-0.01996 -0.01874,-0.03936 -0.02881,-0.0581c-0.00499,-0.00932 -0.00989,-0.01864 -0.01516,-0.02768c-0.01441,-0.02476 -0.02947,-0.04877 -0.0451,-0.07109c-0.00047,-0.00075 -0.00104,-0.00151 -0.00151,-0.00236c-0.09199,-0.13012 -0.20196,-0.21815 -0.29329,-0.27502c-0.00876,-0.00536 -0.01666,-0.01196 -0.02514,-0.01771c-0.15121,-0.08804 -0.32597,-0.13794 -0.51098,-0.13794c-0.1014,0 -0.20271,0.01554 -0.3012,0.04614c-4.25869,1.32324 -6.80105,3.69697 -6.80105,6.34957c0,0.55937 0.45523,1.01442 1.0146,1.01442c0.55937,0 1.01442,-0.45505 1.01442,-1.01442c0,-1.62162 1.89316,-3.24192 4.96994,-4.28054c0.01073,-0.00367 0.02137,-0.00734 0.03211,-0.01101c0.12014,-0.04021 0.2415,-0.07994 0.36522,-0.11845c0.00226,-0.00075 0.00433,-0.00141 0.00659,-0.00216c0.06675,-0.02071 0.12984,-0.04774 0.18888,-0.08013zM172.43344,196.26082h-3.11867v2.933c0,0.5202 0.42323,0.94342 0.94343,0.94342h1.23201c0.52011,0 0.94324,-0.42313 0.94324,-0.94342zM183.05316,196.26082h-3.11867v2.933c0,0.5202 0.42313,0.94342 0.94333,0.94342h1.23191c0.5202,0 0.94343,-0.42313 0.94343,-0.94342zM183.05316,187.16269c-0.01252,-0.00998 -0.02505,-0.02043 -0.03785,-0.0306c-0.11317,-0.08926 -0.22634,-0.17984 -0.33952,-0.27314c-0.5234,-0.43141 -0.84711,-1.04069 -0.91207,-1.71558c-0.00593,-0.06195 -0.00885,-0.12372 -0.01035,-0.18539c-0.00038,-0.01205 -0.00076,-0.0242 -0.00085,-0.03644c-0.00066,-0.05951 0.00066,-0.11873 0.00424,-0.17777c0.00066,-0.01101 0.0016,-0.02193 0.00245,-0.03295c0.00414,-0.05687 0.00998,-0.11355 0.01789,-0.16986c0.00075,-0.00518 0.00123,-0.01035 0.00198,-0.01553c0.00866,-0.05904 0.02006,-0.11759 0.03295,-0.17569c0.00273,-0.01215 0.00546,-0.02429 0.00829,-0.03653c0.01365,-0.05715 0.02881,-0.11383 0.04632,-0.16986c0.00273,-0.00876 0.00594,-0.01751 0.00876,-0.02627c0.01714,-0.05235 0.03578,-0.10414 0.05621,-0.15536c0.00311,-0.0081 0.00612,-0.01619 0.00932,-0.0241c0.02231,-0.05433 0.04708,-0.1078 0.07325,-0.16063c0.00574,-0.01149 0.01158,-0.02298 0.01752,-0.03446c0.0273,-0.05263 0.05583,-0.1047 0.08681,-0.15564c0.00104,-0.0016 0.00169,-0.00339 0.00273,-0.00499c-0.53075,-0.48414 -1.20329,-0.74542 -1.92084,-0.74542h-8.03287c-0.45778,0 -0.90181,0.10875 -1.30065,0.31363c0.03192,0.04802 0.06242,0.09698 0.09105,0.14735c0.00518,0.00923 0.01007,0.01855 0.01516,0.02768c0.02354,0.04265 0.04661,0.08559 0.06788,0.12974c0.01149,0.02354 0.02166,0.04792 0.0323,0.07193c0.01441,0.03239 0.02938,0.06431 0.04246,0.09755c0.02307,0.05819 0.04425,0.11741 0.06308,0.17767c0.00047,0.00141 0.00113,0.00273 0.00151,0.00414c0.07777,0.25064 0.11469,0.50448 0.1145,0.75408c-0.00066,0.66567 -0.26542,1.30206 -0.72198,1.7717c-0.28538,0.29357 -0.64562,0.52199 -1.06328,0.65183c-0.06581,0.02043 -0.1304,0.04143 -0.1949,0.06242v7.69062h3.88067h5.97719h3.88067zM191.58575,185.89358c-0.04547,0.00838 -0.09236,0.01337 -0.14029,0.01337c-0.00942,0 -0.01855,-0.00113 -0.02777,-0.00141c-0.13021,0.02024 -0.25628,0.06516 -0.37068,0.13455c-0.36617,0.2222 -0.80455,0.3349 -1.30291,0.3349c-1.33511,0 -3.0426,-0.80153 -4.8079,-2.25716c-0.18388,-0.15168 -0.40665,-0.23181 -0.6442,-0.23181c-0.24659,0 -0.47991,0.08954 -0.66275,0.24753c-0.00235,0.00217 -0.00443,0.00442 -0.00678,0.00659c-0.02278,0.02015 -0.04218,0.03841 -0.05988,0.05611c-0.01836,0.01911 -0.037,0.03804 -0.05404,0.05866c-0.15074,0.18294 -0.23115,0.40666 -0.23218,0.6395c0,0.00094 -0.0001,0.00169 -0.0001,0.00263c0,0.03333 0.00151,0.06694 0.0048,0.10065c0.02599,0.26975 0.15536,0.51333 0.36456,0.68573c0.12099,0.0998 0.24169,0.19593 0.3624,0.29037c0.04378,0.03427 0.08738,0.06741 0.13106,0.10093c1.98685,1.52587 3.92077,2.3306 5.62111,2.3306c0.86293,0 1.64996,-0.21213 2.33945,-0.63046c0.47821,-0.29018 0.63112,-0.91537 0.34103,-1.39367c-0.18304,-0.30157 -0.50213,-0.48254 -0.85492,-0.48763z"/></g></g></g></svg>