<svg version="1.1" xmlns="http://www.w3.org/2000/svg" xmlns:xlink="http://www.w3.org/1999/xlink" width="182.33951" height="78.53982" viewBox="0,0,182.33951,78.53982"><g transform="translate(-148.83025,-140.73009)"><g stroke-miterlimit="10"><path d="M154.69619,217.26991c-2.1351,0 -3.86594,-1.56609 -3.86594,-3.49796v-67.5439c0,-1.93187 1.73084,-3.49796 3.86594,-3.49796h170.60763c2.1351,0 3.86594,1.56609 3.86594,3.49796v67.5439c0,1.93187 -1.73084,3.49796 -3.86594,3.49796z" fill="#434343" stroke="#212121" stroke-width="4"/><text transform="translate(213.52388,166.92425) scale(0.50494,0.50494)" font-size="40" xml:space="preserve" fill="#ffffff" stroke="none" stroke-width="1" font-family="&quot;Tw Cen MT&quot;, Sans Serif" font-weight="normal" text-anchor="start"><tspan x="0" dy="0">МЕТАН</tspan></text><text transform="translate(212.96308,191.59374) scale(0.42307,0.42307)" font-size="40" xml:space="preserve" fill="#ffffff" stroke="none" stroke-width="1" font-family="&quot;Tw Cen MT&quot;, Sans Serif" font-weight="normal" text-anchor="start"><tspan x="0" dy="0">20Qn ⚡️ </tspan></text><text transform="translate(213.95377,207.72239) scale(0.24021,0.24021)" font-size="40" xml:space="preserve" fill="#ffffff" stroke="none" stroke-width="1" font-family="&quot;Tw Cen MT&quot;, Sans Serif" font-weight="normal" text-anchor="start"><tspan x="0" dy="0">+55qd развитие</tspan></text><path d="M207.88649,182.93937v8.91649c0,2.80757 -2.28413,5.0917 -5.0917,5.0917c-2.08633,0 -3.88277,-1.26188 -4.66846,-3.062h-3.81262v9.23836c0,0.89102 -0.7224,1.61333 -1.61333,1.61333h-9.79824c-0.89102,0 -1.61333,-0.7224 -1.61333,-1.61333v-9.23836h-12.48879c-0.7913,1.78707 -2.58049,3.03755 -4.65735,3.03755c-2.80757,0 -5.0917,-2.28423 -5.0917,-5.0918v-8.91639c0,-2.80757 2.28413,-5.0917 5.0917,-5.0917c2.07686,0 3.86605,1.25039 4.65735,3.03736h6.83915v-4.8396c-3.33507,-1.92138 -5.58509,-5.52315 -5.58509,-9.64073c0,-6.13018 4.98734,-11.11752 11.11762,-11.11752c6.13018,0 11.11752,4.98734 11.11752,11.11752c0,4.11758 -2.25002,7.71925 -5.58499,9.64073v4.83969h11.44432c0.79671,-1.77392 2.57895,-3.01301 4.64624,-3.01301c2.80738,0 5.0916,2.28423 5.0917,5.0917zM166.0078,182.91493c0,-1.01335 -0.82502,-1.86505 -1.86514,-1.86505c-1.02843,0 -1.86505,0.83662 -1.86505,1.86505v8.9163c0,1.02852 0.83662,1.86514 1.86505,1.86514c1.0435,0 1.86514,-0.85527 1.86514,-1.86514zM173.76493,169.10251c1.04611,-0.93354 2.25717,-1.65952 3.56524,-2.14218l-2.27205,-1.75228c-0.70559,-0.54412 -0.83652,-1.55709 -0.2923,-2.26268c0.54422,-0.70559 1.55728,-0.83643 2.26268,-0.2923l4.7134,3.6352c2.55488,0.13074 4.96116,1.13433 6.8376,2.81134c0.31231,-0.84812 0.48315,-1.76417 0.48315,-2.71935c0,-4.35103 -3.53993,-7.89096 -7.89096,-7.89096c-4.35113,0 -7.89106,3.53993 -7.89106,7.89087c0,0.95634 0.17132,1.87336 0.48431,2.72234zM181.17179,174.27122c2.20866,0 4.20976,-0.9116 5.64945,-2.38974c-1.47302,-1.51022 -3.50185,-2.3823 -5.64887,-2.3824c-0.00058,0 -0.00116,0.0001 -0.00174,0.0001c-0.00058,0 -0.00106,0 -0.00164,0c-2.13783,0.00077 -4.17246,0.8744 -5.64635,2.38298c1.49505,1.53457 3.51828,2.38917 5.64916,2.38907zM181.1717,177.49807c-0.75052,0 -1.52375,-0.07363 -2.30597,-0.23867h-0.0001v3.60129h4.61194v-3.60129c-0.78222,0.16504 -1.55535,0.23858 -2.30587,0.23867zM191.08696,193.88547h-6.57168v7.62504h6.57168zM197.70297,184.08724c-0.7339,0 -27.81945,0 -28.46861,0v6.57168c0.49938,0 28.02808,0 28.46861,0zM204.65981,191.85577h-0.0001v-8.91649c0,-1.02843 -0.83662,-1.86505 -1.86505,-1.86505c-0.9517,0 -1.73788,0.71709 -1.84997,1.63913c-0.02213,0.18147 -0.01507,-0.21887 -0.01507,9.14241c0,1.01384 0.82493,1.86505 1.86514,1.86505c1.02843,0 1.86505,-0.83662 1.86505,-1.86505z" fill="#ffffff" stroke="none" stroke-width="1"/></g></g></svg>