<svg version="1.1" xmlns="http://www.w3.org/2000/svg" xmlns:xlink="http://www.w3.org/1999/xlink" width="42.59075" height="34" viewBox="0,0,42.59075,34"><g transform="translate(-158.70668,-297.39334)"><g stroke-miterlimit="10"><path d="M196.29128,326.74073c0,1.8167 -8.0549,3.28942 -17.99111,3.28942c-9.93621,0 -17.99111,-1.47272 -17.99111,-3.28942c0,-1.8167 8.0549,-3.28942 17.99111,-3.28942c9.93621,0 17.99111,1.47272 17.99111,3.28942z" fill-opacity="0.4902" fill="#000000" stroke="none" stroke-width="0" stroke-linecap="butt"/><path d="M180.17333,318.66001l2.33333,2.4" fill="none" stroke="#843939" stroke-width="1" stroke-linecap="round"/><path d="M178.50668,320.06001l2.4,1.8" fill="none" stroke="#843939" stroke-width="1" stroke-linecap="round"/><path d="M158.70669,331.39334v-34h42.59075v34z" fill-opacity="0.00784" fill="#00ffff" stroke="none" stroke-width="0" stroke-linecap="butt"/><path d="M186.63335,313.49167c0,0 3.192,0.80169 3.12208,1.48695c-0.06895,0.67572 -1.95541,1.67972 -1.95541,1.67972" fill="none" stroke="#3c3c3c" stroke-width="1.5" stroke-linecap="round"/><path d="M184.30001,324.90835v-8.5h3.16666v8.5z" fill="#2b2b2b" stroke="#3c3c3c" stroke-width="1.5" stroke-linecap="butt"/><path d="M168.4018,324.79763l-0.08928,-9.59524l20.53572,-0.07738l0.08928,9.75" fill="none" stroke="#804d33" stroke-width="2" stroke-linecap="round"/><path d="M173.38336,313.57501v-9.75h12.66667v9.75z" fill="#04ff00" stroke="#3c3c3c" stroke-width="1.5" stroke-linecap="butt"/><path d="M170.35558,313.74168c0,0.19177 -0.49746,0.34722 -1.11111,0.34722c-0.61365,0 -1.11111,-0.15546 -1.11111,-0.34722c0,-0.19177 0.49746,-0.34722 1.11111,-0.34722c0.61365,0 1.11111,0.15546 1.11111,0.34722z" fill="none" stroke="#3e3e3e" stroke-width="1" stroke-linecap="butt"/><g fill="#191919" stroke="#2b2b2b" stroke-width="1" stroke-linecap="butt"><path d="M172.33601,323.9604l-0.28115,-2.24916l8.53359,-1.0667l0.28115,2.24916z"/><path d="M175.8917,326.06899l-0.27288,-2.18301l1.7861,-0.22326l0.27288,2.18301z"/><path d="M171.95564,321.4549l-0.92613,-7.40901l2.38147,-0.29768l0.92613,7.40901z"/></g><path d="M182.84002,313.86001l-3.4,-2.2" fill="none" stroke="#843939" stroke-width="1" stroke-linecap="round"/><path d="M174.43298,320.80996l-1.53276,-11.49829l6.01347,-0.80162l1.53276,11.49829z" fill="#ff6666" stroke="#000000" stroke-width="1" stroke-linecap="butt"/><path d="M179.64,313.39334l3.4,2.2" fill="none" stroke="#843939" stroke-width="1" stroke-linecap="round"/><path d="M187.44002,309.12667c0,2.24658 -1.42989,4.3781 -4.00953,5.12948c-1.39444,0.40616 -3.45515,-0.06281 -5.05713,-0.06281c-4.56555,0 -6,-3.33901 -6,-6.8c0,-3.46098 2.23445,-4.53333 6.8,-4.53333c2.68864,0 5.21082,0.173 6.72055,1.67985c1.05393,1.05192 1.54611,3.16399 1.54611,4.58682z" fill-opacity="0.21569" fill="#04ff00" stroke="none" stroke-width="0" stroke-linecap="butt"/></g></g></svg>