<svg version="1.1" xmlns="http://www.w3.org/2000/svg" xmlns:xlink="http://www.w3.org/1999/xlink" width="31.06666" height="20.16" viewBox="0,0,31.06666,20.16"><defs><radialGradient cx="235.46667" cy="189.32875" r="2.33334" gradientUnits="userSpaceOnUse" id="color-1"><stop offset="0" stop-color="#ff6666"/><stop offset="1" stop-color="#171717"/></radialGradient><radialGradient cx="242.71667" cy="189.66209" r="2.6" gradientUnits="userSpaceOnUse" id="color-2"><stop offset="0" stop-color="#ff6666"/><stop offset="1" stop-color="#171717"/></radialGradient></defs><g transform="translate(-224.46667,-169.92)"><g stroke-width="2" stroke-miterlimit="10"><path d="M235.33333,184.41333l0.13333,4.66667" fill="none" stroke="url(#color-1)" stroke-linecap="round"/><path d="M242.33333,183.81333l0.13333,5.2" fill="none" stroke="url(#color-2)" stroke-linecap="round"/><path d="M250.73333,176.61333l3.8,3.13333" fill="none" stroke="#803333" stroke-linecap="round"/><path d="M227.46667,176.94666l-2,1.86667" fill="none" stroke="#803333" stroke-linecap="round"/><path d="M228.06,183.78667v-12.86667h22.6v12.86667z" fill="#ff6666" stroke="#000000" stroke-linecap="butt"/><path d="M243.66666,180.28c0,0 -3.01081,0.93333 -4.6,0.93333c-1.41204,0 -4.46666,-0.93333 -4.46666,-0.93333" fill="none" stroke="#000000" stroke-linecap="round"/><path d="M234.8,175.38c0,0.53387 -0.44771,0.96667 -1,0.96667c-0.55229,0 -1,-0.43279 -1,-0.96667c0,-0.53387 0.44771,-0.96667 1,-0.96667c0.55229,0 1,0.43279 1,0.96667z" fill="none" stroke="#000000" stroke-linecap="butt"/><path d="M246,175.51333c0,0.53387 -0.44771,0.96667 -1,0.96667c-0.55229,0 -1,-0.43279 -1,-0.96667c0,-0.53387 0.44771,-0.96667 1,-0.96667c0.55229,0 1,0.43279 1,0.96667z" fill="none" stroke="#000000" stroke-linecap="butt"/></g></g></svg>