<svg version="1.1" xmlns="http://www.w3.org/2000/svg" xmlns:xlink="http://www.w3.org/1999/xlink" width="31.06666" height="24.15166" viewBox="0,0,31.06666,24.15166"><defs><radialGradient cx="235.46667" cy="189.32875" r="2.33334" gradientUnits="userSpaceOnUse" id="color-1"><stop offset="0" stop-color="#ff6666"/><stop offset="1" stop-color="#171717"/></radialGradient><radialGradient cx="242.71667" cy="189.66209" r="2.6" gradientUnits="userSpaceOnUse" id="color-2"><stop offset="0" stop-color="#ff6666"/><stop offset="1" stop-color="#171717"/></radialGradient></defs><g transform="translate(-224.46667,-165.92834)"><g stroke-miterlimit="10"><path d="M235.33333,184.41333l0.13333,4.66667" fill="none" stroke="url(#color-1)" stroke-width="2" stroke-linecap="round"/><path d="M242.33333,183.81333l0.13333,5.2" fill="none" stroke="url(#color-2)" stroke-width="2" stroke-linecap="round"/><path d="M254.53333,179.74666l-3.8,-3.13333" fill="none" stroke="#803333" stroke-width="2" stroke-linecap="round"/><path d="M227.46667,176.94666l-2,1.86667" fill="none" stroke="#803333" stroke-width="2" stroke-linecap="round"/><path d="M228.06,183.78667v-12.86667h22.6v12.86667z" fill="#ff6666" stroke="#000000" stroke-width="2" stroke-linecap="butt"/><path d="M234.6,181.21333c0,0 3.05462,-0.93333 4.46666,-0.93333c1.58919,0 4.6,0.93333 4.6,0.93333" fill="none" stroke="#000000" stroke-width="2" stroke-linecap="round"/><path d="M234.8,175.38c0,0.53387 -0.44771,0.96667 -1,0.96667c-0.55229,0 -1,-0.43279 -1,-0.96667c0,-0.53387 0.44771,-0.96667 1,-0.96667c0.55229,0 1,0.43279 1,0.96667z" fill="none" stroke="#000000" stroke-width="2" stroke-linecap="butt"/><path d="M246,175.51333c0,0.53387 -0.44771,0.96667 -1,0.96667c-0.55229,0 -1,-0.43279 -1,-0.96667c0,-0.53387 0.44771,-0.96667 1,-0.96667c0.55229,0 1,0.43279 1,0.96667z" fill="none" stroke="#000000" stroke-width="2" stroke-linecap="butt"/><path d="M227.01,184.92834v-2.875h24.25v2.875z" fill="#171717" stroke="none" stroke-width="2" stroke-linecap="butt"/><path d="M233.385,170.42834v-1.5h11.5v1.5z" fill="#171717" stroke="none" stroke-width="0" stroke-linecap="butt"/><path d="M243.26,168.61584c0,0.79391 -1.90279,1.4375 -4.25,1.4375c-2.34721,0 -4.25,-0.64359 -4.25,-1.4375c0,-0.79391 1.77779,-2.6875 4.125,-2.6875c2.34721,0 4.375,1.89359 4.375,2.6875z" fill="#171717" stroke="none" stroke-width="0" stroke-linecap="butt"/><path d="M232.3,173.82875l2.91667,1" fill="none" stroke="#000000" stroke-width="2" stroke-linecap="round"/><path d="M243.3,175.07875l2.58333,-1.25" fill="none" stroke="#000000" stroke-width="2" stroke-linecap="round"/></g></g></svg>