<svg version="1.1" xmlns="http://www.w3.org/2000/svg" xmlns:xlink="http://www.w3.org/1999/xlink" width="47.87282" height="30.66" viewBox="0,0,47.87282,30.66"><g transform="translate(-216.06359,-164.67)"><g stroke-width="2" stroke-miterlimit="10"><path d="M232.63509,186.96509l0.21042,7.36491" fill="none" stroke="#a04040" stroke-linecap="round"/><path d="M243.68245,186.01818l0.21042,8.2066" fill="none" stroke="#a04040" stroke-linecap="round"/><path d="M262.93641,179.60018l-5.99714,-4.945" fill="none" stroke="#a04040" stroke-linecap="round"/><path d="M220.21998,175.18124l-3.15638,2.94597" fill="none" stroke="#a04040" stroke-linecap="round"/><path d="M221.15637,185.9761v-20.3061h35.66718v20.3061z" fill="#ff6666" stroke="#000000" stroke-linecap="butt"/><path d="M231.47776,181.91487c0,0 4.82078,-1.47298 7.04925,-1.47298c2.50805,0 7.25969,1.47298 7.25969,1.47298" fill="none" stroke="#000000" stroke-linecap="round"/><path d="M231.56793,173.61057c0,0.84255 -0.70657,1.5256 -1.57819,1.5256c-0.87162,0 -1.57819,-0.68303 -1.57819,-1.5256c0,-0.84255 0.70657,-1.52559 1.57819,-1.52559c0.87162,0 1.57819,0.68302 1.57819,1.52559z" fill="#000000" stroke="#000000" stroke-linecap="butt"/><path d="M249.0934,173.9713c0,0.84255 -0.70657,1.52559 -1.57819,1.52559c-0.87162,0 -1.57819,-0.68302 -1.57819,-1.52559c0,-0.84255 0.70657,-1.5256 1.57819,-1.5256c0.87162,0 1.57819,0.68303 1.57819,1.5256z" fill="#000000" stroke="#000000" stroke-linecap="butt"/><path d="M228.415,171.24364l3.15639,1.20244" fill="none" stroke="#000000" stroke-linecap="round"/><path d="M246.39861,172.98478l2.93093,-1.20243" fill="none" stroke="#000000" stroke-linecap="round"/><path d="M222.72662,184.11875l1.375,-1.8125" fill="none" stroke="#863535" stroke-linecap="round"/><path d="M224.37662,176.75625l1.55,1.65l1.95,-0.8375l1.075,0.6" fill="none" stroke="#863535" stroke-linecap="round"/><path d="M240.47662,166.93125l-0.5,1.875l1.375,2.875l-2.125,2.375" fill="none" stroke="#863535" stroke-linecap="round"/><path d="M255.35162,179.11875l-2.125,1.5625l-1.1875,-0.5" fill="none" stroke="#863535" stroke-linecap="round"/><path d="M251.72662,179.93125l-1.1875,1.5625" fill="none" stroke="#863535" stroke-linecap="round"/><path d="M221.40637,185.9761v-20.3061h35.66718v20.3061z" fill="none" stroke="#000000" stroke-linecap="butt"/></g></g></svg>