<svg version="1.1" xmlns="http://www.w3.org/2000/svg" xmlns:xlink="http://www.w3.org/1999/xlink" width="31.76666" height="20.16001" viewBox="0,0,31.76666,20.16001"><g transform="translate(-164.11667,-309.92)"><g stroke-width="2" stroke-miterlimit="10"><path d="M175.68333,324.41333l0.13333,4.66667" fill="none" stroke="#803333" stroke-linecap="round"/><path d="M182.68333,323.81335l0.13333,5.2" fill="none" stroke="#803333" stroke-linecap="round"/><path d="M194.88333,319.74666l-3.8,-3.13333" fill="none" stroke="#803333" stroke-linecap="round"/><path d="M167.11667,317.44668l-2,1.86667" fill="none" stroke="#803333" stroke-linecap="round"/><path d="M168.41,323.78667v-12.86667h22.6v12.86667z" fill="#ff6666" stroke="#000000" stroke-linecap="butt"/><path d="M184.01666,320.28c0,0 -3.01081,0.93333 -4.6,0.93333c-1.41204,0 -4.46666,-0.93333 -4.46666,-0.93333" fill="none" stroke="#000000" stroke-linecap="round"/><path d="M175.15,315.38001c0,0.53387 -0.44771,0.96667 -1,0.96667c-0.55229,0 -1,-0.43279 -1,-0.96667c0,-0.53387 0.44771,-0.96667 1,-0.96667c0.55229,0 1,0.43279 1,0.96667z" fill="none" stroke="#000000" stroke-linecap="butt"/><path d="M186.35,315.51334c0,0.53387 -0.44771,0.96667 -1,0.96667c-0.55229,0 -1,-0.43279 -1,-0.96667c0,-0.53387 0.44771,-0.96667 1,-0.96667c0.55229,0 1,0.43279 1,0.96667z" fill="none" stroke="#000000" stroke-linecap="butt"/></g></g></svg>