<svg version="1.1" xmlns="http://www.w3.org/2000/svg" xmlns:xlink="http://www.w3.org/1999/xlink" width="88.75" height="52.5" viewBox="0,0,88.75,52.5"><defs><radialGradient cx="237.37143" cy="180.98571" r="36.90778" gradientTransform="translate(-441.55889,-402.88977) scale(2.17418,2.17418)" gradientUnits="userSpaceOnUse" id="color-1"><stop offset="0" stop-color="#009a0d"/><stop offset="1" stop-color="#00ff15"/></radialGradient></defs><g transform="translate(-195.75,-153.75)"><g stroke-miterlimit="10"><path d="M196.75,194.975c0,-8.80542 0,-20.92313 0,-26.5c0,-5.68001 4.8999,-13.725 9.65,-13.725c9.96781,0 47.60492,0 66.25,0c6.42902,0 10.6,8.74492 10.6,14.725c0,5.35195 0.25,16.35212 0.25,24.75c0,6.22816 -4.54654,11.025 -8.85,11.025c-9.74853,0 -48.7031,-0.25 -67.5,-0.25c-6.17686,0 -10.4,-4.15033 -10.4,-10.025z" fill="#009a0d" stroke="#000000" stroke-width="2"/><path d="M220.125,192.5v-25h39.75v25z" fill="#00ff15" stroke="#000000" stroke-width="0"/><path d="M212.11429,171.36786l4,-7h45.75l4.5,7.25z" fill="#00ff15" stroke="none" stroke-width="0"/><text transform="translate(203.09222,185.3066) scale(0.45994,0.45994)" font-size="40" xml:space="preserve" fill="url(#color-1)" stroke="none" stroke-width="1" font-family="&quot;Comic Sans MS&quot;, Sans Serif" font-weight="normal" text-anchor="start"><tspan x="0" dy="0">Магазин</tspan></text></g></g></svg>