<svg version="1.1" xmlns="http://www.w3.org/2000/svg" xmlns:xlink="http://www.w3.org/1999/xlink" width="135.50222" height="59.06514" viewBox="0,0,135.50222,59.06514"><g transform="translate(-175.41695,-141.38609)"><g stroke-width="2" stroke-miterlimit="10"><path d="M190.53934,199.4042l31.06235,-22.55565h39.82683l32.73791,21.00898z" fill="#191919" stroke="#000000" stroke-linecap="butt"/><g fill="#00ff09" stroke="#000000" stroke-linecap="butt"><path d="M222.40109,178.88609v-3.25h37.625v3.25z"/><path d="M222.02609,165.26109v-10.875h13.75v10.875z"/><path d="M241.27609,170.01109v-7h14.625v7z"/><path d="M247.77609,157.76109v-6.75h16.5v6.75z"/><path d="M226.02609,149.38609v-7h14.375v7z"/></g><g fill="#00ff09" stroke="#000000" stroke-linecap="butt"><path d="M192.94855,198.27094l-1.71275,-2.76206l31.97619,-19.82837l1.71275,2.76206z"/><path d="M185.44947,186.88915l-5.73112,-9.24229l11.68565,-7.24625l5.73112,9.24229z"/><path d="M204.31263,180.78126l-3.689,-5.94906l12.42928,-7.70737l3.689,5.94906z"/><path d="M203.38101,166.94491l-3.55725,-5.73659l14.02278,-8.6955l3.55725,5.73659z"/><path d="M180.48281,171.28953l-3.689,-5.94906l12.21681,-7.57562l3.689,5.94906z"/></g><g fill="#00ff09" stroke="#000000" stroke-linecap="butt"><path d="M259.80979,179.32403l1.39151,-2.93704l34.00187,16.10943l-1.39151,2.93704z"/><path d="M265.30455,166.85051l4.65621,-9.82778l12.42593,5.88717l-4.65621,9.82778z"/><path d="M280.6671,179.38513l2.99711,-6.32593l13.21667,6.26181l-2.9971,6.32593z"/><path d="M291.78611,171.09779l2.89007,-6.10001l14.91112,7.0646l-2.89006,6.1z"/><path d="M275.71637,154.21684l2.99711,-6.32593l12.99075,6.15477l-2.99711,6.32593z"/></g><g><path d="M212.9187,192.37823l1.30602,4.48217" fill="none" stroke="#803333" stroke-linecap="round"/><path d="M223.1888,193.78912l-1.44054,-4.99826" fill="none" stroke="#803333" stroke-linecap="round"/><path d="M227.95819,175.32713l-2.3403,4.33367" fill="none" stroke="#803333" stroke-linecap="round"/><path d="M200.55126,183.79222l2.0999,1.75352" fill="none" stroke="#803333" stroke-linecap="round"/><path d="M206.29697,194.78848l-3.24517,-12.45071l21.86937,-5.70006l3.24517,12.45071z" fill="#ff6666" stroke="#000000" stroke-linecap="butt"/></g></g></g></svg>