<svg version="1.1" xmlns="http://www.w3.org/2000/svg" xmlns:xlink="http://www.w3.org/1999/xlink" width="135.50222" height="61.09728" viewBox="0,0,135.50222,61.09728"><g transform="translate(-175.41694,-139.71053)"><g stroke-width="2" stroke-miterlimit="10"><path d="M190.53934,199.4042l31.06235,-22.55565h39.82683l32.73791,21.00898z" fill="#191919" stroke="#000000" stroke-linecap="butt"/><g fill="#00ff09" stroke="#000000" stroke-linecap="butt"><path d="M222.40109,177.21053v-3.25h37.625v3.25z"/><path d="M222.02609,163.58553v-10.875h13.75v10.875z"/><path d="M241.27609,168.33553v-7h14.625v7z"/><path d="M247.77609,156.08553v-6.75h16.5v6.75z"/><path d="M226.02609,147.71053v-7h14.375v7z"/></g><g fill="#00ff09" stroke="#000000" stroke-linecap="butt"><path d="M192.94855,199.43095l-1.71275,-2.76206l31.97619,-19.82837l1.71275,2.76206z"/><path d="M185.44947,188.04916l-5.73112,-9.24229l11.68565,-7.24625l5.73112,9.24229z"/><path d="M204.31263,181.94127l-3.689,-5.94906l12.42928,-7.70737l3.689,5.94906z"/><path d="M203.38101,168.10492l-3.55725,-5.73659l14.02278,-8.6955l3.55725,5.73659z"/><path d="M180.48281,172.44954l-3.689,-5.94906l12.21681,-7.57562l3.689,5.94906z"/></g><g fill="#00ff09" stroke="#000000" stroke-linecap="butt"><path d="M259.80979,176.87514l1.39151,-2.93704l34.00187,16.10943l-1.39151,2.93704z"/><path d="M265.30455,164.40162l4.65621,-9.82778l12.42593,5.88717l-4.65621,9.82778z"/><path d="M280.6671,176.93624l2.99711,-6.32593l13.21667,6.26181l-2.9971,6.32593z"/><path d="M291.78611,168.6489l2.89007,-6.10001l14.91112,7.0646l-2.89006,6.1z"/><path d="M275.71637,151.76795l2.99711,-6.32593l12.99075,6.15477l-2.99711,6.32593z"/></g><g><path d="M258.69199,190.74549l2.26232,-4.0838" fill="none" stroke="#803333" stroke-linecap="round"/><path d="M269.71942,190.40377l-2.53398,4.54276" fill="none" stroke="#803333" stroke-linecap="round"/><path d="M283.65132,185.33055l-4.72484,1.39053" fill="none" stroke="#803333" stroke-linecap="round"/><path d="M258.34004,171.83473l0.23397,2.72574" fill="none" stroke="#803333" stroke-linecap="round"/><path d="M254.57976,183.65806l6.55389,-11.07239l19.44839,11.51175l-6.55389,11.07239z" fill="#66ff7a" stroke="#000000" stroke-linecap="butt"/></g></g></g></svg>