<svg version="1.1" xmlns="http://www.w3.org/2000/svg" xmlns:xlink="http://www.w3.org/1999/xlink" width="414.65093" height="1023.71067" viewBox="0,0,414.65093,1023.71067"><g transform="translate(26.12411,4.30535)"><g stroke="#000000" stroke-miterlimit="10"><g fill="#a09e92" stroke-width="2.5"><path d="M330.12799,-2.83597l50.99955,-0.21414l0.21414,50.99955l-50.99955,0.21414z"/><path d="M330.34213,48.16358l50.99955,-0.21414l0.21414,50.99955l-50.99955,0.21414z"/><path d="M330.55626,99.16313l50.99955,-0.21414l0.21414,50.99955l-50.99955,0.21414z"/><path d="M330.7704,150.16268l50.99955,-0.21414l0.21414,50.99955l-50.99955,0.21414z"/><path d="M330.98453,201.16223l50.99955,-0.21414l0.21414,50.99955l-50.99955,0.21414z"/><path d="M331.19867,252.16178l50.99955,-0.21414l0.21414,50.99955l-50.99955,0.21414z"/><path d="M331.41281,303.16133l50.99955,-0.21414l0.21414,50.99955l-50.99955,0.21414z"/><path d="M331.62694,354.16088l50.99955,-0.21414l0.21414,50.99955l-50.99955,0.21414z"/><path d="M331.84108,405.16043l50.99955,-0.21414l0.21414,50.99955l-50.99955,0.21414z"/><path d="M332.05521,456.15998l50.99955,-0.21414l0.21414,50.99955l-50.99955,0.21414z"/><path d="M279.12844,-2.62184l50.99955,-0.21414l0.21414,50.99955l-50.99955,0.21414z"/><path d="M279.34258,48.37771l50.99955,-0.21414l0.21414,50.99955l-50.99955,0.21414z"/><path d="M279.55671,99.37726l50.99955,-0.21414l0.21414,50.99955l-50.99955,0.21414z"/><path d="M279.77085,150.37681l50.99955,-0.21414l0.21414,50.99955l-50.99955,0.21414z"/><path d="M279.98498,201.37636l50.99955,-0.21414l0.21414,50.99955l-50.99955,0.21414z"/><path d="M280.19912,252.37591l50.99955,-0.21414l0.21414,50.99955l-50.99955,0.21414z"/><path d="M280.41326,303.37546l50.99955,-0.21414l0.21414,50.99955l-50.99955,0.21414z"/><path d="M280.62739,354.37502l50.99955,-0.21414l0.21414,50.99955l-50.99955,0.21414z"/><path d="M280.84153,405.37457l50.99955,-0.21414l0.21414,50.99955l-50.99955,0.21414z"/><path d="M281.05566,456.37412l50.99955,-0.21414l0.21414,50.99955l-50.99955,0.21414z"/></g><g fill="#a09e92" stroke-width="2.5"><path d="M229.12888,-2.4119l50.99955,-0.21414l0.21414,50.99955l-50.99955,0.21414z"/><path d="M229.34302,48.58765l50.99955,-0.21414l0.21414,50.99955l-50.99955,0.21414z"/><path d="M229.55715,99.5872l50.99955,-0.21414l0.21414,50.99955l-50.99955,0.21414z"/><path d="M229.77129,150.58675l50.99955,-0.21414l0.21414,50.99955l-50.99955,0.21414z"/><path d="M229.98542,201.5863l50.99955,-0.21414l0.21414,50.99955l-50.99955,0.21414z"/><path d="M230.19956,252.58585l50.99955,-0.21414l0.21414,50.99955l-50.99955,0.21414z"/><path d="M230.4137,303.5854l50.99955,-0.21414l0.21414,50.99955l-50.99955,0.21414z"/><path d="M230.62783,354.58495l50.99955,-0.21414l0.21414,50.99955l-50.99955,0.21414z"/><path d="M230.84197,405.5845l50.99955,-0.21414l0.21414,50.99955l-50.99955,0.21414z"/><path d="M231.0561,456.58405l50.99955,-0.21414l0.21414,50.99955l-50.99955,0.21414z"/><path d="M178.12933,-2.19776l50.99955,-0.21414l0.21414,50.99955l-50.99955,0.21414z"/><path d="M178.34347,48.80179l50.99955,-0.21414l0.21414,50.99955l-50.99955,0.21414z"/><path d="M178.5576,99.80134l50.99955,-0.21414l0.21414,50.99955l-50.99955,0.21414z"/><path d="M178.77174,150.80089l50.99955,-0.21414l0.21414,50.99955l-50.99955,0.21414z"/><path d="M178.98587,201.80044l50.99955,-0.21414l0.21414,50.99955l-50.99955,0.21414z"/><path d="M179.20001,252.79999l50.99955,-0.21414l0.21414,50.99955l-50.99955,0.21414z"/><path d="M179.41415,303.79954l50.99955,-0.21414l0.21414,50.99955l-50.99955,0.21414z"/><path d="M179.62828,354.79909l50.99955,-0.21414l0.21414,50.99955l-50.99955,0.21414z"/><path d="M179.84242,405.79864l50.99955,-0.21414l0.21414,50.99955l-50.99955,0.21414z"/><path d="M180.05655,456.79819l50.99955,-0.21414l0.21414,50.99955l-50.99955,0.21414z"/></g><g fill="#a09e92" stroke-width="2.5"><path d="M127.12978,-1.98363l50.99955,-0.21414l0.21414,50.99955l-50.99955,0.21414z"/><path d="M127.34392,49.01592l50.99955,-0.21414l0.21414,50.99955l-50.99955,0.21414z"/><path d="M127.55805,100.01547l50.99955,-0.21414l0.21414,50.99955l-50.99955,0.21414z"/><path d="M127.77219,151.01502l50.99955,-0.21414l0.21414,50.99955l-50.99955,0.21414z"/><path d="M127.98632,202.01457l50.99955,-0.21414l0.21414,50.99955l-50.99955,0.21414z"/><path d="M128.20046,253.01412l50.99955,-0.21414l0.21414,50.99955l-50.99955,0.21414z"/><path d="M128.4146,304.01367l50.99955,-0.21414l0.21414,50.99955l-50.99955,0.21414z"/><path d="M128.62873,355.01322l50.99955,-0.21414l0.21414,50.99955l-50.99955,0.21414z"/><path d="M128.84287,406.01278l50.99955,-0.21414l0.21414,50.99955l-50.99955,0.21414z"/><path d="M129.057,457.01233l50.99955,-0.21414l0.21414,50.99955l-50.99955,0.21414z"/><path d="M76.13023,-1.76949l50.99955,-0.21414l0.21414,50.99955l-50.99955,0.21414z"/><path d="M76.34436,49.23006l50.99955,-0.21414l0.21414,50.99955l-50.99955,0.21414z"/><path d="M76.5585,100.22961l50.99955,-0.21414l0.21414,50.99955l-50.99955,0.21414z"/><path d="M76.77264,151.22916l50.99955,-0.21414l0.21414,50.99955l-50.99955,0.21414z"/><path d="M76.98677,202.22871l50.99955,-0.21414l0.21414,50.99955l-50.99955,0.21414z"/><path d="M77.20091,253.22826l50.99955,-0.21414l0.21414,50.99955l-50.99955,0.21414z"/><path d="M77.41505,304.22781l50.99955,-0.21414l0.21414,50.99955l-50.99955,0.21414z"/><path d="M77.62918,355.22736l50.99955,-0.21414l0.21414,50.99955l-50.99955,0.21414z"/><path d="M77.84332,406.22691l50.99955,-0.21414l0.21414,50.99955l-50.99955,0.21414z"/><path d="M78.05745,457.22646l50.99955,-0.21414l0.21414,50.99955l-50.99955,0.21414z"/></g><g fill="#a09e92" stroke-width="2.5"><path d="M26.13067,-1.55956l50.99955,-0.21414l0.21414,50.99955l-50.99955,0.21414z"/><path d="M26.34481,49.44l50.99955,-0.21414l0.21414,50.99955l-50.99955,0.21414z"/><path d="M26.55894,100.43955l50.99955,-0.21414l0.21414,50.99955l-50.99955,0.21414z"/><path d="M26.77308,151.4391l50.99955,-0.21414l0.21414,50.99955l-50.99955,0.21414z"/><path d="M26.98721,202.43865l50.99955,-0.21414l0.21414,50.99955l-50.99955,0.21414z"/><path d="M27.20135,253.4382l50.99955,-0.21414l0.21414,50.99955l-50.99955,0.21414z"/><path d="M27.41549,304.43775l50.99955,-0.21414l0.21414,50.99955l-50.99955,0.21414z"/><path d="M27.62962,355.4373l50.99955,-0.21414l0.21414,50.99955l-50.99955,0.21414z"/><path d="M27.84376,406.43685l50.99955,-0.21414l0.21414,50.99955l-50.99955,0.21414z"/><path d="M28.05789,457.4364l50.99955,-0.21414l0.21414,50.99955l-50.99955,0.21414z"/><path d="M-24.86888,-1.34542l50.99955,-0.21414l0.21414,50.99955l-50.99955,0.21414z"/><path d="M-24.65474,49.65413l50.99955,-0.21414l0.21414,50.99955l-50.99955,0.21414z"/><path d="M-24.44061,100.65368l50.99955,-0.21414l0.21414,50.99955l-50.99955,0.21414z"/><path d="M-24.22647,151.65323l50.99955,-0.21414l0.21414,50.99955l-50.99955,0.21414z"/><path d="M-24.01234,202.65278l50.99955,-0.21414l0.21414,50.99955l-50.99955,0.21414z"/><path d="M-23.7982,253.65233l50.99955,-0.21414l0.21414,50.99955l-50.99955,0.21414z"/><path d="M-23.58406,304.65188l50.99955,-0.21414l0.21414,50.99955l-50.99955,0.21414z"/><path d="M-23.36993,355.65143l50.99955,-0.21414l0.21414,50.99955l-50.99955,0.21414z"/><path d="M-23.15579,406.65098l50.99955,-0.21414l0.21414,50.99955l-50.99955,0.21414z"/><path d="M-22.94166,457.65054l50.99955,-0.21414l0.21414,50.99955l-50.99955,0.21414z"/></g><g fill="#a09e92" stroke-width="2.5"><path d="M28.13067,507.94045l50.99955,-0.21414l0.21413,50.99955l-50.99955,0.21414z"/><path d="M28.34481,558.94l50.99955,-0.21414l0.21414,50.99955l-50.99955,0.21414z"/><path d="M28.55894,609.93955l50.99955,-0.21414l0.21414,50.99955l-50.99955,0.21414z"/><path d="M28.77308,660.9391l50.99955,-0.21414l0.21413,50.99955l-50.99955,0.21413z"/><path d="M28.98722,711.93865l50.99955,-0.21413l0.21413,50.99955l-50.99955,0.21413z"/><path d="M29.20135,762.9382l50.99955,-0.21413l0.21413,50.99955l-50.99955,0.21414z"/><path d="M29.41549,813.93775l50.99955,-0.21414l0.21413,50.99955l-50.99955,0.21414z"/><path d="M29.62962,864.9373l50.99955,-0.21414l0.21414,50.99955l-50.99955,0.21414z"/><path d="M29.84376,915.93685l50.99955,-0.21414l0.21413,50.99955l-50.99955,0.21414z"/><path d="M30.0579,966.9364l50.99955,-0.21414l0.21413,50.99955l-50.99955,0.21414z"/><path d="M-22.86888,508.15458l50.99955,-0.21413l0.21414,50.99955l-50.99955,0.21413z"/><path d="M-22.65474,559.15413l50.99955,-0.21413l0.21413,50.99955l-50.99955,0.21413z"/><path d="M-22.44061,610.15368l50.99955,-0.21413l0.21414,50.99955l-50.99955,0.21413z"/><path d="M-22.22647,661.15323l50.99956,-0.21413l0.21413,50.99955l-50.99955,0.21414z"/><path d="M-22.01233,712.15279l50.99955,-0.21414l0.21413,50.99955l-50.99955,0.21414z"/><path d="M-21.7982,763.15234l50.99955,-0.21414l0.21413,50.99956l-50.99955,0.21413z"/><path d="M-21.58406,814.15189l50.99955,-0.21413l0.21413,50.99955l-50.99955,0.21413z"/><path d="M-21.36993,865.15144l50.99955,-0.21413l0.21414,50.99955l-50.99955,0.21413z"/><path d="M-21.15579,916.15099l50.99955,-0.21413l0.21413,50.99955l-50.99955,0.21413z"/><path d="M-20.94165,967.15054l50.99955,-0.21413l0.21413,50.99955l-50.99955,0.21413z"/></g><g fill="#a09e92" stroke-width="2.5"><path d="M130.13067,507.94044l50.99955,-0.21413l0.21413,50.99955l-50.99955,0.21413z"/><path d="M130.34481,558.93999l50.99955,-0.21413l0.21414,50.99955l-50.99955,0.21413z"/><path d="M130.55894,609.93954l50.99955,-0.21413l0.21414,50.99955l-50.99955,0.21413z"/><path d="M130.77308,660.93909l50.99955,-0.21413l0.21413,50.99955l-50.99955,0.21413z"/><path d="M130.98722,711.93865l50.99955,-0.21413l0.21413,50.99955l-50.99955,0.21413z"/><path d="M131.20135,762.9382l50.99955,-0.21413l0.21413,50.99955l-50.99955,0.21414z"/><path d="M131.41548,813.93775l50.99955,-0.21414l0.21413,50.99955l-50.99955,0.21414z"/><path d="M131.62962,864.9373l50.99955,-0.21414l0.21414,50.99955l-50.99955,0.21414z"/><path d="M131.84376,915.93685l50.99955,-0.21414l0.21413,50.99955l-50.99955,0.21414z"/><path d="M132.0579,966.9364l50.99955,-0.21414l0.21413,50.99955l-50.99955,0.21414z"/><path d="M79.13112,508.15458l50.99955,-0.21414l0.21413,50.99955l-50.99955,0.21414z"/><path d="M79.34525,559.15413l50.99955,-0.21414l0.21413,50.99955l-50.99955,0.21414z"/><path d="M79.55939,610.15368l50.99955,-0.21414l0.21414,50.99955l-50.99955,0.21414z"/><path d="M79.77352,661.15323l50.99956,-0.21414l0.21413,50.99955l-50.99955,0.21414z"/><path d="M79.98766,712.15279l50.99955,-0.21414l0.21413,50.99955l-50.99955,0.21414z"/><path d="M80.2018,763.15234l50.99955,-0.21414l0.21413,50.99956l-50.99955,0.21413z"/><path d="M80.41593,814.15189l50.99955,-0.21413l0.21413,50.99955l-50.99955,0.21413z"/><path d="M80.63007,865.15144l50.99955,-0.21413l0.21414,50.99955l-50.99955,0.21413z"/><path d="M80.84421,916.15099l50.99955,-0.21413l0.21413,50.99955l-50.99955,0.21413z"/><path d="M81.05835,967.15054l50.99955,-0.21413l0.21413,50.99955l-50.99955,0.21413z"/></g><g fill="#a09e92" stroke-width="2.5"><path d="M232.13067,506.94044l50.99955,-0.21413l0.21413,50.99955l-50.99955,0.21413z"/><path d="M232.34481,557.93999l50.99955,-0.21413l0.21414,50.99955l-50.99955,0.21413z"/><path d="M232.55894,608.93954l50.99955,-0.21413l0.21414,50.99955l-50.99955,0.21413z"/><path d="M232.77308,659.93909l50.99955,-0.21413l0.21413,50.99955l-50.99955,0.21413z"/><path d="M232.98722,710.93865l50.99955,-0.21413l0.21413,50.99955l-50.99955,0.21413z"/><path d="M233.20135,761.9382l50.99955,-0.21413l0.21413,50.99955l-50.99955,0.21414z"/><path d="M233.41549,812.93775l50.99955,-0.21414l0.21413,50.99955l-50.99955,0.21414z"/><path d="M233.62962,863.9373l50.99955,-0.21414l0.21414,50.99955l-50.99955,0.21414z"/><path d="M233.84376,914.93685l50.99955,-0.21414l0.21414,50.99955l-50.99955,0.21414z"/><path d="M234.0579,965.9364l50.99955,-0.21414l0.21413,50.99955l-50.99955,0.21414z"/><path d="M181.13112,507.15458l50.99955,-0.21414l0.21413,50.99955l-50.99955,0.21414z"/><path d="M181.34526,558.15413l50.99955,-0.21414l0.21413,50.99955l-50.99955,0.21414z"/><path d="M181.55939,609.15368l50.99955,-0.21414l0.21414,50.99955l-50.99955,0.21414z"/><path d="M181.77353,660.15323l50.99955,-0.21414l0.21413,50.99955l-50.99955,0.21414z"/><path d="M181.98767,711.15279l50.99955,-0.21414l0.21413,50.99955l-50.99955,0.21414z"/><path d="M182.2018,762.15234l50.99955,-0.21414l0.21413,50.99956l-50.99955,0.21413z"/><path d="M182.41594,813.15189l50.99955,-0.21413l0.21413,50.99955l-50.99955,0.21413z"/><path d="M182.63007,864.15144l50.99955,-0.21413l0.21414,50.99955l-50.99955,0.21413z"/><path d="M182.84421,915.15099l50.99955,-0.21413l0.21414,50.99955l-50.99955,0.21413z"/><path d="M183.05835,966.15054l50.99955,-0.21413l0.21413,50.99955l-50.99955,0.21413z"/></g><g fill="#a09e92" stroke-width="2.5"><path d="M334.13067,506.94044l50.99955,-0.21413l0.21413,50.99955l-50.99955,0.21413z"/><path d="M334.34481,557.93999l50.99955,-0.21413l0.21413,50.99955l-50.99955,0.21413z"/><path d="M334.55894,608.93954l50.99955,-0.21413l0.21414,50.99955l-50.99955,0.21413z"/><path d="M334.77308,659.93909l50.99955,-0.21413l0.21413,50.99955l-50.99955,0.21413z"/><path d="M334.98722,710.93865l50.99955,-0.21413l0.21413,50.99955l-50.99955,0.21413z"/><path d="M335.20135,761.9382l50.99955,-0.21413l0.21413,50.99955l-50.99955,0.21414z"/><path d="M335.41549,812.93775l50.99955,-0.21414l0.21413,50.99955l-50.99955,0.21414z"/><path d="M335.62962,863.9373l50.99955,-0.21414l0.21414,50.99955l-50.99955,0.21414z"/><path d="M335.84376,914.93685l50.99955,-0.21414l0.21414,50.99955l-50.99955,0.21414z"/><path d="M336.0579,965.9364l50.99955,-0.21414l0.21413,50.99955l-50.99955,0.21414z"/><path d="M283.13112,507.15458l50.99955,-0.21414l0.21413,50.99955l-50.99955,0.21414z"/><path d="M283.34526,558.15413l50.99955,-0.21414l0.21413,50.99955l-50.99955,0.21414z"/><path d="M283.55939,609.15368l50.99955,-0.21414l0.21414,50.99955l-50.99955,0.21414z"/><path d="M283.77353,660.15323l50.99955,-0.21414l0.21413,50.99955l-50.99955,0.21414z"/><path d="M283.98767,711.15279l50.99955,-0.21414l0.21413,50.99955l-50.99955,0.21414z"/><path d="M284.2018,762.15234l50.99955,-0.21414l0.21413,50.99956l-50.99955,0.21413z"/><path d="M284.41594,813.15189l50.99955,-0.21413l0.21413,50.99955l-50.99955,0.21413z"/><path d="M284.63007,864.15144l50.99955,-0.21413l0.21414,50.99955l-50.99955,0.21413z"/><path d="M284.84421,915.15099l50.99955,-0.21413l0.21414,50.99955l-50.99955,0.21413z"/><path d="M285.05835,966.15054l50.99955,-0.21413l0.21413,50.99955l-50.99955,0.21413z"/></g><path d="M-6.64999,673.89999v-86.25h61.71874l34.28126,18.375v67.875z" fill="#52514c" stroke-width="2"/></g></g></svg>