<svg version="1.1" xmlns="http://www.w3.org/2000/svg" xmlns:xlink="http://www.w3.org/1999/xlink" width="31.06666" height="20.20848" viewBox="0,0,31.06666,20.20848"><g transform="translate(-224.46667,-169.87152)"><g stroke-width="2" stroke-miterlimit="10"><path d="M235.33333,184.41333l0.13333,4.66667" fill="none" stroke="#1a112b" stroke-linecap="round"/><path d="M242.33333,183.81333l0.13333,5.2" fill="none" stroke="#1a112b" stroke-linecap="round"/><path d="M250.73333,176.61333l3.8,3.13333" fill="none" stroke="#1a112b" stroke-linecap="round"/><path d="M227.46667,176.94666l-2,1.86667" fill="none" stroke="#1a112b" stroke-linecap="round"/><path d="M228.06,183.78667v-12.86667h22.6v12.86667z" fill="#ff6666" stroke="#000000" stroke-linecap="butt"/><path d="M243.66666,180.28c0,0 -3.01081,0.93333 -4.6,0.93333c-1.41204,0 -4.46666,-0.93333 -4.46666,-0.93333" fill="none" stroke="#000000" stroke-linecap="round"/><path d="M234.8,175.38c0,0.53387 -0.44771,0.96667 -1,0.96667c-0.55229,0 -1,-0.43279 -1,-0.96667c0,-0.53387 0.44771,-0.96667 1,-0.96667c0.55229,0 1,0.43279 1,0.96667z" fill="none" stroke="#000000" stroke-linecap="butt"/><path d="M246,175.51333c0,0.53387 -0.44771,0.96667 -1,0.96667c-0.55229,0 -1,-0.43279 -1,-0.96667c0,-0.53387 0.44771,-0.96667 1,-0.96667c0.55229,0 1,0.43279 1,0.96667z" fill="none" stroke="#000000" stroke-linecap="butt"/><path d="M226.98728,185.20107v-15.32954h24.63636l0.09091,15.23864zM233.57017,177.76743c1.19243,0 2.15909,-1.11929 2.15909,-2.5c0,-1.38071 -0.96666,-2.5 -2.15909,-2.5c-1.19243,0 -2.15909,1.11929 -2.15909,2.5c0,1.38071 0.96666,2.5 2.15909,2.5zM245.03298,177.85834c1.19243,0 2.15909,-1.11929 2.15909,-2.5c0,-1.38071 -0.96666,-2.5 -2.15909,-2.5c-1.19243,0 -2.15909,1.11929 -2.15909,2.5c0,1.38071 0.96666,2.5 2.15909,2.5z" fill="#1a112b" stroke="none" stroke-linecap="butt"/></g></g></svg>