<svg version="1.1" xmlns="http://www.w3.org/2000/svg" xmlns:xlink="http://www.w3.org/1999/xlink" width="24.69885" height="100.51645" viewBox="0,0,24.69885,100.51645"><g transform="translate(-225.14934,-162.34148)"><g stroke-miterlimit="10"><path d="M231.90667,172.59334v-8.4h14.06667v8.4z" fill="#bdbdbd" stroke="#000000" stroke-width="0.5" stroke-linecap="butt"/><path d="M232.65334,172.32667v-7.46666h12.6v7.46666z" fill="#00b3bd" stroke="#000000" stroke-width="0.5" stroke-linecap="butt"/><path d="M232.04,174.12667v-1.53333h13.93334v1.53333z" fill="#ffffff" stroke="#000000" stroke-width="0.5" stroke-linecap="butt"/><path d="M242.50668,181.06002l-2.33333,-2.4" fill="none" stroke="#843939" stroke-width="1" stroke-linecap="round"/><path d="M238.50669,180.06002l2.4,1.8" fill="none" stroke="#843939" stroke-width="1" stroke-linecap="round"/><path d="M228.8818,176.07764c0,0 0.17348,8.46795 -0.02411,8.47723c-0.22209,0.01043 -0.45817,-0.00272 -0.45913,-0.10567c-0.00932,-1.00213 -0.08604,-9.2468 -0.08604,-9.2468l20.53572,-0.07738c0,0 0.07687,8.39507 0.08611,9.40403c0.00088,0.09564 -0.19375,0.12264 -0.39085,0.12546c-0.2017,0.0029 -0.40598,-8.5395 -0.40598,-8.5395" fill="none" stroke="#bdbdbd" stroke-width="2" stroke-linecap="round"/><path d="M230.35558,173.74169c0,0.19177 -0.49746,0.34722 -1.11111,0.34722c-0.61365,0 -1.11111,-0.15546 -1.11111,-0.34722c0,-0.19177 0.49746,-0.34722 1.11111,-0.34722c0.61365,0 1.11111,0.15546 1.11111,0.34722z" fill="none" stroke="#3e3e3e" stroke-width="1" stroke-linecap="butt"/><g fill="#191919" stroke="#2b2b2b" stroke-width="1" stroke-linecap="butt"><path d="M232.33603,183.96041l-0.28115,-2.24916l8.53359,-1.0667l0.28115,2.24916z"/><path d="M235.8917,186.069l-0.27288,-2.18301l1.7861,-0.22326l0.27288,2.18301z"/><path d="M231.95566,181.45491l-0.92613,-7.40901l2.38147,-0.29768l0.92613,7.40901z"/></g><path d="M239.44002,171.66002l3.4,2.2" fill="none" stroke="#843939" stroke-width="1" stroke-linecap="round"/><path d="M234.433,180.80997l-1.53276,-11.49829l6.01347,-0.80163l1.53276,11.49829z" fill="#ff4949" stroke="#000000" stroke-width="1" stroke-linecap="butt"/><path d="M239.64002,173.39334l3.4,2.2" fill="none" stroke="#843939" stroke-width="1" stroke-linecap="round"/><path d="M248.024,168.80934c0,1.57967 -0.18073,4.05385 -1.71148,5.1103c-1.61611,1.11536 -4.64986,0.7697 -7.16852,0.7697c-2.13941,0 -5.58211,-0.14097 -7.11515,-0.97543c-1.98123,-1.07841 -1.76485,-3.07377 -1.76485,-4.90457c0,-3.24743 1.21571,-6.24 6.12,-6.24c2.98195,0 7.68099,-0.85365 10.09131,0.74366c1.55382,1.02971 1.5487,4.22345 1.5487,5.49634z" fill-opacity="0.21961" fill="#00b3bd" stroke="none" stroke-width="0" stroke-linecap="butt"/><g><path d="M231.52205,197.36257v-8.4h14.06667v8.4z" fill="#bdbdbd" stroke="#000000" stroke-width="0.5" stroke-linecap="butt"/><path d="M232.26872,197.0959v-7.46666h12.6v7.46666z" fill="#00b3bd" stroke="#000000" stroke-width="0.5" stroke-linecap="butt"/><path d="M231.65538,198.8959v-1.53333h13.93334v1.53333z" fill="#ffffff" stroke="#000000" stroke-width="0.5" stroke-linecap="butt"/><path d="M239.78873,203.42925l2.33333,2.4" fill="none" stroke="#843939" stroke-width="1" stroke-linecap="round"/><path d="M240.52207,206.62925l-2.4,-1.8" fill="none" stroke="#843939" stroke-width="1" stroke-linecap="round"/><path d="M228.49718,200.84687c0,0 0.17348,8.46795 -0.02411,8.47723c-0.22209,0.01043 -0.45817,-0.00272 -0.45913,-0.10567c-0.00932,-1.00213 -0.08604,-9.2468 -0.08604,-9.2468l20.53572,-0.07738c0,0 0.07687,8.39507 0.08611,9.40403c0.00088,0.09564 -0.19375,0.12264 -0.39085,0.12546c-0.2017,0.0029 -0.40598,-8.5395 -0.40598,-8.5395" fill="none" stroke="#bdbdbd" stroke-width="2" stroke-linecap="round"/><path d="M229.97096,198.51092c0,0.19177 -0.49746,0.34722 -1.11111,0.34722c-0.61365,0 -1.11111,-0.15546 -1.11111,-0.34722c0,-0.19177 0.49746,-0.34722 1.11111,-0.34722c0.61365,0 1.11111,0.15546 1.11111,0.34722z" fill="none" stroke="#3e3e3e" stroke-width="1" stroke-linecap="butt"/><g fill="#191919" stroke="#2b2b2b" stroke-width="1" stroke-linecap="butt"><path d="M231.95141,208.72964l-0.28115,-2.24916l8.53359,-1.0667l0.28115,2.24916z"/><path d="M235.50708,210.83823l-0.27288,-2.18301l1.7861,-0.22326l0.27288,2.18301z"/><path d="M231.57104,206.22414l-0.92613,-7.40901l2.38147,-0.29768l0.92613,7.40901z"/></g><path d="M239.0554,196.42925l3.4,2.2" fill="none" stroke="#843939" stroke-width="1" stroke-linecap="round"/><path d="M234.04838,205.5792l-1.53276,-11.49829l6.01347,-0.80163l1.53276,11.49829z" fill="#ff4949" stroke="#000000" stroke-width="1" stroke-linecap="butt"/><path d="M239.2554,198.16257l3.4,2.2" fill="none" stroke="#843939" stroke-width="1" stroke-linecap="round"/><path d="M247.63938,193.57857c0,1.57967 -0.18073,4.05385 -1.71148,5.1103c-1.61611,1.11536 -4.64986,0.7697 -7.16852,0.7697c-2.13941,0 -5.58211,-0.14097 -7.11515,-0.97543c-1.98123,-1.07841 -1.76485,-3.07377 -1.76485,-4.90457c0,-3.24743 1.21571,-6.24 6.12,-6.24c2.98195,0 7.68099,-0.85365 10.09131,0.74366c1.55382,1.02971 1.5487,4.22345 1.5487,5.49634z" fill-opacity="0.21961" fill="#00b3bd" stroke="none" stroke-width="0" stroke-linecap="butt"/></g><g><path d="M230.29128,223.4395v-8.4h14.06667v8.4z" fill="#bdbdbd" stroke="#000000" stroke-width="0.5" stroke-linecap="butt"/><path d="M231.03795,223.17283v-7.46666h12.6v7.46666z" fill="#00b3bd" stroke="#000000" stroke-width="0.5" stroke-linecap="butt"/><path d="M230.42461,224.97283v-1.53333h13.93334v1.53333z" fill="#ffffff" stroke="#000000" stroke-width="0.5" stroke-linecap="butt"/><path d="M240.89129,231.90618l-2.33333,-2.4" fill="none" stroke="#843939" stroke-width="1" stroke-linecap="round"/><path d="M239.2913,232.70618l-2.4,-1.8" fill="none" stroke="#843939" stroke-width="1" stroke-linecap="round"/><path d="M227.26641,226.9238c0,0 0.17348,8.46795 -0.02411,8.47723c-0.22209,0.01043 -0.45817,-0.00272 -0.45913,-0.10567c-0.00932,-1.00213 -0.08604,-9.2468 -0.08604,-9.2468l20.53572,-0.07738c0,0 0.07687,8.39507 0.08611,9.40403c0.00088,0.09564 -0.19375,0.12264 -0.39085,0.12546c-0.2017,0.0029 -0.40598,-8.5395 -0.40598,-8.5395" fill="none" stroke="#bdbdbd" stroke-width="2" stroke-linecap="round"/><path d="M228.74019,224.58785c0,0.19177 -0.49746,0.34722 -1.11111,0.34722c-0.61365,0 -1.11111,-0.15546 -1.11111,-0.34722c0,-0.19177 0.49746,-0.34722 1.11111,-0.34722c0.61365,0 1.11111,0.15546 1.11111,0.34722z" fill="none" stroke="#3e3e3e" stroke-width="1" stroke-linecap="butt"/><g fill="#191919" stroke="#2b2b2b" stroke-width="1" stroke-linecap="butt"><path d="M230.72064,234.80657l-0.28115,-2.24916l8.53359,-1.0667l0.28115,2.24916z"/><path d="M234.27631,236.91516l-0.27288,-2.18301l1.7861,-0.22326l0.27288,2.18301z"/><path d="M230.34027,232.30107l-0.92613,-7.40901l2.38147,-0.29768l0.92613,7.40901z"/></g><path d="M237.82463,222.50618l3.4,2.2" fill="none" stroke="#843939" stroke-width="1" stroke-linecap="round"/><path d="M232.81761,231.65613l-1.53276,-11.49829l6.01347,-0.80163l1.53276,11.49829z" fill="#ff4949" stroke="#000000" stroke-width="1" stroke-linecap="butt"/><path d="M238.02463,224.2395l3.4,2.2" fill="none" stroke="#843939" stroke-width="1" stroke-linecap="round"/><path d="M246.40861,219.6555c0,1.57967 -0.18073,4.05385 -1.71148,5.1103c-1.61611,1.11536 -4.64986,0.7697 -7.16852,0.7697c-2.13941,0 -5.58211,-0.14097 -7.11515,-0.97543c-1.98123,-1.07841 -1.76485,-3.07377 -1.76485,-4.90457c0,-3.24743 1.21571,-6.24 6.12,-6.24c2.98195,0 7.68099,-0.85365 10.09131,0.74366c1.55382,1.02971 1.5487,4.22345 1.5487,5.49634z" fill-opacity="0.21961" fill="#00b3bd" stroke="none" stroke-width="0" stroke-linecap="butt"/></g><g><path d="M229.75281,248.82412v-8.4h14.06667v8.4z" fill="#bdbdbd" stroke="#000000" stroke-width="0.5" stroke-linecap="butt"/><path d="M230.49948,248.55745v-7.46666h12.6v7.46666z" fill="#00b3bd" stroke="#000000" stroke-width="0.5" stroke-linecap="butt"/><path d="M229.88614,250.35745v-1.53333h13.93334v1.53333z" fill="#ffffff" stroke="#000000" stroke-width="0.5" stroke-linecap="butt"/><path d="M238.01949,254.8908l2.33333,2.4" fill="none" stroke="#843939" stroke-width="1" stroke-linecap="round"/><path d="M236.35283,256.2908l2.4,1.8" fill="none" stroke="#843939" stroke-width="1" stroke-linecap="round"/><path d="M226.72794,252.30842c0,0 0.17348,8.46795 -0.02411,8.47723c-0.22209,0.01043 -0.45817,-0.00272 -0.45913,-0.10567c-0.00932,-1.00213 -0.08604,-9.2468 -0.08604,-9.2468l20.53572,-0.07738c0,0 0.07687,8.39507 0.08611,9.40403c0.00088,0.09564 -0.19375,0.12264 -0.39085,0.12546c-0.2017,0.0029 -0.40598,-8.5395 -0.40598,-8.5395" fill="none" stroke="#bdbdbd" stroke-width="2" stroke-linecap="round"/><path d="M228.20172,249.97247c0,0.19177 -0.49746,0.34722 -1.11111,0.34722c-0.61365,0 -1.11111,-0.15546 -1.11111,-0.34722c0,-0.19177 0.49746,-0.34722 1.11111,-0.34722c0.61365,0 1.11111,0.15546 1.11111,0.34722z" fill="none" stroke="#3e3e3e" stroke-width="1" stroke-linecap="butt"/><g fill="#191919" stroke="#2b2b2b" stroke-width="1" stroke-linecap="butt"><path d="M230.18217,260.19119l-0.28115,-2.24916l8.53359,-1.0667l0.28115,2.24916z"/><path d="M233.73784,262.29978l-0.27288,-2.18301l1.7861,-0.22326l0.27288,2.18301z"/><path d="M229.8018,257.68569l-0.92613,-7.40901l2.38147,-0.29768l0.92613,7.40901z"/></g><path d="M237.28616,247.8908l3.4,2.2" fill="none" stroke="#843939" stroke-width="1" stroke-linecap="round"/><path d="M232.27914,257.04075l-1.53276,-11.49829l6.01347,-0.80163l1.53276,11.49829z" fill="#ff4949" stroke="#000000" stroke-width="1" stroke-linecap="butt"/><path d="M240.88616,251.82412l-3.4,-2.2" fill="none" stroke="#843939" stroke-width="1" stroke-linecap="round"/><path d="M245.87014,245.04012c0,1.57967 -0.18073,4.05385 -1.71148,5.1103c-1.61611,1.11536 -4.64986,0.7697 -7.16852,0.7697c-2.13941,0 -5.58211,-0.14097 -7.11515,-0.97543c-1.98123,-1.07841 -1.76485,-3.07377 -1.76485,-4.90457c0,-3.24743 1.21571,-6.24 6.12,-6.24c2.98195,0 7.68099,-0.85365 10.09131,0.74366c1.55382,1.02971 1.5487,4.22345 1.5487,5.49634z" fill-opacity="0.21961" fill="#00b3bd" stroke="none" stroke-width="0" stroke-linecap="butt"/></g></g></g></svg>