<svg version="1.1" xmlns="http://www.w3.org/2000/svg" xmlns:xlink="http://www.w3.org/1999/xlink" width="110.36963" height="59.2" viewBox="0,0,110.36963,59.2"><g transform="translate(-124.83037,-290.4)"><g stroke-miterlimit="10"><path d="M125.83037,342.28005c0.05595,-11.81124 0.16963,-36.66605 0.16963,-43.60005c0,-3.51212 3.22139,-7.28 7.02,-7.28c11.68622,0 72.49849,0 93.8,0c4.6188,0 7.38,2.61746 7.38,6.68c0,12.11069 0,37.06345 0,43.8c0,3.28239 -2.52448,6.72 -6.78,6.72c-20.43588,0 -80.79172,0 -93.2,0c-4.35074,0 -8.40789,-2.46539 -8.38964,-6.31995z" fill="#a0a0a0" stroke="#000000" stroke-width="2" stroke-linecap="butt" stroke-linejoin="miter"/><text transform="translate(131.42,309.99322) scale(0.42085,0.42085)" font-size="40" xml:space="preserve" fill="#000000" stroke="none" stroke-width="1" stroke-linecap="butt" stroke-linejoin="miter" font-family="&quot;Comic Sans MS&quot;, Sans Serif" font-weight="normal" text-anchor="start"><tspan x="0" dy="0">Оцени игру</tspan></text><path d="M155.79254,330.71762l0.89124,1.14939l-0.25575,1.3666l-0.80621,1.02594l0.20261,1.31105l-0.63149,1.26012l-3.77161,1.6174l-1.38111,-0.04508l-6.47533,-2.45411l-5.11875,0.03506l-2.11358,-2.73884l-0.17868,-4.41985l3.09098,-2.11855l3.51263,1.42438l0.67502,-4.24753l0.11246,-4.94696l1.46278,-0.2852l1.20026,0.68363l0.46264,2.16905l-0.15871,3.27684l1.77757,3.21527l2.94005,0.04567l-2.36049,-0.65752l-0.57602,-1.19289l2.39412,-0.62338l4.22709,1.42009l1.27717,1.28543l0.13216,1.55889z" fill="#ffffff" stroke="#333b80" stroke-width="8" stroke-linecap="round" stroke-linejoin="round"/><path d="M155.79254,330.71762l0.89124,1.14939l-0.25575,1.3666l-0.80621,1.02594l0.20261,1.31105l-0.63149,1.26012l-3.77161,1.6174l-1.38111,-0.04508l-6.47533,-2.45411l-5.11875,0.03506l-2.11358,-2.73884l-0.17868,-4.41985l3.09098,-2.11855l3.51263,1.42438l0.67502,-4.24753l0.11246,-4.94696l1.46278,-0.2852l1.20026,0.68363l0.46264,2.16905l-0.15871,3.27684l1.77757,3.21527l2.94005,0.04567l-2.36049,-0.65752l-0.57602,-1.19289l2.39412,-0.62338l4.22709,1.42009l1.27717,1.28543l0.13216,1.55889z" fill="#ffffff" stroke="none" stroke-width="0" stroke-linecap="round" stroke-linejoin="round"/><path d="M190.18915,331.65296l0.99093,1.27795l-0.28436,1.51946l-0.89638,1.14069l0.22527,1.45769l-0.70213,1.40107l-4.19347,1.7983l-1.53558,-0.05013l-7.19961,-2.72861l-5.69129,0.03898l-2.34999,-3.04518l-0.19866,-4.91422l3.43671,-2.35551l3.90553,1.5837l0.75052,-4.72263l0.12504,-5.50028l1.62639,-0.3171l1.33452,0.76009l0.51439,2.41166l-0.17646,3.64336l1.9764,3.57491l3.2689,0.05078l-2.62451,-0.73106l-0.64044,-1.32631l2.66191,-0.6931l4.69989,1.57893l1.42003,1.42921l0.14694,1.73326z" fill="#ffffff" stroke="#333b80" stroke-width="8" stroke-linecap="round" stroke-linejoin="round"/><path d="M190.18915,331.65296l0.99093,1.27795l-0.28436,1.51946l-0.89638,1.14069l0.22527,1.45769l-0.70213,1.40107l-4.19347,1.7983l-1.53558,-0.05013l-7.19961,-2.72861l-5.69129,0.03898l-2.34999,-3.04518l-0.19866,-4.91422l3.43671,-2.35551l3.90553,1.5837l0.75052,-4.72263l0.12504,-5.50028l1.62639,-0.3171l1.33452,0.76009l0.51439,2.41166l-0.17646,3.64336l1.9764,3.57491l3.2689,0.05078l-2.62451,-0.73106l-0.64044,-1.32631l2.66191,-0.6931l4.69989,1.57893l1.42003,1.42921l0.14694,1.73326z" fill="#ffffff" stroke="none" stroke-width="0" stroke-linecap="round" stroke-linejoin="round"/></g></g></svg>