<svg version="1.1" xmlns="http://www.w3.org/2000/svg" xmlns:xlink="http://www.w3.org/1999/xlink" width="135.50222" height="58.67848" viewBox="0,0,135.50222,58.67848"><g transform="translate(-175.41695,-141.77276)"><g stroke-width="2" stroke-miterlimit="10"><path d="M190.53934,199.40421l31.06235,-22.55565h39.82683l32.73791,21.00898z" fill="#191919" stroke="#000000" stroke-linecap="butt"/><g fill="#00ff09" stroke="#000000" stroke-linecap="butt"><path d="M222.40109,179.27276v-3.25h37.625v3.25z"/><path d="M222.02609,165.64776v-10.875h13.75v10.875z"/><path d="M241.27609,170.39776v-7h14.625v7z"/><path d="M247.77609,158.14776v-6.75h16.5v6.75z"/><path d="M226.02609,149.77276v-7h14.375v7z"/></g><path d="M236.10667,191.7267l-0.13333,-4.66667" fill="none" stroke="#803333" stroke-linecap="round"/><path d="M242.97334,186.46003l0.13333,5.2" fill="none" stroke="#803333" stroke-linecap="round"/><path d="M254.82717,175.90003l-3.35766,3.60331" fill="none" stroke="#803333" stroke-linecap="round"/><path d="M226.6868,176.66346l1.58975,2.22646" fill="none" stroke="#803333" stroke-linecap="round"/><path d="M228.7,186.43337v-12.86667h22.6v12.86667z" fill="#ff6666" stroke="#000000" stroke-linecap="butt"/><g fill="#00ff09" stroke="#000000" stroke-linecap="butt"><path d="M192.94855,197.88428l-1.71275,-2.76206l31.97619,-19.82837l1.71275,2.76206z"/><path d="M185.44947,186.50249l-5.73112,-9.24229l11.68565,-7.24625l5.73112,9.24229z"/><path d="M204.31263,180.3946l-3.689,-5.94906l12.42928,-7.70737l3.689,5.94906z"/><path d="M203.38101,166.55825l-3.55725,-5.73659l14.02278,-8.6955l3.55725,5.73659z"/><path d="M180.48281,170.90287l-3.689,-5.94906l12.21681,-7.57562l3.689,5.94906z"/></g><g fill="#00ff09" stroke="#000000" stroke-linecap="butt"><path d="M259.80979,179.32404l1.39151,-2.93704l34.00187,16.10943l-1.39151,2.93704z"/><path d="M265.30455,166.85052l4.65621,-9.82778l12.42593,5.88717l-4.65621,9.82778z"/><path d="M280.6671,179.38514l2.99711,-6.32593l13.21667,6.26181l-2.9971,6.32593z"/><path d="M291.78611,171.0978l2.89007,-6.10001l14.91112,7.0646l-2.89006,6.1z"/><path d="M275.71637,154.21685l2.99711,-6.32593l12.99075,6.15477l-2.99711,6.32593z"/></g></g></g></svg>