<svg version="1.1" xmlns="http://www.w3.org/2000/svg" xmlns:xlink="http://www.w3.org/1999/xlink" width="22.87832" height="50.48273" viewBox="0,0,22.87832,50.48273"><g transform="translate(-228.43603,-167.93918)"><g stroke-miterlimit="10"><g><path d="M244.78143,190.79633v-8.85715h3.92857v8.85715z" fill="#131313" stroke="#000000" stroke-width="1" stroke-linecap="butt"/><path d="M232.78143,179.86775v-9.42857h15.14285v9.42857z" fill="#000000" stroke="#000000" stroke-width="0.5" stroke-linecap="butt"/><path d="M233.21,179.36775v-8.28571h14.14285v8.28571z" fill="#5aff00" stroke="#000000" stroke-width="0.5" stroke-linecap="butt"/><path d="M243.97283,186.85478l-2.33333,-2.4" fill="none" stroke="#843939" stroke-width="1" stroke-linecap="round"/><path d="M239.97284,185.85478l2.4,1.8" fill="none" stroke="#131313" stroke-width="1" stroke-linecap="round"/><path d="M230.34795,181.8724c0,0 0.17348,8.46795 -0.02411,8.47723c-0.22209,0.01043 -0.45817,-0.00272 -0.45913,-0.10567c-0.00932,-1.00213 -0.08604,-9.2468 -0.08604,-9.2468l20.53572,-0.07738c0,0 0.07687,8.39507 0.08611,9.40403c0.00088,0.09564 -0.19375,0.12264 -0.39085,0.12546c-0.2017,0.0029 -0.40598,-8.5395 -0.40598,-8.5395" fill="none" stroke="#131313" stroke-width="2" stroke-linecap="round"/><path d="M231.82173,179.53645c0,0.19177 -0.49746,0.34722 -1.11111,0.34722c-0.61365,0 -1.11111,-0.15546 -1.11111,-0.34722c0,-0.19177 0.49746,-0.34722 1.11111,-0.34722c0.61365,0 1.11111,0.15546 1.11111,0.34722z" fill="none" stroke="#3e3e3e" stroke-width="1" stroke-linecap="butt"/><g fill="#191919" stroke="#2b2b2b" stroke-width="1" stroke-linecap="butt"><path d="M233.80218,189.75517l-0.28115,-2.24916l8.53359,-1.0667l0.28115,2.24916z"/><path d="M237.35785,191.86376l-0.27288,-2.18301l1.7861,-0.22326l0.27288,2.18301z"/><path d="M233.42181,187.24967l-0.92613,-7.40901l2.38147,-0.29768l0.92613,7.40901z"/></g><path d="M240.90617,177.45478l3.4,2.2" fill="none" stroke="#843939" stroke-width="1" stroke-linecap="round"/><path d="M235.89915,186.60473l-1.53276,-11.49829l6.01347,-0.80163c0,0 0.7765,5.82509 1.05946,7.94776c0.18912,1.41876 0.4733,3.55053 0.4733,3.55053z" fill="#ff4949" stroke="#000000" stroke-width="1" stroke-linecap="butt"/><path d="M241.10617,179.1881l3.4,2.2" fill="none" stroke="#843939" stroke-width="1" stroke-linecap="round"/><path d="M248.78143,174.76061c0,3.72792 -2.22331,6.67857 -9.10715,6.67857c-6.88384,0 -7.89285,-3.23636 -7.89285,-6.96428c0,-3.72792 1.00902,-6.53572 7.89285,-6.53572c6.88384,0 9.10715,3.09351 9.10715,6.82143z" fill-opacity="0.31373" fill="#59ff00" stroke="none" stroke-width="0" stroke-linecap="butt"/><path d="M247.49571,183.36775h-1.57143" fill="none" stroke="#2b2b2b" stroke-width="1" stroke-linecap="round"/><path d="M245.85285,184.86775l1.64286,-0.07143" fill="none" stroke="#2b2b2b" stroke-width="1" stroke-linecap="round"/></g><g><path d="M244.4481,216.79633v-8.85715h3.92857v8.85715z" fill="#131313" stroke="#000000" stroke-width="1" stroke-linecap="butt"/><path d="M232.4481,205.86775v-9.42857h15.14285v9.42857z" fill="#000000" stroke="#000000" stroke-width="0.5" stroke-linecap="butt"/><path d="M232.87667,205.36775v-8.28571h14.14285v8.28571z" fill="#5aff00" stroke="#000000" stroke-width="0.5" stroke-linecap="butt"/><path d="M241.30617,210.45478l2.33333,2.4" fill="none" stroke="#843939" stroke-width="1" stroke-linecap="round"/><path d="M242.03951,213.65478l-2.4,-1.8" fill="none" stroke="#131313" stroke-width="1" stroke-linecap="round"/><path d="M230.01462,207.8724c0,0 0.17348,8.46795 -0.02411,8.47723c-0.22209,0.01043 -0.45817,-0.00272 -0.45913,-0.10567c-0.00932,-1.00213 -0.08604,-9.2468 -0.08604,-9.2468l20.53572,-0.07738c0,0 0.07687,8.39507 0.08611,9.40403c0.00088,0.09564 -0.19375,0.12264 -0.39085,0.12546c-0.2017,0.0029 -0.40598,-8.5395 -0.40598,-8.5395" fill="none" stroke="#131313" stroke-width="2" stroke-linecap="round"/><path d="M231.4884,205.53645c0,0.19177 -0.49746,0.34722 -1.11111,0.34722c-0.61365,0 -1.11111,-0.15546 -1.11111,-0.34722c0,-0.19177 0.49746,-0.34722 1.11111,-0.34722c0.61365,0 1.11111,0.15546 1.11111,0.34722z" fill="none" stroke="#3e3e3e" stroke-width="1" stroke-linecap="butt"/><g fill="#191919" stroke="#2b2b2b" stroke-width="1" stroke-linecap="butt"><path d="M233.46885,215.75517l-0.28115,-2.24916l8.53359,-1.0667l0.28115,2.24916z"/><path d="M237.02452,217.86376l-0.27288,-2.18301l1.7861,-0.22326l0.27288,2.18301z"/><path d="M233.08848,213.24967l-0.92613,-7.40901l2.38147,-0.29768l0.92613,7.40901z"/></g><path d="M243.97284,205.65478l-3.4,-2.2" fill="none" stroke="#843939" stroke-width="1" stroke-linecap="round"/><path d="M235.56582,212.60473l-1.53276,-11.49829l6.01347,-0.80163c0,0 0.7765,5.82509 1.05946,7.94776c0.18912,1.41876 0.4733,3.55053 0.4733,3.55053z" fill="#ff4949" stroke="#000000" stroke-width="1" stroke-linecap="butt"/><path d="M240.77284,205.1881l3.4,2.2" fill="none" stroke="#843939" stroke-width="1" stroke-linecap="round"/><path d="M248.4481,200.76061c0,3.72792 -2.22331,6.67857 -9.10715,6.67857c-6.88384,0 -7.89285,-3.23636 -7.89285,-6.96428c0,-3.72792 1.00902,-6.53572 7.89285,-6.53572c6.88384,0 9.10715,3.09351 9.10715,6.82143z" fill-opacity="0.31373" fill="#59ff00" stroke="none" stroke-width="0" stroke-linecap="butt"/><path d="M247.16238,209.36775h-1.57143" fill="none" stroke="#2b2b2b" stroke-width="1" stroke-linecap="round"/><path d="M245.51952,210.86775l1.64286,-0.07143" fill="none" stroke="#2b2b2b" stroke-width="1" stroke-linecap="round"/></g></g></g></svg>