<svg version="1.1" xmlns="http://www.w3.org/2000/svg" xmlns:xlink="http://www.w3.org/1999/xlink" width="485.5" height="362" viewBox="0,0,485.5,362"><g transform="translate(2.29999,1.20001)"><g stroke-miterlimit="10"><path d="M-0.79999,360.79999v-362h484v362z" fill="#fffbe8" stroke="none" stroke-width="none" stroke-linecap="butt"/><path d="M0.20001,49.79999h52" fill="none" stroke="#000000" stroke-width="5" stroke-linecap="round"/><path d="M83.20001,73.79999h57" fill="none" stroke="#000000" stroke-width="5" stroke-linecap="round"/><path d="M187.20001,39.79999h46" fill="none" stroke="#000000" stroke-width="5" stroke-linecap="round"/><path d="M275.20001,155.79999h55" fill="none" stroke="#000000" stroke-width="5" stroke-linecap="round"/><path d="M367.20001,78.79999h34" fill="none" stroke="#000000" stroke-width="5" stroke-linecap="round"/><path d="M387.20001,11.79999h45" fill="none" stroke="#000000" stroke-width="5" stroke-linecap="round"/><path d="M87.20001,152.79999h36" fill="none" stroke="#000000" stroke-width="5" stroke-linecap="round"/><path d="M205.20001,213.79999h54" fill="none" stroke="#000000" stroke-width="5" stroke-linecap="round"/><path d="M196.20001,123.79999h35" fill="none" stroke="#000000" stroke-width="5" stroke-linecap="round"/><path d="M27.20001,201.79999h40" fill="none" stroke="#000000" stroke-width="5" stroke-linecap="round"/><path d="M58.20001,241.79999h50" fill="none" stroke="#000000" stroke-width="5" stroke-linecap="round"/><path d="M104.20001,198.79999h33" fill="none" stroke="#000000" stroke-width="5" stroke-linecap="round"/><path d="M328.20001,279.79999h63" fill="none" stroke="#000000" stroke-width="5" stroke-linecap="round"/><path d="M363.20001,194.79999h46" fill="none" stroke="#000000" stroke-width="5" stroke-linecap="round"/><path d="M322.20001,226.79999h49" fill="none" stroke="#000000" stroke-width="5" stroke-linecap="round"/><path d="M407.20001,141.79999h30" fill="none" stroke="#000000" stroke-width="5" stroke-linecap="round"/><path d="M416.20001,94.79999h40" fill="none" stroke="#000000" stroke-width="5" stroke-linecap="round"/><path d="M272.20001,74.79999h34" fill="none" stroke="#000000" stroke-width="5" stroke-linecap="round"/><path d="M70.20001,309.79999h32" fill="none" stroke="#000000" stroke-width="5" stroke-linecap="round"/><path d="M142.20001,274.79999h51" fill="none" stroke="#000000" stroke-width="5" stroke-linecap="round"/><path d="M196.20001,311.79999h92" fill="none" stroke="#000000" stroke-width="5" stroke-linecap="round"/><path d="M322.20001,329.79999h52" fill="none" stroke="#000000" stroke-width="5" stroke-linecap="round"/></g></g></svg>