<svg version="1.1" xmlns="http://www.w3.org/2000/svg" xmlns:xlink="http://www.w3.org/1999/xlink" width="24.70335" height="75.51715" viewBox="0,0,24.70335,75.51715"><g transform="translate(-225.8032,-162.86001)"><g stroke-miterlimit="10"><path d="M242.50667,181.06002l-2.33333,-2.4" fill="none" stroke="#843939" stroke-width="1" stroke-linecap="round"/><path d="M238.50668,180.06002l2.4,1.8" fill="none" stroke="#843939" stroke-width="1" stroke-linecap="round"/><path d="M246.63334,173.49168c0,0 3.192,0.80169 3.12208,1.48695c-0.06895,0.67572 -1.95541,1.67972 -1.95541,1.67972" fill="none" stroke="#3c3c3c" stroke-width="1.5" stroke-linecap="round"/><path d="M244.30001,184.90836v-8.5h3.16666v8.5z" fill="#2b2b2b" stroke="#3c3c3c" stroke-width="1.5" stroke-linecap="butt"/><path d="M228.40179,184.79764l-0.08928,-9.59524l20.53572,-0.07738l0.08928,9.75" fill="none" stroke="#804d33" stroke-width="2" stroke-linecap="round"/><path d="M233.38335,173.57502v-9.75001h12.66667v9.75001z" fill="#04ff00" stroke="#3c3c3c" stroke-width="1.5" stroke-linecap="butt"/><path d="M230.35557,173.74169c0,0.19177 -0.49746,0.34722 -1.11111,0.34722c-0.61365,0 -1.11111,-0.15546 -1.11111,-0.34722c0,-0.19177 0.49746,-0.34722 1.11111,-0.34722c0.61365,0 1.11111,0.15546 1.11111,0.34722z" fill="none" stroke="#3e3e3e" stroke-width="1" stroke-linecap="butt"/><g fill="#191919" stroke="#2b2b2b" stroke-width="1" stroke-linecap="butt"><path d="M232.33602,183.96041l-0.28115,-2.24916l8.53359,-1.0667l0.28115,2.24916z"/><path d="M235.89169,186.069l-0.27288,-2.18301l1.7861,-0.22326l0.27288,2.18301z"/><path d="M231.95565,181.45491l-0.92613,-7.40901l2.38147,-0.29768l0.92613,7.40901z"/></g><path d="M239.44001,171.66002l3.4,2.2" fill="none" stroke="#843939" stroke-width="1" stroke-linecap="round"/><path d="M234.43299,180.80997l-1.53276,-11.49829l6.01347,-0.80163l1.53276,11.49829z" fill="#ff4949" stroke="#000000" stroke-width="1" stroke-linecap="butt"/><path d="M243.04001,175.59334l-3.4,-2.2" fill="none" stroke="#843939" stroke-width="1" stroke-linecap="round"/><path d="M247.44001,169.12668c0,2.24658 -1.42989,4.3781 -4.00953,5.12948c-1.39444,0.40616 -3.45515,-0.06282 -5.05713,-0.06282c-4.56555,0 -6,-3.33901 -6,-6.8c0,-3.46098 2.23445,-4.53333 6.8,-4.53333c2.68864,0 5.21082,0.173 6.72055,1.67985c1.05393,1.05192 1.54611,3.16399 1.54611,4.58682z" fill-opacity="0.21569" fill="#04ff00" stroke="none" stroke-width="0" stroke-linecap="butt"/><path d="M238.67334,204.28502l2.33333,2.4" fill="none" stroke="#843939" stroke-width="1" stroke-linecap="round"/><path d="M237.00668,205.68502l2.4,1.8" fill="none" stroke="#843939" stroke-width="1" stroke-linecap="round"/><path d="M245.13334,199.11668c0,0 3.192,0.80169 3.12208,1.48695c-0.06895,0.67572 -1.95541,1.67972 -1.95541,1.67972" fill="none" stroke="#3c3c3c" stroke-width="1.5" stroke-linecap="round"/><path d="M242.80001,210.53336v-8.5h3.16666v8.5z" fill="#2b2b2b" stroke="#3c3c3c" stroke-width="1.5" stroke-linecap="butt"/><path d="M226.90179,210.42264l-0.08928,-9.59524l20.53572,-0.07738l0.08928,9.75" fill="none" stroke="#804d33" stroke-width="2" stroke-linecap="round"/><path d="M231.88335,199.20002v-9.75001h12.66667v9.75001z" fill="#04ff00" stroke="#3c3c3c" stroke-width="1.5" stroke-linecap="butt"/><path d="M228.85557,199.36669c0,0.19177 -0.49746,0.34722 -1.11111,0.34722c-0.61365,0 -1.11111,-0.15546 -1.11111,-0.34722c0,-0.19177 0.49746,-0.34722 1.11111,-0.34722c0.61365,0 1.11111,0.15546 1.11111,0.34722z" fill="none" stroke="#3e3e3e" stroke-width="1" stroke-linecap="butt"/><g fill="#191919" stroke="#2b2b2b" stroke-width="1" stroke-linecap="butt"><path d="M230.83602,209.58541l-0.28115,-2.24916l8.53359,-1.0667l0.28115,2.24916z"/><path d="M234.39169,211.694l-0.27288,-2.18301l1.7861,-0.22326l0.27288,2.18301z"/><path d="M230.45565,207.07991l-0.92613,-7.40901l2.38147,-0.29768l0.92613,7.40901z"/></g><path d="M241.34001,199.48502l-3.4,-2.2" fill="none" stroke="#843939" stroke-width="1" stroke-linecap="round"/><path d="M232.93299,206.43497l-1.53276,-11.49829l6.01347,-0.80163l1.53276,11.49829z" fill="#ff4949" stroke="#000000" stroke-width="1" stroke-linecap="butt"/><path d="M241.54001,201.21834l-3.4,-2.2" fill="none" stroke="#843939" stroke-width="1" stroke-linecap="round"/><path d="M245.94001,194.75168c0,2.24658 -1.42989,4.3781 -4.00953,5.12948c-1.39444,0.40616 -3.45515,-0.06282 -5.05713,-0.06282c-4.56555,0 -6,-3.33901 -6,-6.8c0,-3.46098 2.23445,-4.53333 6.8,-4.53333c2.68864,0 5.21082,0.173 6.72055,1.67985c1.05393,1.05192 1.54611,3.16399 1.54611,4.58682z" fill-opacity="0.21569" fill="#04ff00" stroke="none" stroke-width="0" stroke-linecap="butt"/><path d="M241.63167,232.81002l-2.33333,-2.4" fill="none" stroke="#843939" stroke-width="1" stroke-linecap="round"/><path d="M237.63168,231.81002l2.4,1.8" fill="none" stroke="#843939" stroke-width="1" stroke-linecap="round"/><path d="M245.75834,225.24168c0,0 3.192,0.80169 3.12208,1.48695c-0.06895,0.67572 -1.95541,1.67972 -1.95541,1.67972" fill="none" stroke="#3c3c3c" stroke-width="1.5" stroke-linecap="round"/><path d="M243.42501,236.65836v-8.5h3.16666v8.5z" fill="#2b2b2b" stroke="#3c3c3c" stroke-width="1.5" stroke-linecap="butt"/><path d="M227.52679,236.54764l-0.08928,-9.59524l20.53572,-0.07738l0.08928,9.75" fill="none" stroke="#804d33" stroke-width="2" stroke-linecap="round"/><path d="M232.50835,225.32502v-9.75001h12.66667v9.75001z" fill="#04ff00" stroke="#3c3c3c" stroke-width="1.5" stroke-linecap="butt"/><path d="M229.48057,225.49169c0,0.19177 -0.49746,0.34722 -1.11111,0.34722c-0.61365,0 -1.11111,-0.15546 -1.11111,-0.34722c0,-0.19177 0.49746,-0.34722 1.11111,-0.34722c0.61365,0 1.11111,0.15546 1.11111,0.34722z" fill="none" stroke="#3e3e3e" stroke-width="1" stroke-linecap="butt"/><g fill="#191919" stroke="#2b2b2b" stroke-width="1" stroke-linecap="butt"><path d="M231.46102,235.71041l-0.28115,-2.24916l8.53359,-1.0667l0.28115,2.24916z"/><path d="M235.01669,237.819l-0.27288,-2.18301l1.7861,-0.22326l0.27288,2.18301z"/><path d="M231.08065,233.20491l-0.92613,-7.40901l2.38147,-0.29768l0.92613,7.40901z"/></g><path d="M241.96501,225.61002l-3.4,-2.2" fill="none" stroke="#843939" stroke-width="1" stroke-linecap="round"/><path d="M233.55799,232.55997l-1.53276,-11.49829l6.01347,-0.80163l1.53276,11.49829z" fill="#ff4949" stroke="#000000" stroke-width="1" stroke-linecap="butt"/><path d="M238.76501,225.14334l3.4,2.2" fill="none" stroke="#843939" stroke-width="1" stroke-linecap="round"/><path d="M246.56501,220.87668c0,2.24658 -1.42989,4.3781 -4.00953,5.12948c-1.39444,0.40616 -3.45515,-0.06282 -5.05713,-0.06282c-4.56555,0 -6,-3.33901 -6,-6.8c0,-3.46098 2.23445,-4.53333 6.8,-4.53333c2.68864,0 5.21082,0.173 6.72055,1.67985c1.05393,1.05192 1.54611,3.16399 1.54611,4.58682z" fill-opacity="0.21569" fill="#04ff00" stroke="none" stroke-width="0" stroke-linecap="butt"/></g></g></svg>