<svg version="1.1" xmlns="http://www.w3.org/2000/svg" xmlns:xlink="http://www.w3.org/1999/xlink" width="31.06666" height="20.16001" viewBox="0,0,31.06666,20.16001"><g transform="translate(-168.48167,-304.56667)"><g stroke-width="2" stroke-miterlimit="10"><path d="M179.34833,319.06001l0.13333,4.66667" fill="none" stroke="#803333" stroke-linecap="round"/><path d="M186.34833,318.46002l0.13333,5.2" fill="none" stroke="#803333" stroke-linecap="round"/><path d="M198.54833,314.39333l-3.8,-3.13333" fill="none" stroke="#803333" stroke-linecap="round"/><path d="M171.48167,311.59335l-2,1.86667" fill="none" stroke="#803333" stroke-linecap="round"/><path d="M172.075,318.43334v-12.86667h22.6v12.86667z" fill="#ff6666" stroke="#000000" stroke-linecap="butt"/><path d="M187.68166,314.92668c0,0 -3.01081,0.93333 -4.6,0.93333c-1.41204,0 -4.46666,-0.93333 -4.46666,-0.93333" fill="none" stroke="#000000" stroke-linecap="round"/><path d="M178.815,310.02669c0,0.53387 -0.44771,0.96667 -1,0.96667c-0.55229,0 -1,-0.43279 -1,-0.96667c0,-0.53387 0.44771,-0.96667 1,-0.96667c0.55229,0 1,0.43279 1,0.96667z" fill="none" stroke="#000000" stroke-linecap="butt"/><path d="M190.015,310.16002c0,0.53387 -0.44771,0.96667 -1,0.96667c-0.55229,0 -1,-0.43279 -1,-0.96667c0,-0.53387 0.44771,-0.96667 1,-0.96667c0.55229,0 1,0.43279 1,0.96667z" fill="none" stroke="#000000" stroke-linecap="butt"/></g></g></svg>