<svg version="1.1" xmlns="http://www.w3.org/2000/svg" xmlns:xlink="http://www.w3.org/1999/xlink" width="489.5" height="369.5" viewBox="0,0,489.5,369.5"><defs><linearGradient x1="196.11429" y1="158.98476" x2="196.11429" y2="163.65143" gradientUnits="userSpaceOnUse" id="color-1"><stop offset="0" stop-color="#9966ff"/><stop offset="1" stop-color="#803333"/></linearGradient><linearGradient x1="203.11429" y1="158.38476" x2="203.11429" y2="163.58476" gradientUnits="userSpaceOnUse" id="color-2"><stop offset="0" stop-color="#9966ff"/><stop offset="1" stop-color="#803333"/></linearGradient></defs><g transform="translate(4.75,4.75)"><g stroke-miterlimit="10"><path d="M-4,364v-368h488v368z" fill="#004a4a" stroke="#ffffff" stroke-width="1.5" stroke-linecap="butt"/><path d="M-1.7,248.15v-18.5h385.5v18.5z" fill="#4a4a4a" stroke="none" stroke-width="0" stroke-linecap="butt"/><path d="M297.98925,192.4803c0,0 -2.57649,2.67391 -4.14701,3.45097c-2.13107,1.0544 -5.77447,0.34018 -7.75653,0.34018c-0.61338,0 -4.67217,-4.57028 -4.67217,-4.57028c0,0 2.04476,-28.71543 8.67217,-28.71543c6.62742,0 7.90354,29.49457 7.90354,29.49457z" fill-opacity="0.19216" fill="#fff800" stroke="#000000" stroke-width="2" stroke-linecap="butt"/><path d="M284.59119,209.74019l2.77599,-4.15859" fill="none" stroke="#000000" stroke-width="2" stroke-linecap="round"/><path d="M292.80001,203.12859l0.42857,5" fill="none" stroke="#000000" stroke-width="2" stroke-linecap="round"/><path d="M287.37144,183.27145v-7.14286" fill="none" stroke="#ffde00" stroke-width="2" stroke-linecap="round"/><path d="M292.37144,183.12858v-6.42857" fill="none" stroke="#ffde00" stroke-width="2" stroke-linecap="round"/><path d="M293.08573,189.84287c0,0 -2.26565,0.76052 -3.4184,0.78405c-1.17995,0.02408 -3.5816,-0.64119 -3.5816,-0.64119" fill="none" stroke="#ffde00" stroke-width="2" stroke-linecap="round"/><g fill="none" stroke="#8a8a8a" stroke-width="2" stroke-linecap="round"><path d="M294.94287,197.27145h-9.71429"/><path d="M294.94287,199.27145h-9.71429"/><path d="M294.94287,201.12859h-9.71429"/><path d="M285.22857,202.98574h9.71429"/></g><path d="M283.76,163.21143v-3h13.6v3z" fill="#000000" stroke="none" stroke-width="2" stroke-linecap="butt"/><path d="M286.56001,160.81143v-11.1h7.8v11.1z" fill="#000000" stroke="none" stroke-width="0" stroke-linecap="butt"/><path d="M228.69778,225.53476v-26.8h92.28889v26.8z" fill="#4a2700" stroke="none" stroke-width="0" stroke-linecap="butt"/><path d="M284.22857,196.84288l-3.85714,3.71429" fill="none" stroke="#000000" stroke-width="2" stroke-linecap="round"/><path d="M233.65575,221.92664l-0.04087,-5.49985l20.79937,-0.16867l1.94087,5.49985z" fill="#ffffff" stroke="#000000" stroke-width="2" stroke-linecap="butt"/><path d="M299.22857,200.55716l-4,-3.85714" fill="none" stroke="#000000" stroke-width="2" stroke-linecap="round"/><path d="M264.10478,204.90239v-9.11111h6.44444v9.11111z" fill="#ffffff" stroke="#000000" stroke-width="2" stroke-linecap="butt"/><path d="M270.54922,198.23572l3,0.11111l0.66667,2.88889l-2.77778,1.88889" fill="none" stroke="#000000" stroke-width="2" stroke-linecap="round"/><path d="M272.84822,213.50005l6.78575,-10.16545l6.19168,4.13314l-6.78575,10.16545z" fill="#ffffff" stroke="#000000" stroke-width="2" stroke-linecap="butt"/><path d="M279.65608,217.91091l6.78575,-10.16545l6.74616,4.50327l-6.78575,10.16545z" fill="#ffffff" stroke="#000000" stroke-width="2" stroke-linecap="butt"/><path d="M283.29307,216.86532l1.84826,1.23377" fill="none" stroke="#000000" stroke-width="2" stroke-linecap="round"/><path d="M286.80692,215.60394l-1.84826,-1.23377" fill="none" stroke="#000000" stroke-width="2" stroke-linecap="round"/><path d="M288.99651,212.9242l-2.1255,-1.41884" fill="none" stroke="#000000" stroke-width="2" stroke-linecap="round"/><path d="M228.54922,243.68017v-18.44445h93.66667v18.44445z" fill="#371e00" stroke="none" stroke-width="0" stroke-linecap="butt"/><path d="M326.99366,224.0135v0h1.33333v0z" fill="#371e00" stroke="none" stroke-width="0" stroke-linecap="butt"/><path d="M231.33501,221.94238v-5.5h22.7v5.5z" fill="#ffffff" stroke="#000000" stroke-width="2" stroke-linecap="butt"/><text transform="translate(234.23501,220.60736) scale(0.15202,0.09546)" font-size="40" xml:space="preserve" fill="#000000" stroke="none" stroke-width="1" stroke-linecap="butt" font-family="&quot;Comic Sans MS&quot;, Sans Serif" font-weight="normal" text-anchor="start"><tspan x="0" dy="0">БОСС</tspan></text><path d="M237.15715,167.65v-42h36.14754v42z" fill="#ffffff" stroke="#793b00" stroke-width="2.5" stroke-linecap="butt"/><path d="M181.72857,168.22142v-42h36.14754v42z" fill="#ffffff" stroke="#793b00" stroke-width="2.5" stroke-linecap="butt"/><text transform="translate(240.63841,133.67708) scale(0.1881,0.1881)" font-size="40" xml:space="preserve" fill="#000000" stroke="none" stroke-width="1" stroke-linecap="butt" font-family="&quot;Comic Sans MS&quot;, Sans Serif" font-weight="normal" text-anchor="start"><tspan x="0" dy="0">лучший</tspan></text><text transform="translate(240.92412,141.39086) scale(0.22529,0.22529)" font-size="40" xml:space="preserve" fill="#000000" stroke="none" stroke-width="1" stroke-linecap="butt" font-family="&quot;Comic Sans MS&quot;, Sans Serif" font-weight="normal" text-anchor="start"><tspan x="0" dy="0">Босс</tspan></text><path d="M257.18858,157.78286v-3h13.6v3z" fill="#fff800" stroke="none" stroke-width="2" stroke-linecap="butt"/><path d="M259.98858,155.38286v-11.1h7.8v11.1z" fill="#fff800" stroke="none" stroke-width="0" stroke-linecap="butt"/><path d="M270.58336,152.60798c0,3.96809 -2.83312,7.18487 -6.32796,7.18487c-1.60145,0 -2.64939,-2.79748 -5.48741,-4.03787c-3.35538,-1.46652 -8.4153,-1.55418 -8.4153,-3.70396c0,-1.8248 5.76562,-0.25391 8.4832,-1.39392c1.22499,-0.51388 3.30447,-1.15639 3.99869,-2.98869c1.1147,-2.94205 0.59177,-7.3694 1.75499,-7.3694c1.43499,0 1.14257,5.86196 2.13771,7.79431c1.42846,2.77377 3.85607,2.17587 3.85607,4.51465z" fill-opacity="0.16078" fill="#fff700" stroke="none" stroke-width="0" stroke-linecap="butt"/><path d="M241.20984,163.98571h11.14286" fill="none" stroke="#000000" stroke-width="1" stroke-linecap="round"/><text transform="translate(241.06698,163.05714) scale(0.0852,0.0852)" font-size="40" xml:space="preserve" fill="#000000" stroke="none" stroke-width="1" stroke-linecap="butt" font-family="&quot;Comic Sans MS&quot;, Sans Serif" font-weight="normal" text-anchor="start"><tspan x="0" dy="0">Ламп.Г</tspan></text><path d="M256.49555,164.41428l-1.28571,-1l2.71429,-1.85714l-2.57143,3.28571v-3.28571l3,3" fill="none" stroke="#000000" stroke-width="0.5" stroke-linecap="round"/><text transform="translate(183.92412,133.37857) scale(0.18116,0.18116)" font-size="40" xml:space="preserve" fill="#000000" stroke="none" stroke-width="1" stroke-linecap="butt" font-family="&quot;Comic Sans MS&quot;, Sans Serif" font-weight="normal" text-anchor="start"><tspan x="0" dy="0">работник</tspan></text><text transform="translate(184.20984,139.04885) scale(0.22212,0.22212)" font-size="40" xml:space="preserve" fill="#000000" stroke="none" stroke-width="1" stroke-linecap="butt" font-family="&quot;Comic Sans MS&quot;, Sans Serif" font-weight="normal" text-anchor="start"><tspan x="0" dy="0">месяца</tspan></text><path d="M196.04762,158.98476l0.13333,4.66667" fill="none" stroke="url(#color-1)" stroke-width="2" stroke-linecap="round"/><path d="M203.04762,158.38476l0.13333,5.2" fill="none" stroke="url(#color-2)" stroke-width="2" stroke-linecap="round"/><path d="M211.44762,151.18476l3.8,3.13333" fill="none" stroke="#803333" stroke-width="2" stroke-linecap="round"/><path d="M188.18096,151.51809l-2,1.86667" fill="none" stroke="#803333" stroke-width="2" stroke-linecap="round"/><path d="M188.77429,158.3581v-12.86667h22.6v12.86667z" fill="#ff6666" stroke="#000000" stroke-width="2" stroke-linecap="butt"/><path d="M204.38095,154.85143c0,0 -3.01081,0.93333 -4.6,0.93333c-1.41204,0 -4.46666,-0.93333 -4.46666,-0.93333" fill="none" stroke="#000000" stroke-width="2" stroke-linecap="round"/><path d="M195.51429,149.95143c0,0.53387 -0.44771,0.96667 -1,0.96667c-0.55229,0 -1,-0.43279 -1,-0.96667c0,-0.53387 0.44771,-0.96667 1,-0.96667c0.55229,0 1,0.43279 1,0.96667z" fill="none" stroke="#000000" stroke-width="2" stroke-linecap="butt"/><path d="M206.71429,150.08476c0,0.53387 -0.44771,0.96667 -1,0.96667c-0.55229,0 -1,-0.43279 -1,-0.96667c0,-0.53387 0.44771,-0.96667 1,-0.96667c0.55229,0 1,0.43279 1,0.96667z" fill="none" stroke="#000000" stroke-width="2" stroke-linecap="butt"/><path d="M187.97429,159.49977v-2.875h24v2.875z" fill="#9966ff" stroke="none" stroke-width="2" stroke-linecap="butt"/><path d="M194.09929,144.99977v-1.5h11.5v1.5z" fill="#9966ff" stroke="none" stroke-width="0" stroke-linecap="butt"/><path d="M203.97429,143.18727c0,0.79391 -1.90279,1.4375 -4.25,1.4375c-2.34721,0 -4.25,-0.64359 -4.25,-1.4375c0,-0.79391 1.77779,-2.6875 4.125,-2.6875c2.34721,0 4.375,1.89359 4.375,2.6875z" fill="#9966ff" stroke="none" stroke-width="0" stroke-linecap="butt"/></g></g></svg>