<svg version="1.1" xmlns="http://www.w3.org/2000/svg" xmlns:xlink="http://www.w3.org/1999/xlink" width="70.69521" height="51.25777" viewBox="0,0,70.69521,51.25777"><g transform="translate(-185.8,-141.98572)"><g stroke-miterlimit="10"><path d="M256.49521,188.65137c0,2.53616 -7.32525,4.59212 -16.36141,4.59212c-9.03615,0 -16.36141,-2.05596 -16.36141,-4.59212c0,-2.53616 7.32525,-4.59213 16.36141,-4.59213c9.03615,0 16.36141,2.05597 16.36141,4.59213z" fill-opacity="0.4902" fill="#000000" stroke="none" stroke-width="0" stroke-linecap="butt"/><path d="M247.98925,172.48028c0,0 -2.57649,2.67391 -4.14701,3.45097c-2.13107,1.0544 -5.77447,0.34018 -7.75653,0.34018c-0.61338,0 -4.67217,-4.57028 -4.67217,-4.57028c0,0 2.04476,-28.71543 8.67217,-28.71543c6.62742,0 7.90354,29.49457 7.90354,29.49457z" fill-opacity="0.19216" fill="#fff800" stroke="#000000" stroke-width="2" stroke-linecap="butt"/><path d="M237.22857,183.7v5" fill="none" stroke="#000000" stroke-width="2" stroke-linecap="round"/><path d="M242.8,183.12857l0.42857,5" fill="none" stroke="#000000" stroke-width="2" stroke-linecap="round"/><path d="M237.37143,156.12857v7.14286" fill="none" stroke="#ffde00" stroke-width="2" stroke-linecap="round"/><path d="M242.37143,156.7v6.42857" fill="none" stroke="#ffde00" stroke-width="2" stroke-linecap="round"/><path d="M243.08572,169.84285c0,0 -2.26565,0.76052 -3.4184,0.78405c-1.17995,0.02408 -3.5816,-0.64119 -3.5816,-0.64119" fill="none" stroke="#ffde00" stroke-width="2" stroke-linecap="round"/><path d="M234.22857,176.84286l-3.85714,3.71429" fill="none" stroke="#000000" stroke-width="2" stroke-linecap="round"/><path d="M245.22857,176.7l4,3.85714" fill="none" stroke="#000000" stroke-width="2" stroke-linecap="round"/><g fill="none" stroke="#8a8a8a" stroke-width="2" stroke-linecap="round"><path d="M244.94286,177.27143h-9.71429"/><path d="M244.94286,179.27143h-9.71429"/><path d="M235.22857,181.12857h9.71429"/><path d="M235.22857,182.98572h9.71429"/></g><path d="M186.8,187.12857v-29.85714h34.14286v29.85714z" fill-opacity="0.2" fill="#04ff00" stroke="#00ff15" stroke-width="2" stroke-linecap="butt"/></g></g></svg>