<svg version="1.1" xmlns="http://www.w3.org/2000/svg" xmlns:xlink="http://www.w3.org/1999/xlink" width="363.36336" height="644.14415" viewBox="0,0,363.36336,644.14415"><defs><linearGradient x1="296.07569" y1="249.98403" x2="296.07569" y2="258.41333" gradientUnits="userSpaceOnUse" id="color-1"><stop offset="0" stop-color="#9966ff"/><stop offset="1" stop-color="#803333"/></linearGradient><linearGradient x1="308.71963" y1="248.90027" x2="308.71963" y2="258.29292" gradientUnits="userSpaceOnUse" id="color-2"><stop offset="0" stop-color="#9966ff"/><stop offset="1" stop-color="#803333"/></linearGradient><radialGradient cx="292.12363" cy="416.43548" r="4.89775" gradientUnits="userSpaceOnUse" id="color-3"><stop offset="0" stop-color="#ff6666"/><stop offset="1" stop-color="#171717"/></radialGradient><radialGradient cx="307.34159" cy="417.13517" r="5.45748" gradientUnits="userSpaceOnUse" id="color-4"><stop offset="0" stop-color="#ff6666"/><stop offset="1" stop-color="#171717"/></radialGradient></defs><g transform="translate(1.53152,1.46664)"><g stroke-miterlimit="10"><path d="M-1.53152,642.67751v-644.14414h363.36336v644.14415z" fill-opacity="0.46667" fill="#000000" stroke="none" stroke-width="0" stroke-linecap="butt"/><path d="M12.25,516.55002v-365.10001h334.5v365.10001z" fill-opacity="0.71765" fill="#3e8234" stroke="#000000" stroke-width="2" stroke-linecap="butt"/><path d="M27.8,254.7v-82.5h77.5v82.5z" fill="#3e8234" stroke="#ffffff" stroke-width="0" stroke-linecap="butt"/><g stroke-width="2.5"><path d="M76.91812,228.34077l-4.99752,-5.14032" fill="none" stroke="#843939" stroke-linecap="round"/><path d="M68.35094,226.19899l5.14032,3.85523" fill="none" stroke="#843939" stroke-linecap="round"/><path d="M85.75662,212.13092c0,0 6.83662,1.71706 6.68686,3.18475c-0.14767,1.44725 -4.1881,3.59762 -4.1881,3.59762" fill="none" stroke="#3c3c3c" stroke-linecap="round"/><path d="M80.75909,236.58314v-18.20529h6.78235v18.20529z" fill="#2b2b2b" stroke="#3c3c3c" stroke-linecap="butt"/><path d="M46.7083,236.34602l-0.19122,-20.55108l43.98338,-0.16573l0.19122,20.88254" fill="none" stroke="#804d33" stroke-linecap="round"/><path d="M57.3778,212.30942v-20.88256h27.12946v20.88256z" fill="#04ff00" stroke="#3c3c3c" stroke-linecap="butt"/><path d="M50.89291,212.66639c0,0.41074 -1.06546,0.74367 -2.37977,0.74367c-1.31431,0 -2.37978,-0.33297 -2.37978,-0.74367c0,-0.41074 1.06546,-0.74368 2.37978,-0.74368c1.31431,0 2.37977,0.33297 2.37977,0.74368z" fill="none" stroke="#3e3e3e" stroke-linecap="butt"/><g fill="#191919" stroke="#2b2b2b" stroke-linecap="butt"><path d="M55.13463,234.55284l-0.60217,-4.81725l18.27724,-2.28466l0.60217,4.81725z"/><path d="M62.75016,239.069l-0.58445,-4.67557l3.82546,-0.47817l0.58446,4.67556z"/><path d="M54.31996,229.18656l-1.98358,-15.86861l5.10063,-0.63757l1.98359,15.86861z"/></g><path d="M77.63207,212.91982l-7.28212,-4.71196" fill="none" stroke="#843939" stroke-linecap="round"/><path d="M59.62592,227.80522l-3.28286,-24.62703l12.87964,-1.71693l3.28287,24.62702z" fill="#ff4949" stroke="#000000" stroke-linecap="butt"/><path d="M70.7783,211.92029l7.28212,4.71196" fill="none" stroke="#843939" stroke-linecap="round"/><path d="M87.48434,202.78197c0,4.81173 -3.06254,9.37701 -8.58761,10.98631c-2.98661,0.86992 -7.40024,-0.13455 -10.83136,-0.13455c-9.77849,0 -12.85079,-7.15149 -12.85079,-14.56423c0,-7.41273 4.78575,-9.70948 14.56424,-9.70948c5.75852,0 11.16052,0.37053 14.39406,3.5979c2.25731,2.253 3.31146,6.77663 3.31146,9.82405z" fill-opacity="0.21569" fill="#04ff00" stroke="none" stroke-linecap="butt"/></g><text transform="translate(111.15,200.22489) scale(0.435,0.435)" font-size="40" xml:space="preserve" fill="#ffffff" stroke="none" stroke-width="1" stroke-linecap="butt" font-family="&quot;Comic Sans MS&quot;, Sans Serif" font-weight="normal" text-anchor="start"><tspan x="0" dy="0">Обычный кодер</tspan></text><text transform="translate(111.8,223.7) scale(0.5,0.5)" font-size="40" xml:space="preserve" fill="#ffffff" stroke="none" stroke-width="1" stroke-linecap="butt" font-family="&quot;Comic Sans MS&quot;, Sans Serif" font-weight="normal" text-anchor="start"><tspan x="0" dy="0">Цена:</tspan></text><text transform="translate(167.3,224.7) scale(0.5,0.5)" font-size="40" xml:space="preserve" fill="#ffffff" stroke="none" stroke-width="1" stroke-linecap="butt" font-family="&quot;Comic Sans MS&quot;, Sans Serif" font-weight="normal" text-anchor="start"><tspan x="0" dy="0">10$</tspan></text><path d="M27.3,350.70001v-82.5h77.5v82.5z" fill="#3e8234" stroke="#ffffff" stroke-width="0" stroke-linecap="butt"/><path d="M48.61848,307.62336v-23.34159h39.08792v23.34159z" fill="#bdbdbd" stroke="#000000" stroke-width="1" stroke-linecap="butt"/><path d="M50.6933,306.88235v-20.74807h35.01239v20.74807z" fill="#00b3bd" stroke="#000000" stroke-width="1" stroke-linecap="butt"/><path d="M48.98897,311.88413v-4.26076h38.71743v4.26076z" fill="#ffffff" stroke="#000000" stroke-width="1" stroke-linecap="butt"/><path d="M78.07338,331.15025l-6.48377,-6.66903" fill="none" stroke="#843939" stroke-width="2" stroke-linecap="round"/><path d="M73.62739,333.37325l-6.66903,-5.00177" fill="none" stroke="#843939" stroke-width="2" stroke-linecap="round"/><path d="M40.21309,317.30539c0,0 0.48206,23.53041 -0.067,23.5562c-0.61714,0.02898 -1.27315,-0.00756 -1.27581,-0.29363c-0.0259,-2.78468 -0.23908,-25.69465 -0.23908,-25.69465l57.06386,-0.21502c0,0 0.2136,23.3279 0.23928,26.13155c0.00245,0.26576 -0.53838,0.34079 -1.08608,0.34862c-0.56048,0.00806 -1.12812,-23.72923 -1.12812,-23.72923" fill="none" stroke="#bdbdbd" stroke-width="3.5" stroke-linecap="round"/><path d="M44.30837,312.41436c0,0.53288 -1.38232,0.96484 -3.08751,0.96484c-1.70519,0 -3.08751,-0.43199 -3.08751,-0.96484c0,-0.53288 1.38232,-0.96484 3.08751,-0.96484c1.70519,0 3.08751,0.43199 3.08751,0.96484z" fill="none" stroke="#3e3e3e" stroke-width="2" stroke-linecap="butt"/><g fill="#191919" stroke="#2b2b2b" stroke-width="2" stroke-linecap="butt"><path d="M49.81157,339.20974l-0.78125,-6.24988l23.71281,-2.9641l0.78125,6.24988z"/><path d="M59.69193,345.06901l-0.75827,-6.06606l4.96315,-0.62039l0.75827,6.06606z"/><path d="M48.75461,332.24755l-2.57349,-20.58787l6.61754,-0.82718l2.57349,20.58787z"/></g><path d="M78.99965,311.14315l-9.44779,-6.11327" fill="none" stroke="#843939" stroke-width="2" stroke-linecap="round"/><path d="M55.63855,330.45541l-4.25917,-31.951l16.71,-2.22754l4.25917,31.951z" fill="#ff4949" stroke="#000000" stroke-width="2" stroke-linecap="butt"/><path d="M79.55541,315.95964l-9.44779,-6.11327" fill="none" stroke="#843939" stroke-width="2" stroke-linecap="round"/><path d="M90.00469,297.70854c0,4.38953 -0.50221,11.26468 -4.75579,14.2003c-4.49078,3.09932 -12.92085,2.13881 -19.91961,2.13881c-5.94491,0 -15.51135,-0.39172 -19.7713,-2.71049c-5.50537,-2.99664 -4.9041,-8.54127 -4.9041,-13.62863c0,-9.02383 3.37817,-17.33947 17.00602,-17.33947c8.28613,0 21.34364,-2.37209 28.04134,2.06645c4.31769,2.86132 4.30347,11.73596 4.30347,15.27302z" fill-opacity="0.21961" fill="#00b3bd" stroke="none" stroke-width="2" stroke-linecap="butt"/><text transform="translate(108.55,293.42488) scale(0.435,0.435)" font-size="40" xml:space="preserve" fill="#ffffff" stroke="none" stroke-width="1" stroke-linecap="butt" font-family="&quot;Comic Sans MS&quot;, Sans Serif" font-weight="normal" text-anchor="start"><tspan x="0" dy="0">Крутой кодер</tspan></text><text transform="translate(108.2,315.9) scale(0.5,0.5)" font-size="40" xml:space="preserve" fill="#ffffff" stroke="none" stroke-width="1" stroke-linecap="butt" font-family="&quot;Comic Sans MS&quot;, Sans Serif" font-weight="normal" text-anchor="start"><tspan x="0" dy="0">Цена:</tspan></text><text transform="translate(162.7,317.9) scale(0.5,0.5)" font-size="40" xml:space="preserve" fill="#ffffff" stroke="none" stroke-width="1" stroke-linecap="butt" font-family="&quot;Comic Sans MS&quot;, Sans Serif" font-weight="normal" text-anchor="start"><tspan x="0" dy="0">50$</tspan></text><path d="M26.63333,447.03334v-82.5h77.5v82.5z" fill="#3e8234" stroke="#ffffff" stroke-width="0" stroke-linecap="butt"/><g><path d="M75.76653,431.99851v-24.32804h10.79065v24.32804z" fill="#131313" stroke="#000000" stroke-width="2" stroke-linecap="butt"/><path d="M42.80599,401.98085v-25.89756h41.59304v25.89756z" fill="#000000" stroke="#000000" stroke-width="2" stroke-linecap="butt"/><path d="M43.98315,400.6075v-22.75845h38.84633v22.75845z" fill="#5aff00" stroke="#000000" stroke-width="2" stroke-linecap="butt"/><path d="M67.13655,414.58011l6.40898,6.59211" fill="none" stroke="#843939" stroke-width="2" stroke-linecap="round"/><path d="M62.55872,418.4255l6.59211,4.94408" fill="none" stroke="#131313" stroke-width="2" stroke-linecap="round"/><path d="M36.12192,407.48705c0,0 0.4765,23.25902 -0.06622,23.28451c-0.61002,0.02865 -1.25846,-0.00747 -1.2611,-0.29025c-0.0256,-2.75256 -0.23633,-25.39829 -0.23633,-25.39829l56.4057,-0.21254c0,0 0.21114,23.05884 0.23652,25.83016c0.00242,0.2627 -0.53218,0.33686 -1.07355,0.3446c-0.55401,0.00797 -1.11511,-23.45554 -1.11511,-23.45554" fill="none" stroke="#131313" stroke-width="4" stroke-linecap="round"/><path d="M40.16997,401.07087c0,0.52674 -1.36638,0.95371 -3.0519,0.95371c-1.68552,0 -3.0519,-0.427 -3.0519,-0.95371c0,-0.52674 1.36638,-0.95371 3.0519,-0.95371c1.68552,0 3.0519,0.427 3.0519,0.95371z" fill="none" stroke="#3e3e3e" stroke-width="2" stroke-linecap="butt"/><g fill="#191919" stroke="#2b2b2b" stroke-width="2" stroke-linecap="butt"><path d="M45.6097,429.13875l-0.77224,-6.17779l23.43931,-2.92992l0.77224,6.17779z"/><path d="M55.3761,434.93044l-0.74952,-5.9961l4.9059,-0.61323l0.74952,5.9961z"/><path d="M44.56493,422.25686l-2.54381,-20.35041l6.54121,-0.81764l2.54381,20.35041z"/></g><path d="M74.46113,401.3959l-9.33882,-6.04277" fill="none" stroke="#843939" stroke-width="2" stroke-linecap="round"/><path d="M51.36947,420.4854l-4.21005,-31.58249l16.51727,-2.20185c0,0 2.13282,15.99984 2.91003,21.8302c0.51946,3.89692 1.30002,9.75228 1.30002,9.75228z" fill="#ff4949" stroke="#000000" stroke-width="2" stroke-linecap="butt"/><path d="M75.01047,406.15683l-9.33882,-6.04277" fill="none" stroke="#843939" stroke-width="2" stroke-linecap="round"/><path d="M86.75337,387.95302c0,10.23952 -6.10679,18.3441 -25.01471,18.3441c-18.90792,0 -21.67938,-8.88935 -21.67938,-19.12887c0,-10.23952 2.77149,-17.95174 21.67938,-17.95174c18.90792,0 25.01471,8.49698 25.01471,18.7365z" fill-opacity="0.31373" fill="#59ff00" stroke="none" stroke-width="2" stroke-linecap="butt"/><path d="M83.22187,411.59435h-4.31626" fill="none" stroke="#2b2b2b" stroke-width="2" stroke-linecap="round"/><path d="M78.70941,415.71442l4.51246,-0.1962" fill="none" stroke="#2b2b2b" stroke-width="2" stroke-linecap="round"/></g><text transform="translate(107.88333,390.75822) scale(0.435,0.435)" font-size="40" xml:space="preserve" fill="#ffffff" stroke="none" stroke-width="1" stroke-linecap="butt" font-family="&quot;Comic Sans MS&quot;, Sans Serif" font-weight="normal" text-anchor="start"><tspan x="0" dy="0">Мега кодер</tspan></text><text transform="translate(109.2,411.90001) scale(0.5,0.5)" font-size="40" xml:space="preserve" fill="#ffffff" stroke="none" stroke-width="1" stroke-linecap="butt" font-family="&quot;Comic Sans MS&quot;, Sans Serif" font-weight="normal" text-anchor="start"><tspan x="0" dy="0">Цена:</tspan></text><text transform="translate(163.36667,413.56668) scale(0.5,0.5)" font-size="40" xml:space="preserve" fill="#ffffff" stroke="none" stroke-width="1" stroke-linecap="butt" font-family="&quot;Comic Sans MS&quot;, Sans Serif" font-weight="normal" text-anchor="start"><tspan x="0" dy="0">100$</tspan></text><path d="M260.3,277.36665v-82.5h77.5v82.5z" fill="#3e8234" stroke="#ffffff" stroke-width="0" stroke-linecap="butt"/><path d="M296.19609,258.41333l-0.24083,-8.4293" fill="none" stroke="url(#color-1)" stroke-width="3.5" stroke-linecap="round"/><path d="M308.84004,258.2929l-0.24083,-9.39264" fill="none" stroke="url(#color-2)" stroke-width="3.5" stroke-linecap="round"/><path d="M330.6358,241.55474l-6.86386,-5.65966" fill="none" stroke="#803333" stroke-width="3.5" stroke-linecap="round"/><path d="M278.13333,239.86887l3.61256,-3.37172" fill="none" stroke="#803333" stroke-width="3.5" stroke-linecap="round"/><path d="M282.81761,248.85212v-23.24078h40.82188v23.24078z" fill="#ff6666" stroke="#000000" stroke-width="3.5" stroke-linecap="butt"/><path d="M311.00757,242.5181c0,0 -5.43836,1.68585 -8.30888,1.68585c-2.55054,0 -8.06803,-1.68585 -8.06803,-1.68585" fill="none" stroke="#000000" stroke-width="3.5" stroke-linecap="round"/><path d="M294.99192,233.66733c0,0.96432 -0.80869,1.74607 -1.80628,1.74607c-0.99759,0 -1.80628,-0.78174 -1.80628,-1.74607c0,-0.96432 0.80869,-1.74607 1.80628,-1.74607c0.99759,0 1.80628,0.78174 1.80628,1.74607z" fill="none" stroke="#000000" stroke-width="3.5" stroke-linecap="butt"/><path d="M315.22223,233.90817c0,0.96432 -0.80869,1.74607 -1.80628,1.74607c-0.99759,0 -1.80628,-0.78174 -1.80628,-1.74607c0,-0.96432 0.80869,-1.74607 1.80628,-1.74607c0.99759,0 1.80628,0.78174 1.80628,1.74607z" fill="none" stroke="#000000" stroke-width="3.5" stroke-linecap="butt"/><path d="M280.90922,251.51429v-6.19305h44.61403v6.19305z" fill="#9966ff" stroke="none" stroke-width="3.5" stroke-linecap="butt"/><path d="M292.43604,224.72327v-2.70942h20.77219v2.70942z" fill="#9966ff" stroke="none" stroke-width="3.5" stroke-linecap="butt"/><path d="M310.27303,221.44938c0,1.43402 -3.43697,2.59652 -7.67668,2.59652c-4.23971,0 -7.67668,-1.1625 -7.67668,-2.59652c0,-1.43402 3.21118,-4.85437 7.4509,-4.85437c4.23971,0 7.90246,3.42035 7.90246,4.85437z" fill="#9966ff" stroke="none" stroke-width="3.5" stroke-linecap="butt"/><text transform="translate(257.92,293.34668) scale(0.5,0.5)" font-size="40" xml:space="preserve" fill="#ffffff" stroke="none" stroke-width="1" stroke-linecap="butt" font-family="&quot;Comic Sans MS&quot;, Sans Serif" font-weight="normal" text-anchor="start"><tspan x="0" dy="0">Сборщик</tspan></text><text transform="translate(245.32,313.14667) scale(0.5,0.5)" font-size="40" xml:space="preserve" fill="#ffffff" stroke="none" stroke-width="1" stroke-linecap="butt" font-family="&quot;Comic Sans MS&quot;, Sans Serif" font-weight="normal" text-anchor="start"><tspan x="0" dy="0">Цена:100$</tspan></text><path d="M261.3,434.36667v-82.5h77.5v82.5z" fill="#3e8234" stroke="#ffffff" stroke-width="0" stroke-linecap="butt"/><text transform="translate(247.92,447.84668) scale(0.5,0.5)" font-size="40" xml:space="preserve" fill="#ffffff" stroke="none" stroke-width="1" stroke-linecap="butt" font-family="&quot;Comic Sans MS&quot;, Sans Serif" font-weight="normal" text-anchor="start"><tspan x="0" dy="0">Охранник</tspan></text><text transform="translate(250.32,468.64667) scale(0.5,0.5)" font-size="40" xml:space="preserve" fill="#ffffff" stroke="none" stroke-width="1" stroke-linecap="butt" font-family="&quot;Comic Sans MS&quot;, Sans Serif" font-weight="normal" text-anchor="start"><tspan x="0" dy="0">Цена:50$</tspan></text><g stroke-width="4"><path d="M292.12361,415.91334l-0.27986,-9.79547" fill="none" stroke="url(#color-3)" stroke-linecap="round"/><path d="M306.81681,415.77339l-0.27986,-10.91495" fill="none" stroke="url(#color-4)" stroke-linecap="round"/><path d="M332.1451,396.32239l-7.97631,-6.57695" fill="none" stroke="#803333" stroke-linecap="round"/><path d="M271.13333,394.36331l4.19806,-3.9182" fill="none" stroke="#803333" stroke-linecap="round"/><path d="M276.57681,404.80249v-27.00752h47.43806v27.00752z" fill="#ff6666" stroke="#000000" stroke-linecap="butt"/><path d="M290.30446,399.40097c0,0 6.41174,-1.95909 9.37565,-1.95909c3.33575,0 9.65554,1.95909 9.65554,1.95909" fill="none" stroke="#000000" stroke-linecap="round"/><path d="M290.72427,387.15665c0,1.12061 -0.93976,2.02907 -2.09903,2.02907c-1.15927,0 -2.09903,-0.90844 -2.09903,-2.02907c0,-1.12061 0.93976,-2.02907 2.09903,-2.02907c1.15927,0 2.09903,0.90844 2.09903,2.02907z" fill="none" stroke="#000000" stroke-linecap="butt"/><path d="M314.23339,387.43651c0,1.12061 -0.93975,2.02907 -2.09903,2.02907c-1.15927,0 -2.09903,-0.90844 -2.09903,-2.02907c0,-1.12061 0.93976,-2.02907 2.09903,-2.02907c1.15927,0 2.09903,0.90844 2.09903,2.02907z" fill="none" stroke="#000000" stroke-linecap="butt"/><path d="M274.37283,407.19888v-6.03471h50.90146v6.03471z" fill="#171717" stroke="none" stroke-linecap="butt"/><path d="M287.75414,376.76296v-3.14854h24.13883v3.14854z" fill="#171717" stroke="none" stroke-linecap="butt"/><path d="M308.48205,372.95847c0,1.66644 -3.99401,3.01735 -8.92087,3.01735c-4.92686,0 -8.92087,-1.35092 -8.92087,-3.01735c0,-1.66644 3.73163,-5.64114 8.6585,-5.64114c4.92686,0 9.18325,3.9747 9.18325,5.64114z" fill="#171717" stroke="none" stroke-linecap="butt"/><path d="M285.4767,383.90052l6.12217,2.09903" fill="none" stroke="#000000" stroke-linecap="round"/><path d="M308.56601,386.52431l5.42249,-2.62379" fill="none" stroke="#000000" stroke-linecap="round"/></g><text transform="translate(31.3,492.61686) scale(0.90087,0.90087)" font-size="40" xml:space="preserve" fill="#ffffff" stroke="none" stroke-width="1" stroke-linecap="butt" font-family="&quot;Comic Sans MS&quot;, Sans Serif" font-weight="normal" text-anchor="start"><tspan x="0" dy="0">МАГАЗИН</tspan></text><path d="M239.3,212.15l2,286.5" fill="none" stroke="#ffffff" stroke-width="2" stroke-linecap="round"/></g></g></svg>