<svg version="1.1" xmlns="http://www.w3.org/2000/svg" xmlns:xlink="http://www.w3.org/1999/xlink" width="25.77835" height="129.14215" viewBox="0,0,25.77835,129.14215"><g transform="translate(-164.72819,-302.86001)"><g stroke-miterlimit="10"><path d="M182.50667,321.06002l-2.33333,-2.4" fill="none" stroke="#843939" stroke-width="1" stroke-linecap="round"/><path d="M178.50668,320.06002l2.4,1.8" fill="none" stroke="#843939" stroke-width="1" stroke-linecap="round"/><path d="M186.63334,313.49168c0,0 3.192,0.80169 3.12208,1.48695c-0.06895,0.67572 -1.95541,1.67972 -1.95541,1.67972" fill="none" stroke="#3c3c3c" stroke-width="1.5" stroke-linecap="round"/><path d="M184.30001,324.90836v-8.5h3.16666v8.5z" fill="#2b2b2b" stroke="#3c3c3c" stroke-width="1.5" stroke-linecap="butt"/><path d="M168.40179,324.79764l-0.08928,-9.59524l20.53572,-0.07738l0.08928,9.75" fill="none" stroke="#804d33" stroke-width="2" stroke-linecap="round"/><path d="M173.38335,313.57502v-9.75001h12.66667v9.75001z" fill="#04ff00" stroke="#3c3c3c" stroke-width="1.5" stroke-linecap="butt"/><path d="M170.35557,313.74169c0,0.19177 -0.49746,0.34722 -1.11111,0.34722c-0.61365,0 -1.11111,-0.15546 -1.11111,-0.34722c0,-0.19177 0.49746,-0.34722 1.11111,-0.34722c0.61365,0 1.11111,0.15546 1.11111,0.34722z" fill="none" stroke="#3e3e3e" stroke-width="1" stroke-linecap="butt"/><g fill="#191919" stroke="#2b2b2b" stroke-width="1" stroke-linecap="butt"><path d="M172.33602,323.96041l-0.28115,-2.24916l8.53359,-1.0667l0.28115,2.24916z"/><path d="M175.89169,326.069l-0.27288,-2.18301l1.7861,-0.22326l0.27288,2.18301z"/><path d="M171.95565,321.45491l-0.92613,-7.40901l2.38147,-0.29768l0.92613,7.40901z"/></g><path d="M179.44001,311.66002l3.4,2.2" fill="none" stroke="#843939" stroke-width="1" stroke-linecap="round"/><path d="M174.43299,320.80997l-1.53276,-11.49829l6.01347,-0.80163l1.53276,11.49829z" fill="#ff4949" stroke="#000000" stroke-width="1" stroke-linecap="butt"/><path d="M183.04001,315.59334l-3.4,-2.2" fill="none" stroke="#843939" stroke-width="1" stroke-linecap="round"/><path d="M187.44001,309.12668c0,2.24658 -1.42989,4.3781 -4.00953,5.12948c-1.39444,0.40616 -3.45515,-0.06282 -5.05713,-0.06282c-4.56555,0 -6,-3.33901 -6,-6.8c0,-3.46098 2.23445,-4.53333 6.8,-4.53333c2.68864,0 5.21082,0.173 6.72055,1.67985c1.05393,1.05192 1.54611,3.16399 1.54611,4.58682z" fill-opacity="0.21569" fill="#04ff00" stroke="none" stroke-width="0" stroke-linecap="butt"/><path d="M178.67334,344.28502l2.33333,2.4" fill="none" stroke="#843939" stroke-width="1" stroke-linecap="round"/><path d="M179.40668,347.48502l-2.4,-1.8" fill="none" stroke="#843939" stroke-width="1" stroke-linecap="round"/><path d="M185.13334,339.11668c0,0 3.192,0.80169 3.12208,1.48695c-0.06895,0.67572 -1.95541,1.67972 -1.95541,1.67972" fill="none" stroke="#3c3c3c" stroke-width="1.5" stroke-linecap="round"/><path d="M182.80001,350.53336v-8.5h3.16666v8.5z" fill="#2b2b2b" stroke="#3c3c3c" stroke-width="1.5" stroke-linecap="butt"/><path d="M166.90179,350.42264l-0.08928,-9.59524l20.53572,-0.07738l0.08928,9.75" fill="none" stroke="#804d33" stroke-width="2" stroke-linecap="round"/><path d="M171.88335,339.20002v-9.75001h12.66667v9.75001z" fill="#04ff00" stroke="#3c3c3c" stroke-width="1.5" stroke-linecap="butt"/><path d="M168.85557,339.36669c0,0.19177 -0.49746,0.34722 -1.11111,0.34722c-0.61365,0 -1.11111,-0.15546 -1.11111,-0.34722c0,-0.19177 0.49746,-0.34722 1.11111,-0.34722c0.61365,0 1.11111,0.15546 1.11111,0.34722z" fill="none" stroke="#3e3e3e" stroke-width="1" stroke-linecap="butt"/><g fill="#191919" stroke="#2b2b2b" stroke-width="1" stroke-linecap="butt"><path d="M170.83602,349.58541l-0.28115,-2.24916l8.53359,-1.0667l0.28115,2.24916z"/><path d="M174.39169,351.694l-0.27288,-2.18301l1.7861,-0.22326l0.27288,2.18301z"/><path d="M170.45565,347.07991l-0.92613,-7.40901l2.38147,-0.29768l0.92613,7.40901z"/></g><path d="M181.34001,339.48502l-3.4,-2.2" fill="none" stroke="#843939" stroke-width="1" stroke-linecap="round"/><path d="M172.93299,346.43497l-1.53276,-11.49829l6.01347,-0.80163l1.53276,11.49829z" fill="#ff4949" stroke="#000000" stroke-width="1" stroke-linecap="butt"/><path d="M178.14001,339.01834l3.4,2.2" fill="none" stroke="#843939" stroke-width="1" stroke-linecap="round"/><path d="M185.94001,334.75168c0,2.24658 -1.42989,4.3781 -4.00953,5.12948c-1.39444,0.40616 -3.45515,-0.06282 -5.05713,-0.06282c-4.56555,0 -6,-3.33901 -6,-6.8c0,-3.46098 2.23445,-4.53333 6.8,-4.53333c2.68864,0 5.21082,0.173 6.72055,1.67985c1.05393,1.05192 1.54611,3.16399 1.54611,4.58682z" fill-opacity="0.21569" fill="#04ff00" stroke="none" stroke-width="0" stroke-linecap="butt"/><path d="M179.29834,370.41002l2.33333,2.4" fill="none" stroke="#843939" stroke-width="1" stroke-linecap="round"/><path d="M177.63168,371.81002l2.4,1.8" fill="none" stroke="#843939" stroke-width="1" stroke-linecap="round"/><path d="M185.75834,365.24168c0,0 3.192,0.80169 3.12208,1.48695c-0.06895,0.67572 -1.95541,1.67972 -1.95541,1.67972" fill="none" stroke="#3c3c3c" stroke-width="1.5" stroke-linecap="round"/><path d="M183.42501,376.65836v-8.5h3.16666v8.5z" fill="#2b2b2b" stroke="#3c3c3c" stroke-width="1.5" stroke-linecap="butt"/><path d="M167.52679,376.54764l-0.08928,-9.59524l20.53572,-0.07738l0.08928,9.75" fill="none" stroke="#804d33" stroke-width="2" stroke-linecap="round"/><path d="M172.50835,365.32502v-9.75001h12.66667v9.75001z" fill="#04ff00" stroke="#3c3c3c" stroke-width="1.5" stroke-linecap="butt"/><path d="M169.48057,365.49169c0,0.19177 -0.49746,0.34722 -1.11111,0.34722c-0.61365,0 -1.11111,-0.15546 -1.11111,-0.34722c0,-0.19177 0.49746,-0.34722 1.11111,-0.34722c0.61365,0 1.11111,0.15546 1.11111,0.34722z" fill="none" stroke="#3e3e3e" stroke-width="1" stroke-linecap="butt"/><g fill="#191919" stroke="#2b2b2b" stroke-width="1" stroke-linecap="butt"><path d="M171.46102,375.71041l-0.28115,-2.24916l8.53359,-1.0667l0.28115,2.24916z"/><path d="M175.01669,377.819l-0.27288,-2.18301l1.7861,-0.22326l0.27288,2.18301z"/><path d="M171.08065,373.20491l-0.92613,-7.40901l2.38147,-0.29768l0.92613,7.40901z"/></g><path d="M181.96501,365.61002l-3.4,-2.2" fill="none" stroke="#843939" stroke-width="1" stroke-linecap="round"/><path d="M173.55799,372.55997l-1.53276,-11.49829l6.01347,-0.80163l1.53276,11.49829z" fill="#ff4949" stroke="#000000" stroke-width="1" stroke-linecap="butt"/><path d="M178.76501,365.14334l3.4,2.2" fill="none" stroke="#843939" stroke-width="1" stroke-linecap="round"/><path d="M186.56501,360.87668c0,2.24658 -1.42989,4.3781 -4.00953,5.12948c-1.39444,0.40616 -3.45515,-0.06282 -5.05713,-0.06282c-4.56555,0 -6,-3.33901 -6,-6.8c0,-3.46098 2.23445,-4.53333 6.8,-4.53333c2.68864,0 5.21082,0.173 6.72055,1.67985c1.05393,1.05192 1.54611,3.16399 1.54611,4.58682z" fill-opacity="0.21569" fill="#04ff00" stroke="none" stroke-width="0" stroke-linecap="butt"/><g><path d="M180.13167,398.43502l-2.33333,-2.4" fill="none" stroke="#843939" stroke-width="1" stroke-linecap="round"/><path d="M176.13168,397.43502l2.4,1.8" fill="none" stroke="#843939" stroke-width="1" stroke-linecap="round"/><path d="M184.25834,390.86668c0,0 3.192,0.80169 3.12208,1.48695c-0.06895,0.67572 -1.95541,1.67972 -1.95541,1.67972" fill="none" stroke="#3c3c3c" stroke-width="1.5" stroke-linecap="round"/><path d="M181.92501,402.28336v-8.5h3.16666v8.5z" fill="#2b2b2b" stroke="#3c3c3c" stroke-width="1.5" stroke-linecap="butt"/><path d="M166.02679,402.17264l-0.08928,-9.59524l20.53572,-0.07738l0.08928,9.75" fill="none" stroke="#804d33" stroke-width="2" stroke-linecap="round"/><path d="M171.00835,390.95002v-9.75001h12.66667v9.75001z" fill="#04ff00" stroke="#3c3c3c" stroke-width="1.5" stroke-linecap="butt"/><path d="M167.98057,391.11669c0,0.19177 -0.49746,0.34722 -1.11111,0.34722c-0.61365,0 -1.11111,-0.15546 -1.11111,-0.34722c0,-0.19177 0.49746,-0.34722 1.11111,-0.34722c0.61365,0 1.11111,0.15546 1.11111,0.34722z" fill="none" stroke="#3e3e3e" stroke-width="1" stroke-linecap="butt"/><g fill="#191919" stroke="#2b2b2b" stroke-width="1" stroke-linecap="butt"><path d="M169.96102,401.33541l-0.28115,-2.24916l8.53359,-1.0667l0.28115,2.24916z"/><path d="M173.51669,403.444l-0.27288,-2.18301l1.7861,-0.22326l0.27288,2.18301z"/><path d="M169.58065,398.82991l-0.92613,-7.40901l2.38147,-0.29768l0.92613,7.40901z"/></g><path d="M180.46501,391.23502l-3.4,-2.2" fill="none" stroke="#843939" stroke-width="1" stroke-linecap="round"/><path d="M172.05799,398.18497l-1.53276,-11.49829l6.01347,-0.80163l1.53276,11.49829z" fill="#ff4949" stroke="#000000" stroke-width="1" stroke-linecap="butt"/><path d="M180.66501,392.96834l-3.4,-2.2" fill="none" stroke="#843939" stroke-width="1" stroke-linecap="round"/><path d="M185.06501,386.50168c0,2.24658 -1.42989,4.3781 -4.00953,5.12948c-1.39444,0.40616 -3.45515,-0.06282 -5.05713,-0.06282c-4.56555,0 -6,-3.33901 -6,-6.8c0,-3.46098 2.23445,-4.53333 6.8,-4.53333c2.68864,0 5.21082,0.173 6.72055,1.67985c1.05393,1.05192 1.54611,3.16399 1.54611,4.58682z" fill-opacity="0.21569" fill="#04ff00" stroke="none" stroke-width="0" stroke-linecap="butt"/></g><g><path d="M179.93167,426.43502l-2.33333,-2.4" fill="none" stroke="#843939" stroke-width="1" stroke-linecap="round"/><path d="M178.33168,427.23502l-2.4,-1.8" fill="none" stroke="#843939" stroke-width="1" stroke-linecap="round"/><path d="M184.05834,418.86668c0,0 3.192,0.80169 3.12208,1.48695c-0.06895,0.67572 -1.95541,1.67972 -1.95541,1.67972" fill="none" stroke="#3c3c3c" stroke-width="1.5" stroke-linecap="round"/><path d="M181.72501,430.28336v-8.5h3.16666v8.5z" fill="#2b2b2b" stroke="#3c3c3c" stroke-width="1.5" stroke-linecap="butt"/><path d="M165.82679,430.17264l-0.08928,-9.59524l20.53572,-0.07738l0.08928,9.75" fill="none" stroke="#804d33" stroke-width="2" stroke-linecap="round"/><path d="M170.80835,418.95002v-9.75001h12.66667v9.75001z" fill="#04ff00" stroke="#3c3c3c" stroke-width="1.5" stroke-linecap="butt"/><path d="M167.78057,419.11669c0,0.19177 -0.49746,0.34722 -1.11111,0.34722c-0.61365,0 -1.11111,-0.15546 -1.11111,-0.34722c0,-0.19177 0.49746,-0.34722 1.11111,-0.34722c0.61365,0 1.11111,0.15546 1.11111,0.34722z" fill="none" stroke="#3e3e3e" stroke-width="1" stroke-linecap="butt"/><g fill="#191919" stroke="#2b2b2b" stroke-width="1" stroke-linecap="butt"><path d="M169.76102,429.33541l-0.28115,-2.24916l8.53359,-1.0667l0.28115,2.24916z"/><path d="M173.31669,431.444l-0.27288,-2.18301l1.7861,-0.22326l0.27288,2.18301z"/><path d="M169.38065,426.82991l-0.92613,-7.40901l2.38147,-0.29768l0.92613,7.40901z"/></g><path d="M176.86501,417.03502l3.4,2.2" fill="none" stroke="#843939" stroke-width="1" stroke-linecap="round"/><path d="M171.85799,426.18497l-1.53276,-11.49829l6.01347,-0.80163l1.53276,11.49829z" fill="#ff4949" stroke="#000000" stroke-width="1" stroke-linecap="butt"/><path d="M177.06501,418.76834l3.4,2.2" fill="none" stroke="#843939" stroke-width="1" stroke-linecap="round"/><path d="M184.86501,414.50168c0,2.24658 -1.42989,4.3781 -4.00953,5.12948c-1.39444,0.40616 -3.45515,-0.06282 -5.05713,-0.06282c-4.56555,0 -6,-3.33901 -6,-6.8c0,-3.46098 2.23445,-4.53333 6.8,-4.53333c2.68864,0 5.21082,0.173 6.72055,1.67985c1.05393,1.05192 1.54611,3.16399 1.54611,4.58682z" fill-opacity="0.21569" fill="#04ff00" stroke="none" stroke-width="0" stroke-linecap="butt"/></g></g></g></svg>