<svg version="1.1" xmlns="http://www.w3.org/2000/svg" xmlns:xlink="http://www.w3.org/1999/xlink" width="363.36336" height="644.14414" viewBox="0,0,363.36336,644.14414"><g transform="translate(1.53152,1.46664)"><g stroke-miterlimit="10"><path d="M-1.53152,642.6775v-644.14414h363.36336v644.14414z" fill-opacity="0.66667" fill="#000000" stroke="none" stroke-width="0" stroke-linecap="butt"/><text transform="translate(80.24424,47.12579) scale(1.03088,1.03088)" font-size="40" xml:space="preserve" fill="#ffffff" stroke="none" stroke-width="1" stroke-linecap="butt" font-family="&quot;Comic Sans MS&quot;, Sans Serif" font-weight="400" text-anchor="start"><tspan x="0" dy="0">B icky Dev</tspan></text><text transform="translate(102.94425,47.02579) scale(1.03088,1.03088)" font-size="40" xml:space="preserve" fill="#ff6666" stroke="none" stroke-width="1" stroke-linecap="butt" font-family="&quot;Comic Sans MS&quot;, Sans Serif" font-weight="400" text-anchor="start"><tspan x="0" dy="0">r</tspan></text><path d="M138.26756,19.99699l0.13333,4.66667" fill="none" stroke="#803333" stroke-width="2" stroke-linecap="round"/><path d="M145.26756,19.397l0.13333,5.2" fill="none" stroke="#803333" stroke-width="2" stroke-linecap="round"/><path d="M157.46756,15.33031l-3.8,-3.13333" fill="none" stroke="#803333" stroke-width="2" stroke-linecap="round"/><path d="M127.7009,14.897l2,-1.86667" fill="none" stroke="#803333" stroke-width="2" stroke-linecap="round"/><path d="M130.99423,19.37032v-12.86667h22.6v12.86667z" fill="#ff6666" stroke="#000000" stroke-width="2" stroke-linecap="butt"/><path d="M146.60089,15.86366c0,0 -3.01081,0.93333 -4.6,0.93333c-1.41204,0 -4.46666,-0.93333 -4.46666,-0.93333" fill="none" stroke="#000000" stroke-width="2" stroke-linecap="round"/><path d="M137.73423,10.96366c0,0.53387 -0.44771,0.96667 -1,0.96667c-0.55229,0 -1,-0.43279 -1,-0.96667c0,-0.53387 0.44771,-0.96667 1,-0.96667c0.55229,0 1,0.43279 1,0.96667z" fill="none" stroke="#000000" stroke-width="2" stroke-linecap="butt"/><path d="M148.93423,11.09699c0,0.53387 -0.44771,0.96667 -1,0.96667c-0.55229,0 -1,-0.43279 -1,-0.96667c0,-0.53387 0.44771,-0.96667 1,-0.96667c0.55229,0 1,0.43279 1,0.96667z" fill="none" stroke="#000000" stroke-width="2" stroke-linecap="butt"/><path d="M87.99423,549.37033c0,0 0,-61.9171 0,-78.30139c0,-2.82991 9.04252,-2.21282 9.04252,-2.21282c0,0 -3.07519,-5.80181 -2.24149,-7.43752c1.23925,-2.4314 8.95531,-5.73498 8.95531,-5.73498l150.55862,-1v94.68671z" fill="#ff6666" stroke="#000000" stroke-width="5" stroke-linecap="butt"/><text transform="translate(98.08391,514.84539) scale(0.92385,0.92385)" font-size="40" xml:space="preserve" fill="#6b2b2b" stroke="none" stroke-width="1" stroke-linecap="butt" font-family="&quot;Comic Sans MS&quot;, Sans Serif" font-weight="normal" text-anchor="start"><tspan x="0" dy="0">ИГРАТЬ</tspan></text></g></g></svg>