<svg version="1.1" xmlns="http://www.w3.org/2000/svg" xmlns:xlink="http://www.w3.org/1999/xlink" width="135.50222" height="59.06514" viewBox="0,0,135.50222,59.06514"><g transform="translate(-175.41695,-141.3861)"><g stroke-width="2" stroke-miterlimit="10"><path d="M190.53935,199.40421l31.06235,-22.55565h39.82683l32.73791,21.00898z" fill="#191919" stroke="#000000" stroke-linecap="butt"/><g fill="#00ff09" stroke="#000000" stroke-linecap="butt"><path d="M222.4011,178.8861v-3.25h37.625v3.25z"/><path d="M222.0261,165.2611v-10.875h13.75v10.875z"/><path d="M241.2761,170.0111v-7h14.625v7z"/><path d="M247.7761,157.7611v-6.75h16.5v6.75z"/><path d="M226.0261,149.3861v-7h14.375v7z"/></g><g fill="#00ff09" stroke="#000000" stroke-linecap="butt"><path d="M192.94856,197.88428l-1.71275,-2.76206l31.97619,-19.82837l1.71275,2.76206z"/><path d="M185.44948,186.50249l-5.73112,-9.24229l11.68565,-7.24625l5.73112,9.24229z"/><path d="M204.31264,180.3946l-3.689,-5.94906l12.42928,-7.70737l3.689,5.94906z"/><path d="M203.38102,166.55825l-3.55725,-5.73659l14.02278,-8.6955l3.55725,5.73659z"/><path d="M180.48282,170.90287l-3.689,-5.94906l12.21681,-7.57562l3.689,5.94906z"/></g><g fill="#00ff09" stroke="#000000" stroke-linecap="butt"><path d="M259.8098,179.32404l1.39151,-2.93704l34.00187,16.10943l-1.39151,2.93704z"/><path d="M265.30456,166.85052l4.65621,-9.82778l12.42593,5.88717l-4.65621,9.82778z"/><path d="M280.66711,179.38514l2.99711,-6.32593l13.21667,6.26181l-2.9971,6.32593z"/><path d="M291.78612,171.0978l2.89007,-6.10001l14.91112,7.0646l-2.89006,6.1z"/><path d="M275.71638,154.21685l2.99711,-6.32593l12.99075,6.15477l-2.99711,6.32593z"/></g><g><path d="M216.98295,194.94891l-1.56055,-4.40002" fill="none" stroke="#803333" stroke-linecap="round"/><path d="M225.75644,191.36933l-1.72441,-4.90756" fill="none" stroke="#803333" stroke-linecap="round"/><path d="M229.46075,172.66451l-2.08829,4.46058" fill="none" stroke="#803333" stroke-linecap="round"/><path d="M204.78043,184.3156l-2.19687,-1.63038" fill="none" stroke="#803333" stroke-linecap="round"/><path d="M208.94956,193.33439l-3.95285,-12.24444l21.50706,-6.94309l3.95285,12.24444z" fill="#ff6666" stroke="#000000" stroke-linecap="butt"/></g></g></g></svg>