<svg version="1.1" xmlns="http://www.w3.org/2000/svg" xmlns:xlink="http://www.w3.org/1999/xlink" width="287.5" height="548.5" viewBox="0,0,287.5,548.5"><defs><radialGradient cx="86.70554" cy="261.65529" r="36.90792" gradientTransform="translate(-113.98345,-578.27819) scale(2.1742,2.1742)" gradientUnits="userSpaceOnUse" id="color-1"><stop offset="0" stop-color="#999999"/><stop offset="1" stop-color="#ffffff"/></radialGradient></defs><g transform="translate(-36.25,-64.75)"><g stroke-miterlimit="10"><path d="M38.5,611v-544h283v544z" fill="#c1c1c1" stroke="#000000" stroke-width="4.5" stroke-linecap="butt"/><path d="M107.66627,536.81303c0,2.53616 -11.24486,4.59213 -25.1161,4.59213c-13.87124,0 -25.11611,-2.05597 -25.11611,-4.59213c0,-2.53616 11.24487,-4.59213 25.11611,-4.59213c13.87124,0 25.1161,2.05597 25.1161,4.59213z" fill-opacity="0.4902" fill="#000000" stroke="none" stroke-width="0" stroke-linecap="butt"/><path d="M64,538.3v-70.6h38v70.6z" fill="#545454" stroke="#000000" stroke-width="2" stroke-linecap="butt"/><path d="M66.51999,476.78v-6h32.8v6z" fill="#737373" stroke="#000000" stroke-width="2" stroke-linecap="butt"/><path d="M66.72,485.58v-6h32.2v6z" fill="#737373" stroke="#000000" stroke-width="2" stroke-linecap="butt"/><path d="M66.51999,493.78v-5.8h32.6v5.8z" fill="#737373" stroke="#000000" stroke-width="2" stroke-linecap="butt"/><path d="M66.72,502.58v-6.4h31.8v6.4z" fill="#737373" stroke="#000000" stroke-width="2" stroke-linecap="butt"/><path d="M66.32,510.98v-5.6h32.8v5.6z" fill="#737373" stroke="#000000" stroke-width="2" stroke-linecap="butt"/><path d="M66.32,518.38v-4.8h32.8v4.8z" fill="#737373" stroke="#000000" stroke-width="2" stroke-linecap="butt"/><path d="M66.72,525.78v-4.4h25v4.4z" fill="#737373" stroke="#000000" stroke-width="2" stroke-linecap="butt"/><path d="M99.32,523.48c0,1.49117 -1.07452,2.7 -2.4,2.7c-1.32548,0 -2.4,-1.20883 -2.4,-2.7c0,-1.49117 1.07452,-2.7 2.4,-2.7c1.32548,0 2.4,1.20883 2.4,2.7z" fill="#ffffff" stroke="#000000" stroke-width="2" stroke-linecap="butt"/><text transform="translate(51.36667,88.46667) scale(0.5,0.5)" font-size="40" xml:space="preserve" fill="#000000" stroke="none" stroke-width="1" stroke-linecap="butt" font-family="&quot;Comic Sans MS&quot;, Sans Serif" font-weight="normal" text-anchor="start"><tspan x="0" dy="0">УСТРОЙСТВО НА РАБОТУ</tspan></text><text transform="translate(43.7,107.89522) scale(0.17394,0.17394)" font-size="40" xml:space="preserve" fill="#000000" stroke="none" stroke-width="1" stroke-linecap="butt" font-family="&quot;Comic Sans MS&quot;, Sans Serif" font-weight="normal" text-anchor="start"><tspan x="0" dy="0">тебе требуется поднять компанию с колен, покупая рабочих и защищая сервера</tspan><tspan x="0" dy="46.150000000000006px">правила: быть счасливым, не ломать плитку, не читать мелкий текст, жить!</tspan><tspan x="0" dy="46.150000000000006px"> </tspan><tspan x="0" dy="46.150000000000006px">Лёва если ты это читаешь то ты крутой!!</tspan><tspan x="0" dy="46.150000000000006px"> </tspan><tspan x="0" dy="46.150000000000006px">Рецепт оч вкусных пельменей: одеваемся по погоде, выходим из дома, идём в </tspan><tspan x="0" dy="46.150000000000006px">магазин, покупаем вкусные "мясные подушечки", идём домой, переодеваемся,</tspan><tspan x="0" dy="46.150000000000006px">моём руки, ставим воду кипятиться, когда вскипела насыпаем пельмени,</tspan><tspan x="0" dy="46.150000000000006px">насыпаем соли или других приправ по вкусу, варим иногда перемешивая 7 мин</tspan><tspan x="0" dy="46.150000000000006px">Готово!</tspan></text><text transform="translate(44.86667,215.88333) scale(0.4061,0.4061)" font-size="40" xml:space="preserve" fill="#000000" stroke="none" stroke-width="1" stroke-linecap="butt" font-family="&quot;Comic Sans MS&quot;, Sans Serif" font-weight="normal" text-anchor="start"><tspan x="0" dy="0">Нанимай рабочих открыв магазин</tspan></text><path d="M44.61159,191.46667h269.66667" fill="none" stroke="#000000" stroke-width="1.5" stroke-linecap="round"/><path d="M46.08333,275.64167c0,-8.80542 0,-20.92313 0,-26.5c0,-5.68001 4.8999,-13.725 9.65,-13.725c9.96781,0 47.60492,0 66.25,0c6.42902,0 10.6,8.74492 10.6,14.725c0,5.35195 0.25,16.35212 0.25,24.75c0,6.22816 -4.54654,11.025 -8.85,11.025c-9.74853,0 -48.7031,-0.25 -67.5,-0.25c-6.17686,0 -10.4,-4.15033 -10.4,-10.025z" fill="#999999" stroke="#000000" stroke-width="2" stroke-linecap="butt"/><path d="M69.125,273.16667v-25h39.75v25z" fill="#ffffff" stroke="#000000" stroke-width="0" stroke-linecap="butt"/><path d="M61.44762,252.03453l4,-7h45.75l4.5,7.25z" fill="#ffffff" stroke="none" stroke-width="0" stroke-linecap="butt"/><text transform="translate(52.42555,265.97327) scale(0.45994,0.45994)" font-size="40" xml:space="preserve" fill="url(#color-1)" stroke="none" stroke-width="1" stroke-linecap="butt" font-family="&quot;Comic Sans MS&quot;, Sans Serif" font-weight="normal" text-anchor="start"><tspan x="0" dy="0">Магазин</tspan></text><text transform="translate(140.27826,257.55539) scale(0.31356,0.31356)" font-size="40" xml:space="preserve" fill="#000000" stroke="none" stroke-width="1" stroke-linecap="butt" font-family="&quot;Comic Sans MS&quot;, Sans Serif" font-weight="normal" text-anchor="start"><tspan x="0" dy="0">они стоят много</tspan><tspan x="0" dy="46.150000000000006px">но мы даём 10$ для начала</tspan></text><text transform="translate(58.50098,325.76875) scale(0.5,0.5)" font-size="40" xml:space="preserve" fill="#000000" stroke="none" stroke-width="1" stroke-linecap="butt" font-family="&quot;Comic Sans MS&quot;, Sans Serif" font-weight="normal" text-anchor="start"><tspan x="0" dy="0">Делай игры, и сдавай их</tspan></text><path d="M132.56168,396.09865c0,4.14991 -18.39992,7.51407 -41.09734,7.51407c-22.69742,0 -41.09734,-3.36415 -41.09734,-7.51407c0,-4.14991 18.39992,-7.51407 41.09734,-7.51407c22.69742,0 41.09734,3.36415 41.09734,7.51407z" fill-opacity="0.4902" fill="#000000" stroke="none" stroke-width="4" stroke-linecap="butt"/><path d="M95.74325,377.63975l5.33006,5.48235" fill="none" stroke="#858585" stroke-width="4" stroke-linecap="round"/><path d="M91.9361,380.83779l5.48235,4.11176" fill="none" stroke="#843939" stroke-width="4" stroke-linecap="round"/><path d="M110.49994,365.83364c0,0 7.29153,1.83131 7.13181,3.39666c-0.1575,1.54356 -4.46677,3.83701 -4.46677,3.83701" fill="none" stroke="#3c3c3c" stroke-width="4" stroke-linecap="round"/><path d="M105.16988,391.91292v-19.41667h7.23364v19.41667z" fill="#2b2b2b" stroke="#3c3c3c" stroke-width="4" stroke-linecap="butt"/><path d="M68.85336,391.65999l-0.20394,-21.91853l46.91003,-0.17676l0.20394,22.27206" fill="none" stroke="#808080" stroke-width="4" stroke-linecap="round"/><path d="M80.2328,366.02401v-22.27206h28.93465v22.27206z" fill="#ffffff" stroke="#3c3c3c" stroke-width="4" stroke-linecap="butt"/><path d="M73.3164,366.40474c0,0.43806 -1.13635,0.79316 -2.53812,0.79316c-1.40177,0 -2.53812,-0.35512 -2.53812,-0.79316c0,-0.43806 1.13635,-0.79316 2.53812,-0.79316c1.40177,0 2.53812,0.35512 2.53812,0.79316z" fill="none" stroke="#3e3e3e" stroke-width="4" stroke-linecap="butt"/><g fill="#191919" stroke="#2b2b2b" stroke-width="4" stroke-linecap="butt"><path d="M77.84035,389.74751l-0.64223,-5.13779l19.4934,-2.43668l0.64223,5.13779z"/><path d="M85.96264,394.56419l-0.62334,-4.98668l4.08001,-0.51l0.62334,4.98668z"/><path d="M76.97147,384.02416l-2.11557,-16.9245l5.44002,-0.67999l2.11557,16.9245z"/></g><path d="M101.83478,366.67505l-7.76667,-5.02549" fill="none" stroke="#858585" stroke-width="4" stroke-linecap="round"/><path d="M82.63049,382.55091l-3.5013,-26.2657l13.73665,-1.83115l3.5013,26.2657z" fill="#ffffff" stroke="#000000" stroke-width="4" stroke-linecap="butt"/><path d="M94.52496,365.60903l7.76667,5.02549" fill="none" stroke="#858585" stroke-width="4" stroke-linecap="round"/><path d="M112.00929,354.86261c0,5.13189 -3.26632,10.00095 -9.15902,11.71734c-3.18534,0.9278 -7.89265,-0.14348 -11.55207,-0.14348c-10.42915,0 -13.70588,-7.62736 -13.70588,-15.53334c0,-7.90596 5.10418,-10.35555 15.53333,-10.35555c6.1417,0 11.90315,0.39519 15.35184,3.8373c2.40751,2.40292 3.5318,7.22755 3.5318,10.47774z" fill-opacity="0.21569" fill="#ffffff" stroke="none" stroke-width="4" stroke-linecap="butt"/><text transform="translate(123.78359,353.72241) scale(0.22524,0.2471)" font-size="40" xml:space="preserve" fill="#000000" stroke="none" stroke-width="1" stroke-linecap="butt" font-family="&quot;Comic Sans MS&quot;, Sans Serif" font-weight="normal" text-anchor="start"><tspan x="0" dy="0">                 садись за компьютер</tspan><tspan x="0" dy="46.150000000000006px">нажав на него, выйти из-за него аналогично</tspan></text><path d="M316.9504,452.06591c0,3.59588 -10.38608,6.51092 -23.19796,6.51092c-12.81187,0 -23.19796,-2.91503 -23.19796,-6.51092c0,-3.59588 10.38608,-6.51093 23.19796,-6.51093c12.81187,0 23.19796,2.91505 23.19796,6.51093z" fill-opacity="0.4902" fill="#000000" stroke="none" stroke-width="0" stroke-linecap="butt"/><path d="M304.89026,429.1378c0,0 -3.65307,3.79119 -5.87982,4.89294c-3.02153,1.49498 -8.18731,0.48232 -10.99756,0.48232c-0.86968,0 -6.62442,-6.47995 -6.62442,-6.47995c0,0 2.89915,-40.71405 12.2958,-40.71405c9.39666,0 11.206,41.81875 11.206,41.81875z" fill-opacity="0.19216" fill="#ffffff" stroke="#000000" stroke-width="2" stroke-linecap="butt"/><path d="M289.63327,452.13486v-7.08923" fill="none" stroke="#000000" stroke-width="2" stroke-linecap="round"/><path d="M297.5327,444.23543l0.60765,7.08923" fill="none" stroke="#000000" stroke-width="2" stroke-linecap="round"/><path d="M289.83582,405.95359v10.12747" fill="none" stroke="#ffffff" stroke-width="2" stroke-linecap="round"/><path d="M296.92505,415.87851v-9.11472" fill="none" stroke="#ffffff" stroke-width="2" stroke-linecap="round"/><path d="M297.93781,425.39833c0,0 -3.21234,1.0783 -4.84676,1.11166c-1.67299,0.03414 -5.07816,-0.90911 -5.07816,-0.90911" fill="none" stroke="#ffffff" stroke-width="2" stroke-linecap="round"/><path d="M285.37973,435.32326l-5.46883,5.26629" fill="none" stroke="#000000" stroke-width="2" stroke-linecap="round"/><path d="M306.64742,440.58954l-5.67138,-5.46883" fill="none" stroke="#000000" stroke-width="2" stroke-linecap="round"/><g fill="none" stroke="#8a8a8a" stroke-width="3.5" stroke-linecap="round"><path d="M286.79758,435.93091h13.77337"/><path d="M286.79758,438.7666h13.77337"/><path d="M300.57095,441.39974h-13.77337"/><path d="M300.57095,444.03289h-13.77337"/></g><path d="M218.13333,449.90681v-42.33282h48.40931v42.33282z" fill-opacity="0.2" fill="#ffffff" stroke="#ffffff" stroke-width="2" stroke-linecap="butt"/><text transform="translate(46.03334,418.69905) scale(0.29951,0.29951)" font-size="40" xml:space="preserve" fill="#000000" stroke="none" stroke-width="1" stroke-linecap="butt" font-family="&quot;Comic Sans MS&quot;, Sans Serif" font-weight="normal" text-anchor="start"><tspan x="0" dy="0">иди к серверу потом к</tspan><tspan x="0" dy="46.150000000000006px">лампочке, чтобы сдать игры</tspan><tspan x="0" dy="46.150000000000006px">и полуучить деньги</tspan></text><path d="M94.96842,548.29842l0.21042,7.36491" fill="none" stroke="#a1a1a1" stroke-width="2" stroke-linecap="round"/><path d="M106.2262,555.55812l-0.21042,-8.2066" fill="none" stroke="#a1a1a1" stroke-width="2" stroke-linecap="round"/><path d="M125.26974,540.93352l-5.99714,-4.945" fill="none" stroke="#a1a1a1" stroke-width="2" stroke-linecap="round"/><path d="M82.55331,536.51458l-3.15638,2.94597" fill="none" stroke="#a1a1a1" stroke-width="2" stroke-linecap="round"/><path d="M83.4897,547.30944v-20.3061h35.66718v20.3061z" fill="#ffffff" stroke="#000000" stroke-width="2" stroke-linecap="butt"/><path d="M93.81109,543.24821c0,0 4.82078,-1.47298 7.04925,-1.47298c2.50805,0 7.25969,1.47298 7.25969,1.47298" fill="none" stroke="#000000" stroke-width="2" stroke-linecap="round"/><path d="M93.90126,534.94391c0,0.84255 -0.70657,1.5256 -1.57819,1.5256c-0.87162,0 -1.57819,-0.68303 -1.57819,-1.5256c0,-0.84255 0.70657,-1.52559 1.57819,-1.52559c0.87162,0 1.57819,0.68302 1.57819,1.52559z" fill="#000000" stroke="#000000" stroke-width="2" stroke-linecap="butt"/><path d="M111.42673,535.30463c0,0.84255 -0.70657,1.52559 -1.57819,1.52559c-0.87162,0 -1.57819,-0.68302 -1.57819,-1.52559c0,-0.84255 0.70657,-1.5256 1.57819,-1.5256c0.87162,0 1.57819,0.68303 1.57819,1.5256z" fill="#000000" stroke="#000000" stroke-width="2" stroke-linecap="butt"/><path d="M90.74833,532.57697l3.15639,1.20244" fill="none" stroke="#000000" stroke-width="2" stroke-linecap="round"/><path d="M111.66287,533.11569l-2.93093,1.20243" fill="none" stroke="#000000" stroke-width="2" stroke-linecap="round"/><path d="M85.05995,545.45209l1.375,-1.8125" fill="none" stroke="#878787" stroke-width="2" stroke-linecap="round"/><path d="M91.28495,539.50209l-1.075,-0.6l-1.95,0.8375l-1.55,-1.65" fill="none" stroke="#878787" stroke-width="2" stroke-linecap="round"/><path d="M102.80995,528.26459l-0.5,1.875l1.375,2.875l-2.125,2.375" fill="none" stroke="#878787" stroke-width="2" stroke-linecap="round"/><path d="M117.68495,540.45209l-2.125,1.5625l-1.1875,-0.5" fill="none" stroke="#878787" stroke-width="2" stroke-linecap="round"/><path d="M112.87245,542.82709l1.1875,-1.5625" fill="none" stroke="#878787" stroke-width="2" stroke-linecap="round"/><path d="M83.7397,547.30944v-20.3061h35.66718v20.3061z" fill="none" stroke="#000000" stroke-width="2" stroke-linecap="butt"/><path d="M65.1545,545.33001l0.21042,-7.36491" fill="none" stroke="#a1a1a1" stroke-width="2" stroke-linecap="round"/><path d="M54.10714,545.22479l0.21042,-8.2066" fill="none" stroke="#a1a1a1" stroke-width="2" stroke-linecap="round"/><path d="M77.78003,526.18125l3.15638,2.94597" fill="none" stroke="#a1a1a1" stroke-width="2" stroke-linecap="round"/><path d="M41.17646,536.9761v-20.3061h35.66718v20.3061z" fill="#ffffff" stroke="#000000" stroke-width="2" stroke-linecap="butt"/><path d="M52.21331,532.91488c0,0 4.75164,-1.47298 7.25969,-1.47298c2.22847,0 7.04925,1.47298 7.04925,1.47298" fill="none" stroke="#000000" stroke-width="2" stroke-linecap="round"/><path d="M68.01027,523.08498c0.87162,0 1.57819,0.68304 1.57819,1.52559c0,0.84257 -0.70657,1.5256 -1.57819,1.5256c-0.87162,0 -1.57819,-0.68305 -1.57819,-1.5256c0,-0.84257 0.70657,-1.52559 1.57819,-1.52559z" fill="#000000" stroke="#000000" stroke-width="2" stroke-linecap="butt"/><path d="M50.4848,523.44571c0.87162,0 1.57819,0.68305 1.57819,1.5256c0,0.84257 -0.70657,1.52559 -1.57819,1.52559c-0.87162,0 -1.57819,-0.68304 -1.57819,-1.52559c0,-0.84257 0.70657,-1.5256 1.57819,-1.5256z" fill="#000000" stroke="#000000" stroke-width="2" stroke-linecap="butt"/><path d="M69.58501,522.24365l-3.15639,1.20244" fill="none" stroke="#000000" stroke-width="2" stroke-linecap="round"/><path d="M51.6014,523.98479l-2.93093,-1.20243" fill="none" stroke="#000000" stroke-width="2" stroke-linecap="round"/><path d="M75.27339,535.11876l-1.375,-1.8125" fill="none" stroke="#878787" stroke-width="2" stroke-linecap="round"/><path d="M73.62339,527.75626l-1.55,1.65l-1.95,-0.8375l-1.075,0.6" fill="none" stroke="#878787" stroke-width="2" stroke-linecap="round"/><path d="M58.77339,525.05626l-2.125,-2.375l1.375,-2.875l-0.5,-1.875" fill="none" stroke="#878787" stroke-width="2" stroke-linecap="round"/><path d="M45.96089,531.18126l-1.1875,0.5l-2.125,-1.5625" fill="none" stroke="#878787" stroke-width="2" stroke-linecap="round"/><path d="M46.27339,530.93126l1.1875,1.5625" fill="none" stroke="#878787" stroke-width="2" stroke-linecap="round"/><path d="M40.92646,536.9761v-20.3061h35.66718v20.3061z" fill="none" stroke="#000000" stroke-width="2" stroke-linecap="butt"/><text transform="translate(149.38667,481.48) scale(0.5,0.5)" font-size="40" xml:space="preserve" fill="#000000" stroke="none" stroke-width="1" stroke-linecap="butt" font-family="&quot;Comic Sans MS&quot;, Sans Serif" font-weight="normal" text-anchor="start"><tspan x="0" dy="0">Защищай</tspan></text><text transform="translate(111.55,502.85811) scale(0.22627,0.22627)" font-size="40" xml:space="preserve" fill="#000000" stroke="none" stroke-width="1" stroke-linecap="butt" font-family="&quot;Comic Sans MS&quot;, Sans Serif" font-weight="normal" text-anchor="start"><tspan x="0" dy="0">кирпичеумышленики лезут к ссерверам чтобы</tspan><tspan x="0" dy="46.150000000000006px">украсть деньги и игры!!</tspan><tspan x="0" dy="46.150000000000006px">        </tspan><tspan x="0" dy="46.150000000000006px">       Отпугивай их нажав по ним.</tspan><tspan x="0" dy="46.150000000000006px">        А лучше найми охранника, но он работает</tspan><tspan x="0" dy="46.150000000000006px">        до 3 кирпичеумышлеников!!</tspan></text><path d="M209.55,598.2h98.5" fill="none" stroke="#000000" stroke-width="4.5" stroke-linecap="round"/><text transform="translate(99.55,595.2) scale(0.5,0.5)" font-size="40" xml:space="preserve" fill="#000000" stroke="none" stroke-width="1" stroke-linecap="butt" font-family="&quot;Comic Sans MS&quot;, Sans Serif" font-weight="normal" text-anchor="start"><tspan x="0" dy="0">Подпись:</tspan></text><path d="M210.4,575.1l13.75,-14l-7.75,35l-12.5,-4l29.5,-22.75l8,-9.5l8.5,9.25" fill="none" stroke="#10004c" stroke-width="3" stroke-linecap="round"/><path d="M221.9,578.35l16.5,4l1,13.25l7.5,-12.25l2.25,11.25" fill="none" stroke="#10004c" stroke-width="3" stroke-linecap="round"/><path d="M250.4,592.35l3,-13.25l8,2l-5,27.5" fill="none" stroke="#10004c" stroke-width="3" stroke-linecap="round"/><path d="M261.15,581.6l4.25,-1.25l3,13l8.75,-15.25l-0.25,15.75" fill="none" stroke="#10004c" stroke-width="3" stroke-linecap="round"/><path d="M277.15,580.35l5.25,-2.5l2.25,15" fill="none" stroke="#10004c" stroke-width="3" stroke-linecap="round"/><path d="M294.4,590.6l-1,-13l-4.5,13.25l-3.25,-14.75" fill="none" stroke="#10004c" stroke-width="3" stroke-linecap="round"/><path d="M308.4,585.35h-11.25l2.75,-10.25" fill="none" stroke="#10004c" stroke-width="3" stroke-linecap="round"/><path d="M310.4,576.1l-0.75,20.25" fill="none" stroke="#10004c" stroke-width="3" stroke-linecap="round"/><text transform="translate(138.55,285.86172) scale(0.22596,0.22596)" font-size="40" xml:space="preserve" fill="#000000" stroke="none" stroke-width="1" stroke-linecap="butt" font-family="&quot;Comic Sans MS&quot;, Sans Serif" font-weight="normal" text-anchor="start"><tspan x="0" dy="0">зп работникам платится автоматически</tspan></text></g></g></svg>