<svg version="1.1" xmlns="http://www.w3.org/2000/svg" xmlns:xlink="http://www.w3.org/1999/xlink" width="50.23221" height="74.29233" viewBox="0,0,50.23221,74.29233"><g transform="translate(-154.43405,-284.11283)"><g stroke-miterlimit="10"><path d="M204.66627,353.81303c0,2.53616 -11.24486,4.59213 -25.1161,4.59213c-13.87124,0 -25.11611,-2.05597 -25.11611,-4.59213c0,-2.53616 11.24487,-4.59213 25.11611,-4.59213c13.87124,0 25.1161,2.05597 25.1161,4.59213z" fill-opacity="0.4902" fill="#000000" stroke="none" stroke-width="0"/><path d="M161,355.3v-70.18717h38v70.18717z" fill="#505454" stroke="#000000" stroke-width="2"/><path d="M163.52,293.78v-6h32.8v6z" fill="#6d7373" stroke="#000000" stroke-width="2"/><path d="M163.72,302.58v-6h32.2v6z" fill="#6d7373" stroke="#000000" stroke-width="2"/><path d="M163.52,310.78v-5.8h32.6v5.8z" fill="#6d7373" stroke="#000000" stroke-width="2"/><path d="M163.72,319.58v-6.4h31.8v6.4z" fill="#6d7373" stroke="#000000" stroke-width="2"/><path d="M163.32,327.98v-5.6h32.8v5.6z" fill="#6d7373" stroke="#000000" stroke-width="2"/><path d="M163.32,335.38v-4.8h32.8v4.8z" fill="#6d7373" stroke="#000000" stroke-width="2"/><path d="M163.52,342.78v-4.4h25v4.4z" fill="#6d7373" stroke="#000000" stroke-width="2"/><path d="M196.32,340.48c0,1.49117 -1.07452,2.7 -2.4,2.7c-1.32548,0 -2.4,-1.20883 -2.4,-2.7c0,-1.49117 1.07452,-2.7 2.4,-2.7c1.32548,0 2.4,1.20883 2.4,2.7z" fill="#00ff2e" stroke="#000000" stroke-width="2"/></g></g></svg>