<svg version="1.1" xmlns="http://www.w3.org/2000/svg" xmlns:xlink="http://www.w3.org/1999/xlink" width="31.06666" height="20.16" viewBox="0,0,31.06666,20.16"><g transform="translate(-224.46667,-169.92)"><g stroke-miterlimit="10"><path d="M235.33333,184.41333l0.13333,4.66667" fill="none" stroke="#1a112b" stroke-width="2" stroke-linecap="round"/><path d="M242.46666,189.01333l-0.13333,-5.2" fill="none" stroke="#1a112b" stroke-width="2" stroke-linecap="round"/><path d="M250.73333,176.61333l3.8,3.13333" fill="none" stroke="#1a112b" stroke-width="2" stroke-linecap="round"/><path d="M227.46667,176.94666l-2,1.86667" fill="none" stroke="#1a112b" stroke-width="2" stroke-linecap="round"/><path d="M228.06,183.78667v-12.86667h22.6v12.86667z" fill="#ff6666" stroke="#000000" stroke-width="2" stroke-linecap="butt"/><path d="M243.66666,180.28c0,0 -3.01081,0.93333 -4.6,0.93333c-1.41204,0 -4.46666,-0.93333 -4.46666,-0.93333" fill="none" stroke="#000000" stroke-width="2" stroke-linecap="round"/><path d="M234.65714,175.95143c0,0.53387 -0.44771,0.96667 -1,0.96667c-0.55229,0 -1,-0.43279 -1,-0.96667c0,-0.53387 0.44771,-0.96667 1,-0.96667c0.55229,0 1,0.43279 1,0.96667z" fill="none" stroke="#000000" stroke-width="2" stroke-linecap="butt"/><path d="M245.7619,176.18c0,0.53387 -0.44771,0.96667 -1,0.96667c-0.55229,0 -1,-0.43279 -1,-0.96667c0,-0.53387 0.44771,-0.96667 1,-0.96667c0.55229,0 1,0.43279 1,0.96667z" fill="none" stroke="#000000" stroke-width="2" stroke-linecap="butt"/><path d="M226.97662,184.88215v-7.19048h24.80952v7.19048z" fill="#1a112b" stroke="none" stroke-width="0" stroke-linecap="butt"/><path d="M226.78614,174.97738v-5.04762h25.04762v5.04762z" fill="#1a112b" stroke="none" stroke-width="0" stroke-linecap="butt"/></g></g></svg>