<svg version="1.1" xmlns="http://www.w3.org/2000/svg" xmlns:xlink="http://www.w3.org/1999/xlink" width="25.87833" height="129.48274" viewBox="0,0,25.87833,129.48274"><g transform="translate(-225.43602,-167.93918)"><g stroke-miterlimit="10"><g><path d="M244.78143,190.79633v-8.85715h3.92857v8.85715z" fill="#131313" stroke="#000000" stroke-width="1" stroke-linecap="butt"/><path d="M232.78143,179.86775v-9.42857h15.14285v9.42857z" fill="#000000" stroke="#000000" stroke-width="0.5" stroke-linecap="butt"/><path d="M233.21,179.36775v-8.28571h14.14285v8.28571z" fill="#5aff00" stroke="#000000" stroke-width="0.5" stroke-linecap="butt"/><path d="M243.97283,186.85478l-2.33333,-2.4" fill="none" stroke="#843939" stroke-width="1" stroke-linecap="round"/><path d="M242.37284,187.65478l-2.4,-1.8" fill="none" stroke="#131313" stroke-width="1" stroke-linecap="round"/><path d="M230.34795,181.8724c0,0 0.17348,8.46795 -0.02411,8.47723c-0.22209,0.01043 -0.45817,-0.00272 -0.45913,-0.10567c-0.00932,-1.00213 -0.08604,-9.2468 -0.08604,-9.2468l20.53572,-0.07738c0,0 0.07687,8.39507 0.08611,9.40403c0.00088,0.09564 -0.19375,0.12264 -0.39085,0.12546c-0.2017,0.0029 -0.40598,-8.5395 -0.40598,-8.5395" fill="none" stroke="#131313" stroke-width="2" stroke-linecap="round"/><path d="M231.82173,179.53645c0,0.19177 -0.49746,0.34722 -1.11111,0.34722c-0.61365,0 -1.11111,-0.15546 -1.11111,-0.34722c0,-0.19177 0.49746,-0.34722 1.11111,-0.34722c0.61365,0 1.11111,0.15546 1.11111,0.34722z" fill="none" stroke="#3e3e3e" stroke-width="1" stroke-linecap="butt"/><g fill="#191919" stroke="#2b2b2b" stroke-width="1" stroke-linecap="butt"><path d="M233.80218,189.75517l-0.28115,-2.24916l8.53359,-1.0667l0.28115,2.24916z"/><path d="M237.35785,191.86376l-0.27288,-2.18301l1.7861,-0.22326l0.27288,2.18301z"/><path d="M233.42181,187.24967l-0.92613,-7.40901l2.38147,-0.29768l0.92613,7.40901z"/></g><path d="M240.90617,177.45478l3.4,2.2" fill="none" stroke="#843939" stroke-width="1" stroke-linecap="round"/><path d="M235.89915,186.60473l-1.53276,-11.49829l6.01347,-0.80163c0,0 0.7765,5.82509 1.05946,7.94776c0.18912,1.41876 0.4733,3.55053 0.4733,3.55053z" fill="#ff4949" stroke="#000000" stroke-width="1" stroke-linecap="butt"/><path d="M244.50617,181.3881l-3.4,-2.2" fill="none" stroke="#843939" stroke-width="1" stroke-linecap="round"/><path d="M248.78143,174.76061c0,3.72792 -2.22331,6.67857 -9.10715,6.67857c-6.88384,0 -7.89285,-3.23636 -7.89285,-6.96428c0,-3.72792 1.00902,-6.53572 7.89285,-6.53572c6.88384,0 9.10715,3.09351 9.10715,6.82143z" fill-opacity="0.31373" fill="#59ff00" stroke="none" stroke-width="0" stroke-linecap="butt"/><path d="M245.92428,183.36775h1.57143" fill="none" stroke="#2b2b2b" stroke-width="1" stroke-linecap="round"/><path d="M245.85285,184.86775l1.64286,-0.07143" fill="none" stroke="#2b2b2b" stroke-width="1" stroke-linecap="round"/></g><g><path d="M244.4481,216.79633v-8.85715h3.92857v8.85715z" fill="#131313" stroke="#000000" stroke-width="1" stroke-linecap="butt"/><path d="M232.4481,205.86775v-9.42857h15.14285v9.42857z" fill="#000000" stroke="#000000" stroke-width="0.5" stroke-linecap="butt"/><path d="M232.87667,205.36775v-8.28571h14.14285v8.28571z" fill="#5aff00" stroke="#000000" stroke-width="0.5" stroke-linecap="butt"/><path d="M241.30617,210.45478l2.33333,2.4" fill="none" stroke="#843939" stroke-width="1" stroke-linecap="round"/><path d="M242.03951,213.65478l-2.4,-1.8" fill="none" stroke="#131313" stroke-width="1" stroke-linecap="round"/><path d="M230.01462,207.8724c0,0 0.17348,8.46795 -0.02411,8.47723c-0.22209,0.01043 -0.45817,-0.00272 -0.45913,-0.10567c-0.00932,-1.00213 -0.08604,-9.2468 -0.08604,-9.2468l20.53572,-0.07738c0,0 0.07687,8.39507 0.08611,9.40403c0.00088,0.09564 -0.19375,0.12264 -0.39085,0.12546c-0.2017,0.0029 -0.40598,-8.5395 -0.40598,-8.5395" fill="none" stroke="#131313" stroke-width="2" stroke-linecap="round"/><path d="M231.4884,205.53645c0,0.19177 -0.49746,0.34722 -1.11111,0.34722c-0.61365,0 -1.11111,-0.15546 -1.11111,-0.34722c0,-0.19177 0.49746,-0.34722 1.11111,-0.34722c0.61365,0 1.11111,0.15546 1.11111,0.34722z" fill="none" stroke="#3e3e3e" stroke-width="1" stroke-linecap="butt"/><g fill="#191919" stroke="#2b2b2b" stroke-width="1" stroke-linecap="butt"><path d="M233.46885,215.75517l-0.28115,-2.24916l8.53359,-1.0667l0.28115,2.24916z"/><path d="M237.02452,217.86376l-0.27288,-2.18301l1.7861,-0.22326l0.27288,2.18301z"/><path d="M233.08848,213.24967l-0.92613,-7.40901l2.38147,-0.29768l0.92613,7.40901z"/></g><path d="M240.57284,203.45478l3.4,2.2" fill="none" stroke="#843939" stroke-width="1" stroke-linecap="round"/><path d="M235.56582,212.60473l-1.53276,-11.49829l6.01347,-0.80163c0,0 0.7765,5.82509 1.05946,7.94776c0.18912,1.41876 0.4733,3.55053 0.4733,3.55053z" fill="#ff4949" stroke="#000000" stroke-width="1" stroke-linecap="butt"/><path d="M240.77284,205.1881l3.4,2.2" fill="none" stroke="#843939" stroke-width="1" stroke-linecap="round"/><path d="M248.4481,200.76061c0,3.72792 -2.22331,6.67857 -9.10715,6.67857c-6.88384,0 -7.89285,-3.23636 -7.89285,-6.96428c0,-3.72792 1.00902,-6.53572 7.89285,-6.53572c6.88384,0 9.10715,3.09351 9.10715,6.82143z" fill-opacity="0.31373" fill="#59ff00" stroke="none" stroke-width="0" stroke-linecap="butt"/><path d="M245.59095,209.36775h1.57143" fill="none" stroke="#2b2b2b" stroke-width="1" stroke-linecap="round"/><path d="M245.51952,210.86775l1.64286,-0.07143" fill="none" stroke="#2b2b2b" stroke-width="1" stroke-linecap="round"/></g><g><path d="M243.2481,244.19633v-8.85715h3.92857v8.85715z" fill="#131313" stroke="#000000" stroke-width="1" stroke-linecap="butt"/><path d="M231.2481,233.26775v-9.42857h15.14285v9.42857z" fill="#000000" stroke="#000000" stroke-width="0.5" stroke-linecap="butt"/><path d="M231.67667,232.76775v-8.28571h14.14285v8.28571z" fill="#5aff00" stroke="#000000" stroke-width="0.5" stroke-linecap="butt"/><path d="M240.10617,237.85478l2.33333,2.4" fill="none" stroke="#843939" stroke-width="1" stroke-linecap="round"/><path d="M240.83951,241.05478l-2.4,-1.8" fill="none" stroke="#131313" stroke-width="1" stroke-linecap="round"/><path d="M228.81462,235.2724c0,0 0.17348,8.46795 -0.02411,8.47723c-0.22209,0.01043 -0.45817,-0.00272 -0.45913,-0.10567c-0.00932,-1.00213 -0.08604,-9.2468 -0.08604,-9.2468l20.53572,-0.07738c0,0 0.07687,8.39507 0.08611,9.40403c0.00088,0.09564 -0.19375,0.12264 -0.39085,0.12546c-0.2017,0.0029 -0.40598,-8.5395 -0.40598,-8.5395" fill="none" stroke="#131313" stroke-width="2" stroke-linecap="round"/><path d="M230.2884,232.93645c0,0.19177 -0.49746,0.34722 -1.11111,0.34722c-0.61365,0 -1.11111,-0.15546 -1.11111,-0.34722c0,-0.19177 0.49746,-0.34722 1.11111,-0.34722c0.61365,0 1.11111,0.15546 1.11111,0.34722z" fill="none" stroke="#3e3e3e" stroke-width="1" stroke-linecap="butt"/><g fill="#191919" stroke="#2b2b2b" stroke-width="1" stroke-linecap="butt"><path d="M232.26885,243.15517l-0.28115,-2.24916l8.53359,-1.0667l0.28115,2.24916z"/><path d="M235.82452,245.26376l-0.27288,-2.18301l1.7861,-0.22326l0.27288,2.18301z"/><path d="M231.88848,240.64967l-0.92613,-7.40901l2.38147,-0.29768l0.92613,7.40901z"/></g><path d="M239.37284,230.85478l3.4,2.2" fill="none" stroke="#843939" stroke-width="1" stroke-linecap="round"/><path d="M234.36582,240.00473l-1.53276,-11.49829l6.01347,-0.80163c0,0 0.7765,5.82509 1.05946,7.94776c0.18912,1.41876 0.4733,3.55053 0.4733,3.55053z" fill="#ff4949" stroke="#000000" stroke-width="1" stroke-linecap="butt"/><path d="M239.57284,232.5881l3.4,2.2" fill="none" stroke="#843939" stroke-width="1" stroke-linecap="round"/><path d="M247.2481,228.16061c0,3.72792 -2.22331,6.67857 -9.10715,6.67857c-6.88384,0 -7.89285,-3.23636 -7.89285,-6.96428c0,-3.72792 1.00902,-6.53572 7.89285,-6.53572c6.88384,0 9.10715,3.09351 9.10715,6.82143z" fill-opacity="0.31373" fill="#59ff00" stroke="none" stroke-width="0" stroke-linecap="butt"/><path d="M244.39095,236.76775h1.57143" fill="none" stroke="#2b2b2b" stroke-width="1" stroke-linecap="round"/><path d="M245.96238,238.19632l-1.64286,0.07143" fill="none" stroke="#2b2b2b" stroke-width="1" stroke-linecap="round"/></g><g><path d="M242.14809,269.79633v-8.85715h3.92857v8.85715z" fill="#131313" stroke="#000000" stroke-width="1" stroke-linecap="butt"/><path d="M230.14809,258.86775v-9.42857h15.14285v9.42857z" fill="#000000" stroke="#000000" stroke-width="0.5" stroke-linecap="butt"/><path d="M230.57666,258.36775v-8.28571h14.14285v8.28571z" fill="#5aff00" stroke="#000000" stroke-width="0.5" stroke-linecap="butt"/><path d="M239.00616,263.45478l2.33333,2.4" fill="none" stroke="#843939" stroke-width="1" stroke-linecap="round"/><path d="M239.7395,266.65478l-2.4,-1.8" fill="none" stroke="#131313" stroke-width="1" stroke-linecap="round"/><path d="M227.71461,260.8724c0,0 0.17348,8.46795 -0.02411,8.47723c-0.22209,0.01043 -0.45817,-0.00272 -0.45913,-0.10567c-0.00932,-1.00213 -0.08604,-9.2468 -0.08604,-9.2468l20.53572,-0.07738c0,0 0.07687,8.39507 0.08611,9.40403c0.00088,0.09564 -0.19375,0.12264 -0.39085,0.12546c-0.2017,0.0029 -0.40598,-8.5395 -0.40598,-8.5395" fill="none" stroke="#131313" stroke-width="2" stroke-linecap="round"/><path d="M229.18839,258.53645c0,0.19177 -0.49746,0.34722 -1.11111,0.34722c-0.61365,0 -1.11111,-0.15546 -1.11111,-0.34722c0,-0.19177 0.49746,-0.34722 1.11111,-0.34722c0.61365,0 1.11111,0.15546 1.11111,0.34722z" fill="none" stroke="#3e3e3e" stroke-width="1" stroke-linecap="butt"/><g fill="#191919" stroke="#2b2b2b" stroke-width="1" stroke-linecap="butt"><path d="M231.16884,268.75517l-0.28115,-2.24916l8.53359,-1.0667l0.28115,2.24916z"/><path d="M234.72451,270.86376l-0.27288,-2.18301l1.7861,-0.22326l0.27288,2.18301z"/><path d="M230.78847,266.24967l-0.92613,-7.40901l2.38147,-0.29768l0.92613,7.40901z"/></g><path d="M238.27283,256.45478l3.4,2.2" fill="none" stroke="#843939" stroke-width="1" stroke-linecap="round"/><path d="M233.26581,265.60473l-1.53276,-11.49829l6.01347,-0.80163c0,0 0.7765,5.82509 1.05946,7.94776c0.18912,1.41876 0.4733,3.55053 0.4733,3.55053z" fill="#ff4949" stroke="#000000" stroke-width="1" stroke-linecap="butt"/><path d="M238.47283,258.1881l3.4,2.2" fill="none" stroke="#843939" stroke-width="1" stroke-linecap="round"/><path d="M246.14809,253.76061c0,3.72792 -2.22331,6.67857 -9.10715,6.67857c-6.88384,0 -7.89285,-3.23636 -7.89285,-6.96428c0,-3.72792 1.00902,-6.53572 7.89285,-6.53572c6.88384,0 9.10715,3.09351 9.10715,6.82143z" fill-opacity="0.31373" fill="#59ff00" stroke="none" stroke-width="0" stroke-linecap="butt"/><path d="M244.86237,262.36775h-1.57143" fill="none" stroke="#2b2b2b" stroke-width="1" stroke-linecap="round"/><path d="M244.86237,263.79632l-1.64286,0.07143" fill="none" stroke="#2b2b2b" stroke-width="1" stroke-linecap="round"/></g><g><path d="M241.44809,295.79633v-8.85715h3.92857v8.85715z" fill="#131313" stroke="#000000" stroke-width="1" stroke-linecap="butt"/><path d="M229.44809,284.86775v-9.42857h15.14285v9.42857z" fill="#000000" stroke="#000000" stroke-width="0.5" stroke-linecap="butt"/><path d="M229.87666,284.36775v-8.28571h14.14285v8.28571z" fill="#5aff00" stroke="#000000" stroke-width="0.5" stroke-linecap="butt"/><path d="M238.30616,289.45478l2.33333,2.4" fill="none" stroke="#843939" stroke-width="1" stroke-linecap="round"/><path d="M239.0395,292.65478l-2.4,-1.8" fill="none" stroke="#131313" stroke-width="1" stroke-linecap="round"/><path d="M227.01461,286.8724c0,0 0.17348,8.46795 -0.02411,8.47723c-0.22209,0.01043 -0.45817,-0.00272 -0.45913,-0.10567c-0.00932,-1.00213 -0.08604,-9.2468 -0.08604,-9.2468l20.53572,-0.07738c0,0 0.07687,8.39507 0.08611,9.40403c0.00088,0.09564 -0.19375,0.12264 -0.39085,0.12546c-0.2017,0.0029 -0.40598,-8.5395 -0.40598,-8.5395" fill="none" stroke="#131313" stroke-width="2" stroke-linecap="round"/><path d="M228.48839,284.53645c0,0.19177 -0.49746,0.34722 -1.11111,0.34722c-0.61365,0 -1.11111,-0.15546 -1.11111,-0.34722c0,-0.19177 0.49746,-0.34722 1.11111,-0.34722c0.61365,0 1.11111,0.15546 1.11111,0.34722z" fill="none" stroke="#3e3e3e" stroke-width="1" stroke-linecap="butt"/><g fill="#191919" stroke="#2b2b2b" stroke-width="1" stroke-linecap="butt"><path d="M230.46884,294.75517l-0.28115,-2.24916l8.53359,-1.0667l0.28115,2.24916z"/><path d="M234.02451,296.86376l-0.27288,-2.18301l1.7861,-0.22326l0.27288,2.18301z"/><path d="M230.08847,292.24967l-0.92613,-7.40901l2.38147,-0.29768l0.92613,7.40901z"/></g><path d="M237.57283,282.45478l3.4,2.2" fill="none" stroke="#843939" stroke-width="1" stroke-linecap="round"/><path d="M232.56581,291.60473l-1.53276,-11.49829l6.01347,-0.80163c0,0 0.7765,5.82509 1.05946,7.94776c0.18912,1.41876 0.4733,3.55053 0.4733,3.55053z" fill="#ff4949" stroke="#000000" stroke-width="1" stroke-linecap="butt"/><path d="M237.77283,284.1881l3.4,2.2" fill="none" stroke="#843939" stroke-width="1" stroke-linecap="round"/><path d="M245.44809,279.76061c0,3.72792 -2.22331,6.67857 -9.10715,6.67857c-6.88384,0 -7.89285,-3.23636 -7.89285,-6.96428c0,-3.72792 1.00902,-6.53572 7.89285,-6.53572c6.88384,0 9.10715,3.09351 9.10715,6.82143z" fill-opacity="0.31373" fill="#59ff00" stroke="none" stroke-width="0" stroke-linecap="butt"/><path d="M244.16237,288.36775h-1.57143" fill="none" stroke="#2b2b2b" stroke-width="1" stroke-linecap="round"/><path d="M244.16237,289.79632l-1.64286,0.07143" fill="none" stroke="#2b2b2b" stroke-width="1" stroke-linecap="round"/></g></g></g></svg>