<svg version="1.1" xmlns="http://www.w3.org/2000/svg" xmlns:xlink="http://www.w3.org/1999/xlink" width="130.68582" height="122.54611" viewBox="0,0,130.68582,122.54611"><g transform="translate(-174.74739,-126.71361)"><g data-paper-data="{&quot;isPaintingLayer&quot;:true}" fill="#000000" fill-rule="nonzero" stroke="none" stroke-width="0" stroke-linecap="butt" stroke-linejoin="miter" stroke-miterlimit="10" stroke-dasharray="" stroke-dashoffset="0" style="mix-blend-mode: normal"><path d="M272.78071,126.71363c18.0242,0 32.6525,15.6145 32.6525,34.8538c0,37.41499 -37.40675,49.34065 -61.28918,86.66088c0.03528,-2.80243 0.10995,-5.56289 -0.5888,-8.29786c0.02401,-4.50266 0.56088,-9.24564 -1.50251,-13.41106c-1.02104,-2.0612 -2.66723,-3.61398 -3.70368,-5.68497c-0.80765,-2.11154 2.1139,-2.55392 3.25316,-3.4583c0.23643,-0.18768 0.05772,-0.66204 0.28637,-0.85912c0.43833,-0.37782 2.43349,-0.71447 3.01697,-1.0471c1.85484,-1.05743 4.07812,-2.32435 5.59498,-3.84121c1.47536,-1.47536 2.60925,-2.96564 0.9088,-4.72868c-4.08676,-6.13014 -12.2415,-9.33304 -18.20551,-13.32173c-1.59039,-1.06026 -3.15289,-2.00689 -4.81832,-2.92281c-0.39857,-0.2192 -0.78204,-0.4704 -1.13606,-0.75602c-0.36256,-0.29252 -1.62158,-0.70802 -1.16101,-0.77796c1.87956,-0.2854 4.11073,-2.70015 5.70603,-3.76107c2.05282,-1.36519 4.08434,-2.17607 6.43729,-2.78018c2.88925,-1.75535 6.47468,-1.54237 9.50659,-2.8868c0.92235,-0.40899 2.81236,-0.93989 3.21116,-2.10015c0.48997,-1.42551 -0.46457,-1.98208 -1.30807,-2.82196c-1.96021,-1.95178 -4.40527,-3.01272 -6.75601,-4.42273c-2.55351,-1.27039 -5.05864,-3.01556 -7.40141,-4.55564c-0.60098,-0.39507 -1.52828,-0.26136 -2.00328,-0.80139c-0.26339,-0.29944 1.69754,-1.35981 1.72773,-1.37994c2.42137,-1.61424 5.31711,-2.66001 7.94792,-3.96434c0.58925,-0.23572 2.22286,-0.83574 2.72822,-1.25216c4.19114,-3.45343 -1.17781,-8.98648 -1.94797,-13.07589c5.47612,-11.05034 16.32509,-18.60563 28.84411,-18.60563z"/><path d="M174.74739,161.8538c0,-19.2393 14.6283,-34.8538 32.6525,-34.8538c12.39749,0 23.15713,7.4092 28.68284,18.28456c0.24609,2.41297 1.69646,4.99597 2.59873,7.10787c0.43786,1.02489 1.36372,2.80973 0.85912,4.00795c-0.52385,1.24393 -2.16165,1.70997 -3.29713,2.16413c-2.70596,1.34622 -5.67014,2.42067 -8.1673,4.08544c-0.99146,0.66097 -3.01151,1.48726 -2.2815,3.20204c0.6323,1.48525 1.64582,0.86844 2.57869,1.4896c2.35842,1.57036 4.92174,3.31814 7.49001,4.60831c1.24415,0.74672 2.47003,1.39573 3.75425,2.0209c0.49789,0.24237 0.85349,0.70584 1.28589,1.05176c0.72276,0.57821 1.83156,1.20636 2.35994,1.99799c0.42871,0.64231 -2.40435,1.57511 -2.43801,1.5901c-3.01462,1.34319 -6.58417,1.11031 -9.47237,2.872c-3.96514,0.958 -7.06039,3.26832 -10.43414,5.50765c-0.49645,0.32952 -2.541,1.72494 -2.62341,2.26977c-0.05996,0.39644 1.44353,1.87869 1.70273,2.08578c1.80346,1.44089 4.12558,2.4684 6.07331,3.76689c5.84033,3.88223 13.89288,7.04763 17.87755,13.02464c1.56455,1.494 -1.6082,3.55319 -2.94655,4.31692c-1.41236,0.80597 -2.70281,1.88879 -4.20617,2.53313c-0.38683,0.16579 -2.12928,0.641 -2.22719,0.71537c-0.24039,0.18258 -0.05152,0.66948 -0.28637,0.85912c-1.88861,1.52506 -4.64578,1.78983 -3.6198,5.13291c1.05533,2.11234 2.69567,3.69864 3.74203,5.76997c2.00508,3.96916 1.34171,8.6392 1.36122,12.93531c0.66064,2.69305 0.91258,5.94068 0.72117,8.85961c-25.19245,-38.12796 -61.74003,-48.49997 -61.74003,-87.4059z"/></g></g></svg>