<svg version="1.1" xmlns="http://www.w3.org/2000/svg" xmlns:xlink="http://www.w3.org/1999/xlink" width="150.85038" height="169.52547" viewBox="0,0,150.85038,169.52547"><defs><linearGradient x1="210.89706" y1="151.37301" x2="231.99088" y2="172.2925" gradientUnits="userSpaceOnUse" id="color-1"><stop offset="0" stop-color="#00ceff"/><stop offset="1" stop-color="#d9f8ff"/></linearGradient><linearGradient x1="87.64847" y1="28.72393" x2="205.56629" y2="145.66722" gradientUnits="userSpaceOnUse" id="color-2"><stop offset="0" stop-color="#00ceff"/><stop offset="1" stop-color="#d9f8ff"/></linearGradient><linearGradient x1="204.07272" y1="144.60971" x2="212.19025" y2="152.66016" gradientUnits="userSpaceOnUse" id="color-3"><stop offset="0" stop-color="#00ceff"/><stop offset="1" stop-color="#d9f8ff"/></linearGradient><linearGradient x1="230.5615" y1="170.87958" x2="244.66037" y2="184.86193" gradientUnits="userSpaceOnUse" id="color-4"><stop offset="0" stop-color="#00ceff"/><stop offset="1" stop-color="#d9f8ff"/></linearGradient></defs><g transform="translate(-96.25212,-17.82935)"><g data-paper-data="{&quot;isPaintingLayer&quot;:true}" fill-rule="nonzero" stroke="none" stroke-width="0" stroke-linecap="butt" stroke-linejoin="miter" stroke-miterlimit="10" stroke-dasharray="" stroke-dashoffset="0" style="mix-blend-mode: normal"><path d="M227.89794,176.41956l-21.09382,-20.91949l8.18589,-8.2541l21.09382,20.91949z" fill="url(#color-1)"/><path d="M194.76174,156.5618c0,0 -74.04998,-73.438 -93.99246,-93.21566c-8.56713,-8.49633 -2.31627,-45.51679 -2.31627,-45.51679l117.91782,116.94329z" fill="url(#color-2)"/><path d="M198.63161,166.33179l-8.11753,-8.05044l27.11728,-27.34326l8.11753,8.05044z" fill="url(#color-3)"/><path d="M243.96655,171.46218c3.8933,3.86112 4.20393,9.86039 0.69382,13.39975c-3.51011,3.53936 -9.51175,3.27852 -13.40505,-0.5826c-3.8933,-3.86112 -4.20393,-9.86039 -0.69382,-13.39975c3.51011,-3.53936 9.51175,-3.27852 13.40505,0.5826z" fill="url(#color-4)"/></g></g></svg>