<svg version="1.1" xmlns="http://www.w3.org/2000/svg" xmlns:xlink="http://www.w3.org/1999/xlink" width="108.8" height="57.1997" viewBox="0,0,108.8,57.1997"><g transform="translate(-185.6,-145.41178)"><g data-paper-data="{&quot;isPaintingLayer&quot;:true}" fill-rule="nonzero" stroke-linecap="butt" stroke-linejoin="miter" stroke-miterlimit="10" stroke-dasharray="" stroke-dashoffset="0" style="mix-blend-mode: normal"><path d="M187.6,198.01562v-41.6h104.8v41.6z" fill="none" stroke="#ff9400" stroke-width="4"/><text transform="translate(222.7,192.76563) scale(0.71804,0.9377)" font-size="40" xml:space="preserve" fill="#ff9400" fill-rule="nonzero" stroke="none" stroke-width="1" stroke-linecap="butt" stroke-linejoin="miter" stroke-miterlimit="10" stroke-dasharray="" stroke-dashoffset="0" font-family="Pixel" font-weight="normal" text-anchor="start" style="mix-blend-mode: normal"><tspan x="0" dy="0">ITEM</tspan></text><path d="M216.1,190.2c0,3.75554 -5.42355,3 -9.4,3c-3.97645,0 -9,-0.44446 -9,-4.2c0,-1.71483 -1.11091,-7.04897 0.45124,-9.51404c1.85902,-2.93352 3.18801,-6.28596 5.34876,-6.28596c1.87222,0 7.7332,3.13992 8.96683,4.95c0.68631,1.00701 2.38338,2.68264 3.1144,5.16726c0.7458,2.53488 0.51878,5.87913 0.51878,6.88274z" fill="#ff9400" stroke="none" stroke-width="0"/><path d="M217.7,168.5c0,2.59574 -3.63858,5.1 -6.4,5.1c-2.76142,0 -6.6,-3.50426 -6.6,-6.1c0,-1.33384 2.57201,0.46209 4.08622,-0.39338c1.43253,-0.80932 2.77134,-3.50662 4.11378,-3.50662c1.55067,0 -1.26354,4.86354 -0.34643,5.90505c0.71608,0.81321 5.14643,-2.14316 5.14643,-1.00505z" fill="#ff9400" stroke="none" stroke-width="0"/><path d="M209.9,185.1c0,2.04345 -1.38792,3.7 -3.1,3.7c-1.71208,0 -3.1,-1.65655 -3.1,-3.7c0,-2.04345 1.38792,-3.7 3.1,-3.7c1.71208,0 3.1,1.65655 3.1,3.7z" fill="none" stroke="#000000" stroke-width="1.5"/></g></g></svg>