<svg version="1.1" xmlns="http://www.w3.org/2000/svg" xmlns:xlink="http://www.w3.org/1999/xlink" width="10.49994" height="199.10259" viewBox="0,0,10.49994,199.10259"><g transform="translate(-234.67612,-81.02659)"><g data-paper-data="{&quot;isPaintingLayer&quot;:true}" fill="#00f3ff" fill-rule="nonzero" stroke="none" stroke-width="0" stroke-linecap="butt" stroke-linejoin="miter" stroke-miterlimit="10" stroke-dasharray="" stroke-dashoffset="0" style="mix-blend-mode: normal"><path d="M237.18734,277.22987v-194.45974h5.62532v194.45974z"/><path d="M240.98833,84.38575c0,1.79992 -1.18554,3.25904 -2.64797,3.25904c-1.46243,0 -2.64797,-1.45912 -2.64797,-3.25904c0,-1.79992 1.18554,-3.25904 2.64797,-3.25904c1.46243,0 2.64797,1.45912 2.64797,3.25904z"/><path d="M244.35628,84.28562c0,1.79991 -1.18554,3.25904 -2.64797,3.25904c-1.46243,0 -2.64796,-1.45913 -2.64796,-3.25904c0,-1.79991 1.18553,-3.25903 2.64796,-3.25903c1.46243,0 2.64797,1.45912 2.64797,3.25903z"/><path d="M239.97205,276.76626c0,1.79991 -1.18554,3.25904 -2.64797,3.25904c-1.46243,0 -2.64796,-1.45912 -2.64796,-3.25904c0,-1.79991 1.18553,-3.25903 2.64796,-3.25903c1.46243,0 2.64797,1.45912 2.64797,3.25903z"/><path d="M245.17606,276.87014c0,1.79991 -1.18554,3.25904 -2.64797,3.25904c-1.46243,0 -2.64796,-1.45912 -2.64796,-3.25904c0,-1.79991 1.18553,-3.25903 2.64796,-3.25903c1.46243,0 2.64797,1.45912 2.64797,3.25903z"/></g></g></svg>