<svg version="1.1" xmlns="http://www.w3.org/2000/svg" xmlns:xlink="http://www.w3.org/1999/xlink" width="29.80234" height="84.30997" viewBox="0,0,29.80234,84.30997"><g transform="translate(-225.09883,-124.90488)"><g data-paper-data="{&quot;isPaintingLayer&quot;:true}" fill="#ff0000" fill-rule="nonzero" stroke="none" stroke-width="0" stroke-linecap="butt" stroke-linejoin="miter" stroke-miterlimit="10" stroke-dasharray="" stroke-dashoffset="0" style="mix-blend-mode: normal"><path d="M246.97705,205.69745c-6.81189,14.1403 1.90236,-18.15599 -0.45856,-29.70972c-1.61119,-7.88476 -6.05833,-17.35439 -9.53105,-24.8497c-5.01179,-10.81718 -11.88861,-15.3394 -11.88861,-17.02102c0,-1.97216 0.28336,-7.04246 2.25085,-8.44383c2.61298,-1.86113 7.28558,0.24412 9.327,0.24412c1.17267,0 5.20974,6.11933 9.3967,13.72008c3.11148,5.64838 5.00106,11.24155 6.95227,17.61333c0.58727,1.91776 2.85041,13.21585 1.39614,25.41371c-1.04739,8.78513 -5.31445,18.61094 -7.44474,23.03304z"/></g></g></svg>