<svg version="1.1" xmlns="http://www.w3.org/2000/svg" xmlns:xlink="http://www.w3.org/1999/xlink" width="150.85038" height="169.52547" viewBox="0,0,150.85038,169.52547"><defs><linearGradient x1="269.52745" y1="152.80074" x2="248.79385" y2="173.363" gradientUnits="userSpaceOnUse" id="color-1"><stop offset="0" stop-color="#00ceff"/><stop offset="1" stop-color="#d9f8ff"/></linearGradient><linearGradient x1="393.20615" y1="29.72393" x2="275.28833" y2="146.66723" gradientUnits="userSpaceOnUse" id="color-2"><stop offset="0" stop-color="#00ceff"/><stop offset="1" stop-color="#d9f8ff"/></linearGradient><linearGradient x1="276.7819" y1="145.60973" x2="268.66437" y2="153.66017" gradientUnits="userSpaceOnUse" id="color-3"><stop offset="0" stop-color="#00ceff"/><stop offset="1" stop-color="#d9f8ff"/></linearGradient><linearGradient x1="250.29312" y1="171.8796" x2="236.19425" y2="185.86195" gradientUnits="userSpaceOnUse" id="color-4"><stop offset="0" stop-color="#00ceff"/><stop offset="1" stop-color="#d9f8ff"/></linearGradient></defs><g transform="translate(-233.75212,-18.82936)"><g data-paper-data="{&quot;isPaintingLayer&quot;:true}" fill-rule="nonzero" stroke="none" stroke-width="0" stroke-linecap="butt" stroke-linejoin="miter" stroke-miterlimit="10" stroke-dasharray="" stroke-dashoffset="0" style="mix-blend-mode: normal"><path d="M244.77079,169.30643l20.73361,-20.56226l8.0461,8.11315l-20.73361,20.56226z" fill="url(#color-1)"/><path d="M264.48379,135.77265l117.91782,-116.94329c0,0 6.25086,37.02046 -2.31627,45.51679c-19.94248,19.77766 -93.99246,93.21566 -93.99246,93.21566z" fill="url(#color-2)"/><path d="M255.10573,139.98854l8.11753,-8.05044l27.11728,27.34326l-8.11753,8.05044z" fill="url(#color-3)"/><path d="M250.29312,171.8796c3.51011,3.53936 3.19948,9.53863 -0.69382,13.39975c-3.8933,3.86112 -9.89494,4.12196 -13.40505,0.5826c-3.51011,-3.53936 -3.19948,-9.53863 0.69382,-13.39975c3.8933,-3.86112 9.89494,-4.12196 13.40505,-0.5826z" fill="url(#color-4)"/></g></g></svg>