<svg version="1.1" xmlns="http://www.w3.org/2000/svg" xmlns:xlink="http://www.w3.org/1999/xlink" width="354.00001" height="352.48394" viewBox="0,0,354.00001,352.48394"><defs><linearGradient x1="239.99147" y1="-14.27112" x2="239.99147" y2="320.52045" gradientUnits="userSpaceOnUse" id="color-1"><stop offset="0" stop-color="#00ceff"/><stop offset="1" stop-color="#d9f8ff"/></linearGradient><linearGradient x1="393.20615" y1="29.72392" x2="275.28833" y2="146.66722" gradientUnits="userSpaceOnUse" id="color-2"><stop offset="0" stop-color="#00ceff"/><stop offset="1" stop-color="#d9f8ff"/></linearGradient><linearGradient x1="276.7819" y1="145.60971" x2="268.66437" y2="153.66016" gradientUnits="userSpaceOnUse" id="color-3"><stop offset="0" stop-color="#00ceff"/><stop offset="1" stop-color="#d9f8ff"/></linearGradient><linearGradient x1="268.23713" y1="154.08386" x2="248.58416" y2="173.57441" gradientUnits="userSpaceOnUse" id="color-4"><stop offset="0" stop-color="#00ceff"/><stop offset="1" stop-color="#d9f8ff"/></linearGradient><linearGradient x1="250.29312" y1="171.87958" x2="236.19425" y2="185.86193" gradientUnits="userSpaceOnUse" id="color-5"><stop offset="0" stop-color="#00ceff"/><stop offset="1" stop-color="#d9f8ff"/></linearGradient></defs><g transform="translate(-72.25,-17.75803)"><g data-paper-data="{&quot;isPaintingLayer&quot;:true}" fill-rule="nonzero" stroke="none" stroke-width="0" stroke-linecap="butt" stroke-linejoin="miter" stroke-miterlimit="10" stroke-dasharray="" stroke-dashoffset="0" style="mix-blend-mode: normal"><path d="M426.25,199.53142c0,92.45014 -81.05184,170.71056 -190.76705,170.71056c-109.71522,0 -163.23295,-118.81548 -163.23295,-118.81548c0,0 58.28568,17.8823 73.23553,7.09155c18.55153,-13.39043 1.74412,-52.93422 1.74412,-52.93422c0,0 46.16665,14.18174 62.65718,-7.3227c16.93002,-22.07755 -29.79251,-84.59975 -26.96695,-82.69181c28.78618,19.43761 37.59221,19.01583 51.86127,19.01583c18.57548,0 55.39753,-8.76743 86.04995,-31.2207c32.64683,-23.91421 60.43515,-85.60641 60.43515,-85.60641c0,0 44.98376,121.64647 44.98376,181.77339z" fill="url(#color-1)"/><g data-paper-data="{&quot;index&quot;:null}"><path d="M264.48379,135.77264l117.91782,-116.94329c0,0 6.25086,37.02046 -2.31627,45.51679c-19.94248,19.77766 -93.99246,93.21566 -93.99246,93.21566z" fill="url(#color-2)"/><path d="M255.10573,139.98853l8.11753,-8.05044l27.11728,27.34326l-8.11753,8.05044z" fill="url(#color-3)"/><path d="M244.77079,169.72927l19.65297,-19.49055l7.62674,7.69029l-19.65297,19.49055z" fill="url(#color-4)"/><path d="M250.29312,171.87958c3.51011,3.53936 3.19948,9.53863 -0.69382,13.39975c-3.8933,3.86112 -9.89494,4.12196 -13.40505,0.5826c-3.51011,-3.53936 -3.19948,-9.53863 0.69382,-13.39975c3.8933,-3.86112 9.89494,-4.12196 13.40505,-0.5826z" fill="url(#color-5)"/></g></g></g></svg>