<svg version="1.1" xmlns="http://www.w3.org/2000/svg" xmlns:xlink="http://www.w3.org/1999/xlink" width="28.3795" height="28.3795" viewBox="0,0,28.3795,28.3795"><g transform="translate(-259.75424,-165.81025)"><g data-paper-data="{&quot;isPaintingLayer&quot;:true}" fill-rule="nonzero" stroke-linecap="butt" stroke-miterlimit="10" stroke-dasharray="" stroke-dashoffset="0" style="mix-blend-mode: normal"><path d="M280.04488,176.92648c0,2.30954 -2.20404,4.1818 -4.92287,4.1818c-2.71883,0 -4.92287,-1.87226 -4.92287,-4.1818c0,-2.30954 2.20404,-4.18179 4.92287,-4.18179c2.71883,0 4.92287,1.87225 4.92287,4.18179z" fill="#ffd300" stroke="none" stroke-width="0" stroke-linejoin="miter"/><path d="M280.20466,183.65009c0,2.30954 -2.20404,4.18179 -4.92287,4.18179c-2.71883,0 -4.92287,-1.87225 -4.92287,-4.18179c0,-2.30954 2.20404,-4.1818 4.92287,-4.1818c2.71883,0 4.92287,1.87226 4.92287,4.1818z" fill="#ffd300" stroke="none" stroke-width="0" stroke-linejoin="miter"/><path d="M278.75412,180.17485c1.88295,0.82808 3.19168,2.61528 3.19168,4.69178c0,2.8627 -2.47999,5.18606 -5.53569,5.18606c-6.01797,0 -7.88405,-6.0931 -13.9919,-9.87784c6.14567,-4.00318 7.77553,-9.87781 13.9919,-9.87781c3.0557,0 5.53569,2.32335 5.53569,5.18606c0,2.0765 -1.30873,3.86371 -3.19168,4.69174z" fill="#00ff21" stroke="none" stroke-width="0" stroke-linejoin="round"/><path d="M260.50424,180c0,-7.42257 6.01718,-13.43975 13.43975,-13.43975c7.42257,0 13.43975,6.01718 13.43975,13.43975c0,7.42257 -6.01718,13.43975 -13.43975,13.43975c-7.42257,0 -13.43975,-6.01718 -13.43975,-13.43975z" fill="none" stroke="#00ff21" stroke-width="1.5" stroke-linejoin="miter"/></g></g></svg>